<svg width="628" height="275" viewBox="0 0 628 275" fill="none" xmlns="http://www.w3.org/2000/svg">
<g filter="url(#filter0_d_146_913)">
<path d="M4 271H624V34C624 17.4315 610.569 4 594 4H34C17.4315 4 4 17.4315 4 34V271Z" fill="url(#paint0_linear_146_913)"/>
<path d="M157.848 172.536C150.616 172.536 145.304 170.712 141.912 167.064C138.52 163.416 136.824 157.368 136.824 148.92C136.824 142.2 137.944 134.968 140.184 127.224C142.488 119.48 146.136 112.856 151.128 107.352C156.184 101.784 162.584 99 170.328 99C175.128 99 179 100.056 181.944 102.168C184.888 104.28 186.36 107.512 186.36 111.864C186.36 114.616 185.816 116.792 184.728 118.392C183.64 119.928 181.944 120.696 179.64 120.696C177.336 120.696 175.512 119.864 174.168 118.2C175.32 117.624 176.344 116.472 177.24 114.744C178.136 113.016 178.584 111.224 178.584 109.368C178.584 107.64 178.104 106.232 177.144 105.144C176.248 104.056 174.776 103.512 172.728 103.512C169.336 103.512 166.104 105.848 163.032 110.52C159.96 115.128 157.464 120.952 155.544 127.992C153.688 135.032 152.76 141.816 152.76 148.344C152.76 153.208 153.592 156.92 155.256 159.48C156.92 162.04 159.928 163.32 164.28 163.32C168.056 163.32 171.544 162.488 174.744 160.824C177.944 159.16 180.696 156.792 183 153.72L185.208 154.68C183.608 158.712 181.24 162.072 178.104 164.76C174.968 167.448 171.608 169.432 168.024 170.712C164.44 171.928 161.048 172.536 157.848 172.536ZM194.239 171.576C190.591 171.576 187.551 170.328 185.119 167.832C182.687 165.336 181.471 161.432 181.471 156.12C181.471 151.384 182.399 146.424 184.255 141.24C186.175 135.992 188.991 131.576 192.703 127.992C196.479 124.344 200.959 122.52 206.143 122.52C208.767 122.52 210.719 122.968 211.999 123.864C213.279 124.76 213.919 125.944 213.919 127.416V128.088L214.975 123H228.799L221.887 155.64C221.631 156.6 221.503 157.624 221.503 158.712C221.503 161.464 222.815 162.84 225.439 162.84C227.231 162.84 228.767 162.008 230.047 160.344C231.391 158.68 232.447 156.504 233.215 153.816H237.247C234.879 160.728 231.935 165.432 228.415 167.928C224.959 170.36 221.471 171.576 217.951 171.576C215.263 171.576 213.087 170.84 211.423 169.368C209.823 167.832 208.863 165.624 208.543 162.744C206.687 165.368 204.607 167.512 202.303 169.176C200.063 170.776 197.375 171.576 194.239 171.576ZM200.479 162.264C202.079 162.264 203.647 161.528 205.183 160.056C206.783 158.52 207.871 156.44 208.447 153.816L213.055 132.12C213.055 131.288 212.735 130.488 212.095 129.72C211.455 128.888 210.463 128.472 209.119 128.472C206.559 128.472 204.255 129.976 202.207 132.984C200.159 135.928 198.559 139.512 197.407 143.736C196.255 147.896 195.679 151.576 195.679 154.776C195.679 157.976 196.127 160.024 197.023 160.92C197.983 161.816 199.135 162.264 200.479 162.264ZM224.61 195C221.602 195 218.978 194.008 216.738 192.024C214.434 190.104 213.282 187.64 213.282 184.632C213.282 181.88 213.986 179.608 215.394 177.816C216.802 176.024 218.626 174.584 220.866 173.496C223.106 172.472 226.082 171.384 229.794 170.232L241.41 115.416C242.69 109.272 244.93 105.016 248.13 102.648C251.394 100.28 254.978 99.096 258.882 99.096C261.89 99.096 264.514 100.088 266.754 102.072C269.058 103.992 270.21 106.456 270.21 109.464C270.21 110.936 270.114 112.248 269.922 113.4H265.41C265.538 111.992 265.602 111.128 265.602 110.808C265.602 109.784 265.25 108.984 264.546 108.408C263.842 107.832 262.978 107.544 261.954 107.544C260.61 107.544 259.298 108.152 258.018 109.368C256.738 110.52 255.81 112.536 255.234 115.416L253.602 123H260.61L259.938 126.84H252.834L241.794 178.68C240.514 184.888 238.306 189.144 235.17 191.448C232.034 193.816 228.514 195 224.61 195ZM222.402 186.456C224.962 186.456 226.786 183.96 227.874 178.968L229.122 173.4C225.73 174.552 223.138 175.864 221.346 177.336C219.49 178.872 218.562 180.856 218.562 183.288C218.562 184.056 218.946 184.76 219.714 185.4C220.482 186.104 221.378 186.456 222.402 186.456ZM272.572 171.576C267.836 171.576 264.156 170.36 261.532 167.928C258.908 165.432 257.596 161.56 257.596 156.312C257.596 151.896 258.46 147.032 260.188 141.72C261.916 136.408 264.732 131.832 268.636 127.992C272.54 124.088 277.5 122.136 283.516 122.136C290.556 122.136 294.076 125.208 294.076 131.352C294.076 134.936 293.052 138.232 291.004 141.24C288.956 144.248 286.236 146.68 282.844 148.536C279.452 150.328 275.836 151.352 271.996 151.608C271.868 153.528 271.804 154.808 271.804 155.448C271.804 158.584 272.348 160.728 273.436 161.88C274.524 162.968 276.284 163.512 278.716 163.512C282.172 163.512 285.116 162.712 287.548 161.112C290.044 159.512 292.764 157.08 295.708 153.816H298.972C291.868 165.656 283.068 171.576 272.572 171.576ZM272.764 147C275.132 146.872 277.372 146.04 279.484 144.504C281.66 142.968 283.388 141.016 284.668 138.648C286.012 136.28 286.684 133.784 286.684 131.16C286.684 128.536 285.884 127.224 284.284 127.224C281.98 127.224 279.708 129.24 277.468 133.272C275.292 137.304 273.724 141.88 272.764 147ZM311.72 117.816C309.608 117.816 307.816 117.08 306.344 115.608C304.872 114.136 304.136 112.344 304.136 110.232C304.136 108.12 304.872 106.328 306.344 104.856C307.816 103.32 309.608 102.552 311.72 102.552C313.832 102.552 315.624 103.32 317.096 104.856C318.632 106.328 319.4 108.12 319.4 110.232C319.4 112.344 318.632 114.136 317.096 115.608C315.624 117.08 313.832 117.816 311.72 117.816ZM305.192 171.576C302.12 171.576 299.624 170.616 297.704 168.696C295.848 166.776 294.919 163.896 294.919 160.056C294.919 158.456 295.175 156.376 295.688 153.816L302.216 123H316.04L309.128 155.64C308.872 156.6 308.744 157.624 308.744 158.712C308.744 159.992 309.032 160.92 309.608 161.496C310.248 162.008 311.272 162.264 312.68 162.264C314.536 162.264 316.264 161.496 317.864 159.96C319.464 158.36 320.616 156.312 321.32 153.816H325.352C322.984 160.728 319.944 165.432 316.232 167.928C312.52 170.36 308.84 171.576 305.192 171.576ZM354.305 171.576C350.913 171.576 348.449 170.552 346.913 168.504C345.377 166.456 344.609 163.864 344.609 160.728C344.609 159.384 344.769 157.88 345.089 156.216C345.409 154.488 345.729 152.824 346.049 151.224C346.433 149.624 346.689 148.6 346.817 148.152C347.329 145.912 347.809 143.704 348.257 141.528C348.705 139.352 348.929 137.592 348.929 136.248C348.929 132.984 347.777 131.352 345.473 131.352C343.809 131.352 342.337 132.184 341.057 133.848C339.777 135.448 338.753 137.56 337.985 140.184L331.457 171H317.633L327.809 123H341.633L340.577 127.992C343.777 124.408 347.521 122.616 351.809 122.616C355.073 122.616 357.665 123.512 359.585 125.304C361.505 127.096 362.465 129.816 362.465 133.464C362.465 135.32 362.241 137.4 361.793 139.704C361.345 141.944 360.705 144.696 359.873 147.96C359.361 149.944 358.881 151.896 358.433 153.816C358.049 155.672 357.857 157.144 357.857 158.232C357.857 159.512 358.145 160.504 358.721 161.208C359.297 161.912 360.289 162.264 361.697 162.264C363.233 162.264 364.289 162.072 364.865 161.688C364.481 164.952 363.297 167.416 361.313 169.08C359.393 170.744 357.057 171.576 354.305 171.576ZM385.803 181.944C383.435 181.944 381.355 181.752 379.563 181.368C377.771 180.984 376.203 180.056 374.859 178.584C373.579 177.112 372.939 174.84 372.939 171.768C372.939 167.48 374.219 161.72 376.779 154.488C379.403 147.256 382.827 139.992 387.051 132.696C383.851 132.888 381.323 133.368 379.467 134.136C377.611 134.904 376.395 136.088 375.819 137.688C376.075 137.688 376.331 138.008 376.587 138.648C376.907 139.288 377.067 139.96 377.067 140.664C377.067 141.816 376.555 142.744 375.531 143.448C374.507 144.088 373.227 144.408 371.691 144.408C369.899 144.408 368.459 143.928 367.371 142.968C366.283 142.008 365.739 140.632 365.739 138.84C365.739 136.664 366.571 134.68 368.235 132.888C369.963 131.096 372.331 129.688 375.339 128.664C378.347 127.576 381.675 127.032 385.323 127.032C386.667 127.032 388.331 127.128 390.315 127.32C395.563 119 401.099 112.216 406.923 106.968C412.811 101.656 418.411 99 423.723 99C426.795 99 429.323 99.448 431.307 100.344L416.235 171H402.411L409.803 136.152C407.435 135.064 405.259 134.264 403.275 133.752C401.291 133.24 399.179 132.888 396.939 132.696C393.291 140.568 390.283 148.632 387.915 156.888C385.611 165.08 384.459 171.64 384.459 176.568C384.459 179 384.907 180.792 385.803 181.944ZM416.235 105.816C413.483 107.288 410.603 110.04 407.595 114.072C404.651 118.04 401.771 122.872 398.955 128.568C403.563 129.464 407.467 130.584 410.667 131.928L416.235 105.816ZM444.264 117.72C442.152 117.72 440.36 116.984 438.888 115.512C437.416 114.04 436.68 112.248 436.68 110.136C436.68 108.024 437.416 106.232 438.888 104.76C440.36 103.224 442.152 102.456 444.264 102.456C446.376 102.456 448.168 103.224 449.64 104.76C451.176 106.232 451.944 108.024 451.944 110.136C451.944 112.248 451.176 114.04 449.64 115.512C448.168 116.984 446.376 117.72 444.264 117.72ZM420.36 195C417.288 195 414.728 194.2 412.68 192.6C410.632 191 409.608 188.696 409.608 185.688C409.608 179.48 414.856 174.712 425.352 171.384L435.624 123H449.448L439.944 167.544C443.016 166.52 445.48 164.984 447.336 162.936C449.192 160.888 450.76 157.848 452.04 153.816H456.072C454.344 159.512 452.008 163.704 449.064 166.392C446.12 169.016 442.792 170.808 439.08 171.768L437.64 178.68C436.36 184.888 434.152 189.144 431.016 191.448C427.88 193.816 424.328 195 420.36 195ZM418.152 187.512C419.24 187.512 420.296 186.776 421.32 185.304C422.344 183.832 423.144 181.72 423.72 178.968L424.296 176.184C418.024 178.488 414.888 181.208 414.888 184.344C414.888 185.176 415.176 185.912 415.752 186.552C416.328 187.192 417.128 187.512 418.152 187.512ZM463.583 171.576C459.935 171.576 456.895 170.328 454.463 167.832C452.03 165.336 450.814 161.432 450.814 156.12C450.814 151.384 451.743 146.424 453.599 141.24C455.519 135.992 458.335 131.576 462.047 127.992C465.823 124.344 470.303 122.52 475.487 122.52C478.111 122.52 480.063 122.968 481.343 123.864C482.623 124.76 483.263 125.944 483.263 127.416V128.088L484.319 123H498.143L491.231 155.64C490.975 156.6 490.847 157.624 490.847 158.712C490.847 159.992 491.135 160.92 491.711 161.496C492.351 162.008 493.375 162.264 494.783 162.264C495.679 162.264 496.383 162.136 496.895 161.88C495.487 165.464 494.143 167.992 492.863 169.464C491.583 170.872 489.727 171.576 487.295 171.576C484.671 171.576 482.527 170.808 480.863 169.272C479.263 167.672 478.271 165.464 477.887 162.648C473.983 168.6 469.215 171.576 463.583 171.576ZM469.823 162.264C471.423 162.264 472.991 161.528 474.527 160.056C476.127 158.52 477.215 156.44 477.791 153.816L482.399 132.12C482.399 131.288 482.079 130.488 481.439 129.72C480.799 128.888 479.807 128.472 478.463 128.472C475.903 128.472 473.599 129.976 471.551 132.984C469.503 135.928 467.903 139.512 466.751 143.736C465.599 147.896 465.023 151.576 465.023 154.776C465.023 157.976 465.471 160.024 466.367 160.92C467.327 161.816 468.479 162.264 469.823 162.264Z" fill="#FDF2F2"/>
</g>
<defs>
<filter id="filter0_d_146_913" x="0" y="0" width="628" height="275" filterUnits="userSpaceOnUse" color-interpolation-filters="sRGB">
<feFlood flood-opacity="0" result="BackgroundImageFix"/>
<feColorMatrix in="SourceAlpha" type="matrix" values="0 0 0 0 0 0 0 0 0 0 0 0 0 0 0 0 0 0 127 0" result="hardAlpha"/>
<feOffset/>
<feGaussianBlur stdDeviation="2"/>
<feComposite in2="hardAlpha" operator="out"/>
<feColorMatrix type="matrix" values="0 0 0 0 0 0 0 0 0 0 0 0 0 0 0 0 0 0 0.25 0"/>
<feBlend mode="normal" in2="BackgroundImageFix" result="effect1_dropShadow_146_913"/>
<feBlend mode="normal" in="SourceGraphic" in2="effect1_dropShadow_146_913" result="shape"/>
</filter>
<linearGradient id="paint0_linear_146_913" x1="314" y1="271" x2="314" y2="4" gradientUnits="userSpaceOnUse">
<stop stop-color="#C5CCF5"/>
<stop offset="0.0001" stop-color="#7E8BD8"/>
<stop offset="0.25" stop-color="#96A1E2"/>
<stop offset="0.5" stop-color="#B9C1F0"/>
</linearGradient>
</defs>
</svg>
