<svg width="628" height="275" viewBox="0 0 628 275" fill="none" xmlns="http://www.w3.org/2000/svg">
<g filter="url(#filter0_d_248_195)">
<path d="M4 34C4 17.4315 17.4315 4 34 4H594C610.569 4 624 17.4315 624 34V271H4V34Z" fill="url(#paint0_linear_248_195)"/>
<g filter="url(#filter1_d_248_195)">
<path d="M136.18 183.76C127.893 183.76 121.807 181.67 117.92 177.49C114.033 173.31 112.09 166.38 112.09 156.7C112.09 149 113.373 140.713 115.94 131.84C118.58 122.967 122.76 115.377 128.48 109.07C134.273 102.69 141.607 99.5 150.48 99.5C155.98 99.5 160.417 100.71 163.79 103.13C167.163 105.55 168.85 109.253 168.85 114.24C168.85 117.393 168.227 119.887 166.98 121.72C165.733 123.48 163.79 124.36 161.15 124.36C158.51 124.36 156.42 123.407 154.88 121.5C156.2 120.84 157.373 119.52 158.4 117.54C159.427 115.56 159.94 113.507 159.94 111.38C159.94 109.4 159.39 107.787 158.29 106.54C157.263 105.293 155.577 104.67 153.23 104.67C149.343 104.67 145.64 107.347 142.12 112.7C138.6 117.98 135.74 124.653 133.54 132.72C131.413 140.787 130.35 148.56 130.35 156.04C130.35 161.613 131.303 165.867 133.21 168.8C135.117 171.733 138.563 173.2 143.55 173.2C147.877 173.2 151.873 172.247 155.54 170.34C159.207 168.433 162.36 165.72 165 162.2L167.53 163.3C165.697 167.92 162.983 171.77 159.39 174.85C155.797 177.93 151.947 180.203 147.84 181.67C143.733 183.063 139.847 183.76 136.18 183.76ZM177.878 182.66C173.698 182.66 170.214 181.23 167.428 178.37C164.641 175.51 163.248 171.037 163.248 164.95C163.248 159.523 164.311 153.84 166.438 147.9C168.638 141.887 171.864 136.827 176.118 132.72C180.444 128.54 185.578 126.45 191.518 126.45C194.524 126.45 196.761 126.963 198.228 127.99C199.694 129.017 200.428 130.373 200.428 132.06V132.83L201.638 127H217.478L209.558 164.4C209.264 165.5 209.118 166.673 209.118 167.92C209.118 171.073 210.621 172.65 213.628 172.65C215.681 172.65 217.441 171.697 218.908 169.79C220.448 167.883 221.658 165.39 222.538 162.31H227.158C224.444 170.23 221.071 175.62 217.038 178.48C213.078 181.267 209.081 182.66 205.048 182.66C201.968 182.66 199.474 181.817 197.568 180.13C195.734 178.37 194.634 175.84 194.268 172.54C192.141 175.547 189.758 178.003 187.118 179.91C184.551 181.743 181.471 182.66 177.878 182.66ZM185.028 171.99C186.861 171.99 188.658 171.147 190.418 169.46C192.251 167.7 193.498 165.317 194.158 162.31L199.438 137.45C199.438 136.497 199.071 135.58 198.338 134.7C197.604 133.747 196.468 133.27 194.928 133.27C191.994 133.27 189.354 134.993 187.008 138.44C184.661 141.813 182.828 145.92 181.508 150.76C180.188 155.527 179.528 159.743 179.528 163.41C179.528 167.077 180.041 169.423 181.068 170.45C182.168 171.477 183.488 171.99 185.028 171.99ZM212.678 209.5C209.231 209.5 206.225 208.363 203.658 206.09C201.018 203.89 199.698 201.067 199.698 197.62C199.698 194.467 200.505 191.863 202.118 189.81C203.731 187.757 205.821 186.107 208.388 184.86C210.955 183.687 214.365 182.44 218.618 181.12L231.928 118.31C233.395 111.27 235.961 106.393 239.628 103.68C243.368 100.967 247.475 99.61 251.948 99.61C255.395 99.61 258.401 100.747 260.968 103.02C263.608 105.22 264.928 108.043 264.928 111.49C264.928 113.177 264.818 114.68 264.598 116H259.428C259.575 114.387 259.648 113.397 259.648 113.03C259.648 111.857 259.245 110.94 258.438 110.28C257.631 109.62 256.641 109.29 255.468 109.29C253.928 109.29 252.425 109.987 250.958 111.38C249.491 112.7 248.428 115.01 247.768 118.31L245.898 127H253.928L253.158 131.4H245.018L232.368 190.8C230.901 197.913 228.371 202.79 224.778 205.43C221.185 208.143 217.151 209.5 212.678 209.5ZM210.148 199.71C213.081 199.71 215.171 196.85 216.418 191.13L217.848 184.75C213.961 186.07 210.991 187.573 208.938 189.26C206.811 191.02 205.748 193.293 205.748 196.08C205.748 196.96 206.188 197.767 207.068 198.5C207.948 199.307 208.975 199.71 210.148 199.71ZM267.634 182.66C262.208 182.66 257.991 181.267 254.984 178.48C251.978 175.62 250.474 171.183 250.474 165.17C250.474 160.11 251.464 154.537 253.444 148.45C255.424 142.363 258.651 137.12 263.124 132.72C267.598 128.247 273.281 126.01 280.174 126.01C288.241 126.01 292.274 129.53 292.274 136.57C292.274 140.677 291.101 144.453 288.754 147.9C286.408 151.347 283.291 154.133 279.404 156.26C275.518 158.313 271.374 159.487 266.974 159.78C266.828 161.98 266.754 163.447 266.754 164.18C266.754 167.773 267.378 170.23 268.624 171.55C269.871 172.797 271.888 173.42 274.674 173.42C278.634 173.42 282.008 172.503 284.794 170.67C287.654 168.837 290.771 166.05 294.144 162.31H297.884C289.744 175.877 279.661 182.66 267.634 182.66ZM267.854 154.5C270.568 154.353 273.134 153.4 275.554 151.64C278.048 149.88 280.028 147.643 281.494 144.93C283.034 142.217 283.804 139.357 283.804 136.35C283.804 133.343 282.888 131.84 281.054 131.84C278.414 131.84 275.811 134.15 273.244 138.77C270.751 143.39 268.954 148.633 267.854 154.5ZM312.491 121.06C310.071 121.06 308.018 120.217 306.331 118.53C304.644 116.843 303.801 114.79 303.801 112.37C303.801 109.95 304.644 107.897 306.331 106.21C308.018 104.45 310.071 103.57 312.491 103.57C314.911 103.57 316.964 104.45 318.651 106.21C320.411 107.897 321.291 109.95 321.291 112.37C321.291 114.79 320.411 116.843 318.651 118.53C316.964 120.217 314.911 121.06 312.491 121.06ZM305.011 182.66C301.491 182.66 298.631 181.56 296.431 179.36C294.304 177.16 293.241 173.86 293.241 169.46C293.241 167.627 293.534 165.243 294.121 162.31L301.601 127H317.441L309.521 164.4C309.228 165.5 309.081 166.673 309.081 167.92C309.081 169.387 309.411 170.45 310.071 171.11C310.804 171.697 311.978 171.99 313.591 171.99C315.718 171.99 317.698 171.11 319.531 169.35C321.364 167.517 322.684 165.17 323.491 162.31H328.111C325.398 170.23 321.914 175.62 317.661 178.48C313.408 181.267 309.191 182.66 305.011 182.66ZM361.287 182.66C357.401 182.66 354.577 181.487 352.817 179.14C351.057 176.793 350.177 173.823 350.177 170.23C350.177 168.69 350.361 166.967 350.727 165.06C351.094 163.08 351.461 161.173 351.827 159.34C352.267 157.507 352.561 156.333 352.707 155.82C353.294 153.253 353.844 150.723 354.357 148.23C354.871 145.737 355.127 143.72 355.127 142.18C355.127 138.44 353.807 136.57 351.167 136.57C349.261 136.57 347.574 137.523 346.107 139.43C344.641 141.263 343.467 143.683 342.587 146.69L335.107 182H319.267L330.927 127H346.767L345.557 132.72C349.224 128.613 353.514 126.56 358.427 126.56C362.167 126.56 365.137 127.587 367.337 129.64C369.537 131.693 370.637 134.81 370.637 138.99C370.637 141.117 370.381 143.5 369.867 146.14C369.354 148.707 368.621 151.86 367.667 155.6C367.081 157.873 366.531 160.11 366.017 162.31C365.577 164.437 365.357 166.123 365.357 167.37C365.357 168.837 365.687 169.973 366.347 170.78C367.007 171.587 368.144 171.99 369.757 171.99C371.517 171.99 372.727 171.77 373.387 171.33C372.947 175.07 371.591 177.893 369.317 179.8C367.117 181.707 364.441 182.66 361.287 182.66ZM397.378 194.54C394.665 194.54 392.282 194.32 390.228 193.88C388.175 193.44 386.378 192.377 384.838 190.69C383.372 189.003 382.638 186.4 382.638 182.88C382.638 177.967 384.105 171.367 387.038 163.08C390.045 154.793 393.968 146.47 398.808 138.11C395.142 138.33 392.245 138.88 390.118 139.76C387.992 140.64 386.598 141.997 385.938 143.83C386.232 143.83 386.525 144.197 386.818 144.93C387.185 145.663 387.368 146.433 387.368 147.24C387.368 148.56 386.782 149.623 385.608 150.43C384.435 151.163 382.968 151.53 381.208 151.53C379.155 151.53 377.505 150.98 376.258 149.88C375.012 148.78 374.388 147.203 374.388 145.15C374.388 142.657 375.342 140.383 377.248 138.33C379.228 136.277 381.942 134.663 385.388 133.49C388.835 132.243 392.648 131.62 396.828 131.62C398.368 131.62 400.275 131.73 402.548 131.95C408.562 122.417 414.905 114.643 421.578 108.63C428.325 102.543 434.742 99.5 440.828 99.5C444.348 99.5 447.245 100.013 449.518 101.04L432.248 182H416.408L424.878 142.07C422.165 140.823 419.672 139.907 417.398 139.32C415.125 138.733 412.705 138.33 410.138 138.11C405.958 147.13 402.512 156.37 399.798 165.83C397.158 175.217 395.838 182.733 395.838 188.38C395.838 191.167 396.352 193.22 397.378 194.54ZM432.248 107.31C429.095 108.997 425.795 112.15 422.348 116.77C418.975 121.317 415.675 126.853 412.448 133.38C417.728 134.407 422.202 135.69 425.868 137.23L432.248 107.31ZM464.365 120.95C461.945 120.95 459.892 120.107 458.205 118.42C456.518 116.733 455.675 114.68 455.675 112.26C455.675 109.84 456.518 107.787 458.205 106.1C459.892 104.34 461.945 103.46 464.365 103.46C466.785 103.46 468.838 104.34 470.525 106.1C472.285 107.787 473.165 109.84 473.165 112.26C473.165 114.68 472.285 116.733 470.525 118.42C468.838 120.107 466.785 120.95 464.365 120.95ZM436.975 209.5C433.455 209.5 430.522 208.583 428.175 206.75C425.828 204.917 424.655 202.277 424.655 198.83C424.655 191.717 430.668 186.253 442.695 182.44L454.465 127H470.305L459.415 178.04C462.935 176.867 465.758 175.107 467.885 172.76C470.012 170.413 471.808 166.93 473.275 162.31H477.895C475.915 168.837 473.238 173.64 469.865 176.72C466.492 179.727 462.678 181.78 458.425 182.88L456.775 190.8C455.308 197.913 452.778 202.79 449.185 205.43C445.592 208.143 441.522 209.5 436.975 209.5ZM434.445 200.92C435.692 200.92 436.902 200.077 438.075 198.39C439.248 196.703 440.165 194.283 440.825 191.13L441.485 187.94C434.298 190.58 430.705 193.697 430.705 197.29C430.705 198.243 431.035 199.087 431.695 199.82C432.355 200.553 433.272 200.92 434.445 200.92ZM486.501 182.66C482.321 182.66 478.837 181.23 476.051 178.37C473.264 175.51 471.871 171.037 471.871 164.95C471.871 159.523 472.934 153.84 475.061 147.9C477.261 141.887 480.487 136.827 484.741 132.72C489.067 128.54 494.201 126.45 500.141 126.45C503.147 126.45 505.384 126.963 506.851 127.99C508.317 129.017 509.051 130.373 509.051 132.06V132.83L510.261 127H526.101L518.181 164.4C517.887 165.5 517.741 166.673 517.741 167.92C517.741 169.387 518.071 170.45 518.731 171.11C519.464 171.697 520.637 171.99 522.251 171.99C523.277 171.99 524.084 171.843 524.671 171.55C523.057 175.657 521.517 178.553 520.051 180.24C518.584 181.853 516.457 182.66 513.671 182.66C510.664 182.66 508.207 181.78 506.301 180.02C504.467 178.187 503.331 175.657 502.891 172.43C498.417 179.25 492.954 182.66 486.501 182.66ZM493.651 171.99C495.484 171.99 497.281 171.147 499.041 169.46C500.874 167.7 502.121 165.317 502.781 162.31L508.061 137.45C508.061 136.497 507.694 135.58 506.961 134.7C506.227 133.747 505.091 133.27 503.551 133.27C500.617 133.27 497.977 134.993 495.631 138.44C493.284 141.813 491.451 145.92 490.131 150.76C488.811 155.527 488.151 159.743 488.151 163.41C488.151 167.077 488.664 169.423 489.691 170.45C490.791 171.477 492.111 171.99 493.651 171.99Z" fill="#0D1B5E"/>
</g>
</g>
<defs>
<filter id="filter0_d_248_195" x="0" y="0" width="628" height="275" filterUnits="userSpaceOnUse" color-interpolation-filters="sRGB">
<feFlood flood-opacity="0" result="BackgroundImageFix"/>
<feColorMatrix in="SourceAlpha" type="matrix" values="0 0 0 0 0 0 0 0 0 0 0 0 0 0 0 0 0 0 127 0" result="hardAlpha"/>
<feOffset/>
<feGaussianBlur stdDeviation="2"/>
<feComposite in2="hardAlpha" operator="out"/>
<feColorMatrix type="matrix" values="0 0 0 0 0 0 0 0 0 0 0 0 0 0 0 0 0 0 0.25 0"/>
<feBlend mode="normal" in2="BackgroundImageFix" result="effect1_dropShadow_248_195"/>
<feBlend mode="normal" in="SourceGraphic" in2="effect1_dropShadow_248_195" result="shape"/>
</filter>
<filter id="filter1_d_248_195" x="108.09" y="99.5" width="422.011" height="118" filterUnits="userSpaceOnUse" color-interpolation-filters="sRGB">
<feFlood flood-opacity="0" result="BackgroundImageFix"/>
<feColorMatrix in="SourceAlpha" type="matrix" values="0 0 0 0 0 0 0 0 0 0 0 0 0 0 0 0 0 0 127 0" result="hardAlpha"/>
<feOffset dy="4"/>
<feGaussianBlur stdDeviation="2"/>
<feComposite in2="hardAlpha" operator="out"/>
<feColorMatrix type="matrix" values="0 0 0 0 0 0 0 0 0 0 0 0 0 0 0 0 0 0 0.25 0"/>
<feBlend mode="normal" in2="BackgroundImageFix" result="effect1_dropShadow_248_195"/>
<feBlend mode="normal" in="SourceGraphic" in2="effect1_dropShadow_248_195" result="shape"/>
</filter>
<linearGradient id="paint0_linear_248_195" x1="314" y1="4" x2="314" y2="271" gradientUnits="userSpaceOnUse">
<stop offset="1" stop-color="#7E8BD8"/>
</linearGradient>
</defs>
</svg>
