<svg width="628" height="275" viewBox="0 0 628 275" fill="none" xmlns="http://www.w3.org/2000/svg">
<g filter="url(#filter0_d_248_40)">
<path d="M4 271H624V34C624 17.4315 610.569 4 594 4H34C17.4315 4 4 17.4315 4 34V271Z" fill="url(#paint0_linear_248_40)"/>
<path d="M211.953 172.248C208.113 172.248 204.209 170.552 200.241 167.16L199.473 171H185.649L198.705 109.944L212.913 108.024L201.393 161.88C203.185 163.16 205.009 163.8 206.865 163.8C210.513 163.8 213.713 161.688 216.465 157.464C219.281 153.24 221.457 147.864 222.993 141.336C224.529 134.808 225.297 128.216 225.297 121.56C225.297 115.288 224.049 110.712 221.553 107.832C219.121 104.888 215.697 103.416 211.281 103.416C206.481 103.416 202.161 104.376 198.321 106.296C194.545 108.152 191.569 110.84 189.393 114.36C187.217 117.88 186.129 122.008 186.129 126.744C186.129 129.112 186.353 130.776 186.801 131.736C187.249 132.632 187.473 133.144 187.473 133.272C184.145 133.272 181.585 132.568 179.793 131.16C178.065 129.752 177.201 127.48 177.201 124.344C177.201 119.992 178.833 115.864 182.097 111.96C185.361 108.056 189.713 104.92 195.153 102.552C200.657 100.184 206.577 99 212.913 99C221.681 99 228.145 101.592 232.305 106.776C236.465 111.96 238.545 118.584 238.545 126.648C238.545 133.944 237.297 141.144 234.801 148.248C232.369 155.288 229.105 161.048 225.009 165.528C220.913 170.008 216.561 172.248 211.953 172.248ZM254.009 171.576C249.273 171.576 245.593 170.36 242.969 167.928C240.345 165.432 239.033 161.56 239.033 156.312C239.033 151.896 239.897 147.032 241.625 141.72C243.353 136.408 246.169 131.832 250.073 127.992C253.977 124.088 258.937 122.136 264.953 122.136C271.993 122.136 275.513 125.208 275.513 131.352C275.513 134.936 274.489 138.232 272.441 141.24C270.393 144.248 267.673 146.68 264.281 148.536C260.889 150.328 257.273 151.352 253.433 151.608C253.305 153.528 253.241 154.808 253.241 155.448C253.241 158.584 253.785 160.728 254.873 161.88C255.961 162.968 257.721 163.512 260.153 163.512C263.609 163.512 266.553 162.712 268.985 161.112C271.481 159.512 274.201 157.08 277.145 153.816H280.409C273.305 165.656 264.505 171.576 254.009 171.576ZM254.201 147C256.569 146.872 258.809 146.04 260.921 144.504C263.097 142.968 264.825 141.016 266.105 138.648C267.449 136.28 268.121 133.784 268.121 131.16C268.121 128.536 267.321 127.224 265.721 127.224C263.417 127.224 261.145 129.24 258.905 133.272C256.729 137.304 255.161 141.88 254.201 147ZM288.069 171.576C284.997 171.576 282.405 171 280.293 169.848C278.181 168.632 276.613 167.096 275.589 165.24C274.565 163.32 274.053 161.336 274.053 159.288C274.053 157.176 274.565 155.352 275.589 153.816C276.549 152.216 277.733 151.064 279.141 150.36C281.637 145.88 283.813 141.368 285.669 136.824C287.525 132.216 289.285 127.256 290.949 121.944L305.157 120.024C305.477 128.216 306.021 137.08 306.789 146.616C307.109 150.456 307.269 153.24 307.269 154.968C307.269 156.44 307.141 157.656 306.885 158.616C309.893 156.888 312.197 155.288 313.797 153.816H317.829C313.733 158.552 308.837 162.552 303.141 165.816C301.285 167.8 298.981 169.272 296.229 170.232C293.541 171.128 290.821 171.576 288.069 171.576ZM284.997 163.992C287.365 163.992 289.349 163.288 290.949 161.88C292.549 160.472 293.349 158.2 293.349 155.064C293.349 153.144 293.157 150.456 292.773 147C292.133 139.704 291.717 134.808 291.525 132.312C289.989 137.368 287.397 143.416 283.749 150.456C285.221 151.224 285.957 152.344 285.957 153.816C285.957 155.032 285.541 156.12 284.709 157.08C283.941 158.04 282.949 158.52 281.733 158.52C280.389 158.52 279.525 158.104 279.141 157.272C279.141 159.576 279.589 161.272 280.485 162.36C281.445 163.448 282.949 163.992 284.997 163.992ZM325.301 171.576C321.653 171.576 318.613 170.328 316.181 167.832C313.749 165.336 312.533 161.432 312.533 156.12C312.533 151.384 313.461 146.424 315.317 141.24C317.237 135.992 320.053 131.576 323.765 127.992C327.541 124.344 332.021 122.52 337.205 122.52C339.829 122.52 341.781 122.968 343.061 123.864C344.341 124.76 344.981 125.944 344.981 127.416V128.088L346.037 123H359.861L352.949 155.64C352.693 156.6 352.565 157.624 352.565 158.712C352.565 161.464 353.877 162.84 356.501 162.84C358.293 162.84 359.829 162.008 361.109 160.344C362.453 158.68 363.509 156.504 364.277 153.816H368.309C365.941 160.728 362.997 165.432 359.477 167.928C356.021 170.36 352.533 171.576 349.013 171.576C346.325 171.576 344.149 170.84 342.485 169.368C340.885 167.832 339.925 165.624 339.605 162.744C337.749 165.368 335.669 167.512 333.365 169.176C331.125 170.776 328.437 171.576 325.301 171.576ZM331.541 162.264C333.141 162.264 334.709 161.528 336.245 160.056C337.845 158.52 338.933 156.44 339.509 153.816L344.117 132.12C344.117 131.288 343.797 130.488 343.157 129.72C342.517 128.888 341.525 128.472 340.181 128.472C337.621 128.472 335.317 129.976 333.269 132.984C331.221 135.928 329.621 139.512 328.469 143.736C327.317 147.896 326.741 151.576 326.741 154.776C326.741 157.976 327.189 160.024 328.085 160.92C329.045 161.816 330.197 162.264 331.541 162.264ZM380.345 117.816C378.233 117.816 376.441 117.08 374.969 115.608C373.497 114.136 372.761 112.344 372.761 110.232C372.761 108.12 373.497 106.328 374.969 104.856C376.441 103.32 378.233 102.552 380.345 102.552C382.457 102.552 384.249 103.32 385.721 104.856C387.257 106.328 388.025 108.12 388.025 110.232C388.025 112.344 387.257 114.136 385.721 115.608C384.249 117.08 382.457 117.816 380.345 117.816ZM373.817 171.576C370.745 171.576 368.249 170.616 366.329 168.696C364.473 166.776 363.544 163.896 363.544 160.056C363.544 158.456 363.8 156.376 364.312 153.816L370.841 123H384.665L377.753 155.64C377.497 156.6 377.369 157.624 377.369 158.712C377.369 159.992 377.657 160.92 378.233 161.496C378.873 162.008 379.897 162.264 381.305 162.264C383.161 162.264 384.889 161.496 386.489 159.96C388.089 158.36 389.241 156.312 389.945 153.816H393.977C391.609 160.728 388.569 165.432 384.857 167.928C381.145 170.36 377.465 171.576 373.817 171.576ZM422.93 171.576C419.538 171.576 417.074 170.552 415.538 168.504C414.002 166.456 413.234 163.864 413.234 160.728C413.234 159.384 413.394 157.88 413.714 156.216C414.034 154.488 414.354 152.824 414.674 151.224C415.058 149.624 415.314 148.6 415.442 148.152C415.954 145.912 416.434 143.704 416.882 141.528C417.33 139.352 417.554 137.592 417.554 136.248C417.554 132.984 416.402 131.352 414.098 131.352C412.434 131.352 410.962 132.184 409.682 133.848C408.402 135.448 407.378 137.56 406.61 140.184L400.082 171H386.258L396.434 123H410.258L409.202 127.992C412.402 124.408 416.146 122.616 420.434 122.616C423.698 122.616 426.29 123.512 428.21 125.304C430.13 127.096 431.09 129.816 431.09 133.464C431.09 135.32 430.866 137.4 430.418 139.704C429.97 141.944 429.33 144.696 428.498 147.96C427.986 149.944 427.506 151.896 427.058 153.816C426.674 155.672 426.482 157.144 426.482 158.232C426.482 159.512 426.77 160.504 427.346 161.208C427.922 161.912 428.914 162.264 430.322 162.264C431.858 162.264 432.914 162.072 433.49 161.688C433.106 164.952 431.922 167.416 429.938 169.08C428.018 170.744 425.682 171.576 422.93 171.576Z" fill="#FDF2F2"/>
</g>
<defs>
<filter id="filter0_d_248_40" x="0" y="0" width="628" height="275" filterUnits="userSpaceOnUse" color-interpolation-filters="sRGB">
<feFlood flood-opacity="0" result="BackgroundImageFix"/>
<feColorMatrix in="SourceAlpha" type="matrix" values="0 0 0 0 0 0 0 0 0 0 0 0 0 0 0 0 0 0 127 0" result="hardAlpha"/>
<feOffset/>
<feGaussianBlur stdDeviation="2"/>
<feComposite in2="hardAlpha" operator="out"/>
<feColorMatrix type="matrix" values="0 0 0 0 0 0 0 0 0 0 0 0 0 0 0 0 0 0 0.25 0"/>
<feBlend mode="normal" in2="BackgroundImageFix" result="effect1_dropShadow_248_40"/>
<feBlend mode="normal" in="SourceGraphic" in2="effect1_dropShadow_248_40" result="shape"/>
</filter>
<linearGradient id="paint0_linear_248_40" x1="314" y1="271" x2="314" y2="4" gradientUnits="userSpaceOnUse">
<stop stop-color="#C5CCF5"/>
<stop offset="0.0001" stop-color="#7E8BD8"/>
<stop offset="0.25" stop-color="#96A1E2"/>
<stop offset="0.5" stop-color="#B9C1F0"/>
</linearGradient>
</defs>
</svg>
