<svg width="620" height="267" viewBox="0 0 620 267" fill="none" xmlns="http://www.w3.org/2000/svg">
<path d="M0 30C0 13.4315 13.4315 0 30 0H590C606.569 0 620 13.4315 620 30V267H0V30Z" fill="url(#paint0_linear_278_321)"/>
<g filter="url(#filter0_d_278_321)">
<path d="M192.48 172.43C188.08 172.43 183.607 170.487 179.06 166.6L178.18 171H162.34L177.3 101.04L193.58 98.84L180.38 160.55C182.433 162.017 184.523 162.75 186.65 162.75C190.83 162.75 194.497 160.33 197.65 155.49C200.877 150.65 203.37 144.49 205.13 137.01C206.89 129.53 207.77 121.977 207.77 114.35C207.77 107.163 206.34 101.92 203.48 98.62C200.693 95.2467 196.77 93.56 191.71 93.56C186.21 93.56 181.26 94.66 176.86 96.86C172.533 98.9867 169.123 102.067 166.63 106.1C164.137 110.133 162.89 114.863 162.89 120.29C162.89 123.003 163.147 124.91 163.66 126.01C164.173 127.037 164.43 127.623 164.43 127.77C160.617 127.77 157.683 126.963 155.63 125.35C153.65 123.737 152.66 121.133 152.66 117.54C152.66 112.553 154.53 107.823 158.27 103.35C162.01 98.8767 166.997 95.2833 173.23 92.57C179.537 89.8567 186.32 88.5 193.58 88.5C203.627 88.5 211.033 91.47 215.8 97.41C220.567 103.35 222.95 110.94 222.95 120.18C222.95 128.54 221.52 136.79 218.66 144.93C215.873 152.997 212.133 159.597 207.44 164.73C202.747 169.863 197.76 172.43 192.48 172.43ZM240.669 171.66C235.243 171.66 231.026 170.267 228.019 167.48C225.013 164.62 223.509 160.183 223.509 154.17C223.509 149.11 224.499 143.537 226.479 137.45C228.459 131.363 231.686 126.12 236.159 121.72C240.633 117.247 246.316 115.01 253.209 115.01C261.276 115.01 265.309 118.53 265.309 125.57C265.309 129.677 264.136 133.453 261.789 136.9C259.443 140.347 256.326 143.133 252.439 145.26C248.553 147.313 244.409 148.487 240.009 148.78C239.863 150.98 239.789 152.447 239.789 153.18C239.789 156.773 240.413 159.23 241.659 160.55C242.906 161.797 244.923 162.42 247.709 162.42C251.669 162.42 255.043 161.503 257.829 159.67C260.689 157.837 263.806 155.05 267.179 151.31H270.919C262.779 164.877 252.696 171.66 240.669 171.66ZM240.889 143.5C243.603 143.353 246.169 142.4 248.589 140.64C251.083 138.88 253.063 136.643 254.529 133.93C256.069 131.217 256.839 128.357 256.839 125.35C256.839 122.343 255.923 120.84 254.089 120.84C251.449 120.84 248.846 123.15 246.279 127.77C243.786 132.39 241.989 137.633 240.889 143.5ZM279.696 171.66C276.176 171.66 273.206 171 270.786 169.68C268.366 168.287 266.57 166.527 265.396 164.4C264.223 162.2 263.636 159.927 263.636 157.58C263.636 155.16 264.223 153.07 265.396 151.31C266.496 149.477 267.853 148.157 269.466 147.35C272.326 142.217 274.82 137.047 276.946 131.84C279.073 126.56 281.09 120.877 282.996 114.79L299.276 112.59C299.643 121.977 300.266 132.133 301.146 143.06C301.513 147.46 301.696 150.65 301.696 152.63C301.696 154.317 301.55 155.71 301.256 156.81C304.703 154.83 307.343 152.997 309.176 151.31H313.796C309.103 156.737 303.493 161.32 296.966 165.06C294.84 167.333 292.2 169.02 289.046 170.12C285.966 171.147 282.85 171.66 279.696 171.66ZM276.176 162.97C278.89 162.97 281.163 162.163 282.996 160.55C284.83 158.937 285.746 156.333 285.746 152.74C285.746 150.54 285.526 147.46 285.086 143.5C284.353 135.14 283.876 129.53 283.656 126.67C281.896 132.463 278.926 139.393 274.746 147.46C276.433 148.34 277.276 149.623 277.276 151.31C277.276 152.703 276.8 153.95 275.846 155.05C274.966 156.15 273.83 156.7 272.436 156.7C270.896 156.7 269.906 156.223 269.466 155.27C269.466 157.91 269.98 159.853 271.006 161.1C272.106 162.347 273.83 162.97 276.176 162.97ZM322.358 171.66C318.178 171.66 314.695 170.23 311.908 167.37C309.122 164.51 307.728 160.037 307.728 153.95C307.728 148.523 308.792 142.84 310.918 136.9C313.118 130.887 316.345 125.827 320.598 121.72C324.925 117.54 330.058 115.45 335.998 115.45C339.005 115.45 341.242 115.963 342.708 116.99C344.175 118.017 344.908 119.373 344.908 121.06V121.83L346.118 116H361.958L354.038 153.4C353.745 154.5 353.598 155.673 353.598 156.92C353.598 160.073 355.102 161.65 358.108 161.65C360.162 161.65 361.922 160.697 363.388 158.79C364.928 156.883 366.138 154.39 367.018 151.31H371.638C368.925 159.23 365.552 164.62 361.518 167.48C357.558 170.267 353.562 171.66 349.528 171.66C346.448 171.66 343.955 170.817 342.048 169.13C340.215 167.37 339.115 164.84 338.748 161.54C336.622 164.547 334.238 167.003 331.598 168.91C329.032 170.743 325.952 171.66 322.358 171.66ZM329.508 160.99C331.342 160.99 333.138 160.147 334.898 158.46C336.732 156.7 337.978 154.317 338.638 151.31L343.918 126.45C343.918 125.497 343.552 124.58 342.818 123.7C342.085 122.747 340.948 122.27 339.408 122.27C336.475 122.27 333.835 123.993 331.488 127.44C329.142 130.813 327.308 134.92 325.988 139.76C324.668 144.527 324.008 148.743 324.008 152.41C324.008 156.077 324.522 158.423 325.548 159.45C326.648 160.477 327.968 160.99 329.508 160.99ZM385.429 110.06C383.009 110.06 380.955 109.217 379.269 107.53C377.582 105.843 376.739 103.79 376.739 101.37C376.739 98.95 377.582 96.8967 379.269 95.21C380.955 93.45 383.009 92.57 385.429 92.57C387.849 92.57 389.902 93.45 391.589 95.21C393.349 96.8967 394.229 98.95 394.229 101.37C394.229 103.79 393.349 105.843 391.589 107.53C389.902 109.217 387.849 110.06 385.429 110.06ZM377.949 171.66C374.429 171.66 371.569 170.56 369.369 168.36C367.242 166.16 366.179 162.86 366.179 158.46C366.179 156.627 366.472 154.243 367.059 151.31L374.539 116H390.379L382.459 153.4C382.165 154.5 382.019 155.673 382.019 156.92C382.019 158.387 382.349 159.45 383.009 160.11C383.742 160.697 384.915 160.99 386.529 160.99C388.655 160.99 390.635 160.11 392.469 158.35C394.302 156.517 395.622 154.17 396.429 151.31H401.049C398.335 159.23 394.852 164.62 390.599 167.48C386.345 170.267 382.129 171.66 377.949 171.66ZM434.225 171.66C430.338 171.66 427.515 170.487 425.755 168.14C423.995 165.793 423.115 162.823 423.115 159.23C423.115 157.69 423.298 155.967 423.665 154.06C424.031 152.08 424.398 150.173 424.765 148.34C425.205 146.507 425.498 145.333 425.645 144.82C426.231 142.253 426.781 139.723 427.295 137.23C427.808 134.737 428.065 132.72 428.065 131.18C428.065 127.44 426.745 125.57 424.105 125.57C422.198 125.57 420.511 126.523 419.045 128.43C417.578 130.263 416.405 132.683 415.525 135.69L408.045 171H392.205L403.865 116H419.705L418.495 121.72C422.161 117.613 426.451 115.56 431.365 115.56C435.105 115.56 438.075 116.587 440.275 118.64C442.475 120.693 443.575 123.81 443.575 127.99C443.575 130.117 443.318 132.5 442.805 135.14C442.291 137.707 441.558 140.86 440.605 144.6C440.018 146.873 439.468 149.11 438.955 151.31C438.515 153.437 438.295 155.123 438.295 156.37C438.295 157.837 438.625 158.973 439.285 159.78C439.945 160.587 441.081 160.99 442.695 160.99C444.455 160.99 445.665 160.77 446.325 160.33C445.885 164.07 444.528 166.893 442.255 168.8C440.055 170.707 437.378 171.66 434.225 171.66Z" fill="#0D1B5E"/>
</g>
<defs>
<filter id="filter0_d_278_321" x="148.66" y="88.5" width="301.665" height="91.9302" filterUnits="userSpaceOnUse" color-interpolation-filters="sRGB">
<feFlood flood-opacity="0" result="BackgroundImageFix"/>
<feColorMatrix in="SourceAlpha" type="matrix" values="0 0 0 0 0 0 0 0 0 0 0 0 0 0 0 0 0 0 127 0" result="hardAlpha"/>
<feOffset dy="4"/>
<feGaussianBlur stdDeviation="2"/>
<feComposite in2="hardAlpha" operator="out"/>
<feColorMatrix type="matrix" values="0 0 0 0 0 0 0 0 0 0 0 0 0 0 0 0 0 0 0.25 0"/>
<feBlend mode="normal" in2="BackgroundImageFix" result="effect1_dropShadow_278_321"/>
<feBlend mode="normal" in="SourceGraphic" in2="effect1_dropShadow_278_321" result="shape"/>
</filter>
<linearGradient id="paint0_linear_278_321" x1="310" y1="0" x2="310" y2="267" gradientUnits="userSpaceOnUse">
<stop offset="1" stop-color="#7E8BD8"/>
</linearGradient>
</defs>
</svg>
