<svg width="628" height="275" viewBox="0 0 628 275" fill="none" xmlns="http://www.w3.org/2000/svg">
<g filter="url(#filter0_d_146_434)">
<path d="M4 271H624V34C624 17.4315 610.569 4 594 4H34C17.4315 4 4 17.4315 4 34V271Z" fill="url(#paint0_linear_146_434)"/>
<path d="M160.856 179.632C155.864 179.632 153.368 177.488 153.368 173.2C153.368 171.792 153.56 170.192 153.944 168.4C154.392 166.544 155 164.176 155.768 161.296C156.664 158.288 157.336 155.728 157.784 153.616C158.232 151.504 158.456 149.616 158.456 147.952C158.456 143.6 156.536 141.424 152.696 141.424C151.608 141.424 150.552 141.552 149.528 141.808L141.848 178H128.024L141.944 112.72C137.656 114.512 134.328 117.2 131.96 120.784C129.656 124.368 128.504 128.688 128.504 133.744C128.504 136.112 128.728 137.776 129.176 138.736C129.624 139.632 129.848 140.144 129.848 140.272C126.392 140.272 123.8 139.568 122.072 138.16C120.408 136.688 119.576 134.288 119.576 130.96C119.576 126.864 121.24 122.896 124.568 119.056C127.96 115.152 132.28 112.016 137.528 109.648C142.776 107.216 148.024 106 153.272 106C154.168 106 155.448 106.064 157.112 106.192L150.872 135.568L160.76 122.32C168.632 111.696 172.6 106.416 172.664 106.48H182.744L156.056 137.2L159.416 137.104C163.768 137.104 166.84 138.032 168.632 139.888C170.424 141.68 171.32 144.176 171.32 147.376C171.32 149.232 171.096 151.216 170.648 153.328C170.2 155.376 169.56 157.936 168.728 161.008C168.216 162.992 167.736 164.944 167.288 166.864C166.84 168.784 166.616 170.384 166.616 171.664C166.616 173.136 166.936 174.448 167.576 175.6C168.28 176.752 169.208 177.552 170.36 178C166.456 179.088 163.288 179.632 160.856 179.632ZM188.176 178.576C184.528 178.576 181.488 177.328 179.056 174.832C176.624 172.336 175.408 168.432 175.408 163.12C175.408 158.384 176.336 153.424 178.192 148.24C180.112 142.992 182.928 138.576 186.64 134.992C190.416 131.344 194.896 129.52 200.08 129.52C202.704 129.52 204.656 129.968 205.936 130.864C207.216 131.76 207.856 132.944 207.856 134.416V135.088L208.912 130H222.736L215.824 162.64C215.568 163.6 215.44 164.624 215.44 165.712C215.44 168.464 216.752 169.84 219.376 169.84C221.168 169.84 222.704 169.008 223.984 167.344C225.328 165.68 226.384 163.504 227.152 160.816H231.184C228.816 167.728 225.872 172.432 222.352 174.928C218.896 177.36 215.408 178.576 211.888 178.576C209.2 178.576 207.024 177.84 205.36 176.368C203.76 174.832 202.8 172.624 202.48 169.744C200.624 172.368 198.544 174.512 196.24 176.176C194 177.776 191.312 178.576 188.176 178.576ZM194.416 169.264C196.016 169.264 197.584 168.528 199.12 167.056C200.72 165.52 201.808 163.44 202.384 160.816L206.992 139.12C206.992 138.288 206.672 137.488 206.032 136.72C205.392 135.888 204.4 135.472 203.056 135.472C200.496 135.472 198.192 136.976 196.144 139.984C194.096 142.928 192.496 146.512 191.344 150.736C190.192 154.896 189.616 158.576 189.616 161.776C189.616 164.976 190.064 167.024 190.96 167.92C191.92 168.816 193.072 169.264 194.416 169.264ZM236.692 178.576C233.62 178.576 231.124 177.616 229.204 175.696C227.348 173.776 226.419 170.896 226.419 167.056C226.419 165.456 226.675 163.376 227.188 160.816L237.46 112.72L251.668 110.8L240.628 162.64C240.372 163.6 240.244 164.624 240.244 165.712C240.244 166.992 240.532 167.92 241.108 168.496C241.748 169.008 242.772 169.264 244.18 169.264C246.036 169.264 247.764 168.496 249.364 166.96C250.964 165.36 252.116 163.312 252.82 160.816H256.852C254.484 167.728 251.444 172.432 247.732 174.928C244.02 177.36 240.34 178.576 236.692 178.576ZM288.877 178.576C284.909 178.576 281.901 177.648 279.853 175.792C277.805 173.872 276.781 171.152 276.781 167.632C276.781 166.096 276.973 164.432 277.357 162.64L278.125 158.896C278.381 157.808 278.509 156.624 278.509 155.344C278.509 152.272 277.357 150.736 275.053 150.736C274.029 150.736 272.941 151.024 271.789 151.6C270.701 152.176 269.421 153.072 267.949 154.288L262.957 178H249.133L263.053 112.72L277.261 110.8L270.061 144.592L288.589 130H298.093L278.893 143.344C279.853 143.088 280.909 142.96 282.061 142.96C285.517 142.96 288.141 144.016 289.933 146.128C291.725 148.24 292.621 150.928 292.621 154.192C292.621 155.536 292.493 156.752 292.237 157.84L291.181 162.64C290.861 163.792 290.701 164.816 290.701 165.712C290.701 168.08 291.949 169.264 294.445 169.264C296.365 169.264 297.901 168.592 299.053 167.248C300.205 165.84 301.357 163.696 302.509 160.816H306.541C302.573 172.656 296.685 178.576 288.877 178.576ZM311.973 178.576C308.901 178.576 306.405 177.616 304.485 175.696C302.629 173.776 301.701 170.896 301.701 167.056C301.701 165.456 301.957 163.376 302.469 160.816L308.997 130H322.821L315.909 162.64C315.717 163.6 315.621 164.496 315.621 165.328C315.621 167.952 316.581 169.264 318.501 169.264C320.293 169.264 321.829 168.528 323.109 167.056C324.389 165.52 325.413 163.44 326.181 160.816L332.709 130H346.533L339.621 162.64C339.365 163.6 339.237 164.624 339.237 165.712C339.237 166.992 339.525 167.92 340.101 168.496C340.741 169.008 341.765 169.264 343.173 169.264C344.965 169.264 346.501 168.496 347.781 166.96C349.125 165.424 350.181 163.376 350.949 160.816H354.981C352.613 167.728 349.669 172.432 346.149 174.928C342.693 177.36 339.205 178.576 335.685 178.576C332.933 178.576 330.725 177.808 329.061 176.272C327.461 174.736 326.501 172.464 326.181 169.456C324.005 172.976 321.701 175.376 319.269 176.656C316.901 177.936 314.469 178.576 311.973 178.576ZM360.442 178.576C357.37 178.576 354.874 177.616 352.954 175.696C351.098 173.776 350.169 170.896 350.169 167.056C350.169 165.456 350.425 163.376 350.938 160.816L361.21 112.72L375.418 110.8L364.378 162.64C364.122 163.6 363.994 164.624 363.994 165.712C363.994 166.992 364.282 167.92 364.858 168.496C365.498 169.008 366.522 169.264 367.93 169.264C369.786 169.264 371.514 168.496 373.114 166.96C374.714 165.36 375.866 163.312 376.57 160.816H380.602C378.234 167.728 375.194 172.432 371.482 174.928C367.77 177.36 364.09 178.576 360.442 178.576ZM388.051 178.576C384.403 178.576 381.363 177.328 378.931 174.832C376.499 172.336 375.283 168.432 375.283 163.12C375.283 158.384 376.211 153.424 378.067 148.24C379.987 142.992 382.803 138.576 386.515 134.992C390.291 131.344 394.771 129.52 399.955 129.52C402.579 129.52 404.531 129.968 405.811 130.864C407.091 131.76 407.731 132.944 407.731 134.416V135.088L408.787 130H422.611L415.699 162.64C415.443 163.6 415.315 164.624 415.315 165.712C415.315 168.464 416.627 169.84 419.251 169.84C421.043 169.84 422.579 169.008 423.859 167.344C425.203 165.68 426.259 163.504 427.027 160.816H431.059C428.691 167.728 425.747 172.432 422.227 174.928C418.771 177.36 415.283 178.576 411.763 178.576C409.075 178.576 406.899 177.84 405.235 176.368C403.635 174.832 402.675 172.624 402.355 169.744C400.499 172.368 398.419 174.512 396.115 176.176C393.875 177.776 391.187 178.576 388.051 178.576ZM394.291 169.264C395.891 169.264 397.459 168.528 398.995 167.056C400.595 165.52 401.683 163.44 402.259 160.816L406.867 139.12C406.867 138.288 406.547 137.488 405.907 136.72C405.267 135.888 404.275 135.472 402.931 135.472C400.371 135.472 398.067 136.976 396.019 139.984C393.971 142.928 392.371 146.512 391.219 150.736C390.067 154.896 389.491 158.576 389.491 161.776C389.491 164.976 389.939 167.024 390.835 167.92C391.795 168.816 392.947 169.264 394.291 169.264ZM436.567 178.576C433.495 178.576 430.999 177.616 429.079 175.696C427.223 173.776 426.294 170.896 426.294 167.056C426.294 165.456 426.55 163.376 427.062 160.816L432.823 133.84H429.655L430.423 130H433.591L436.471 116.752L450.679 114.832L447.415 130H453.175L452.406 133.84H446.647L440.503 162.64C440.247 163.6 440.119 164.624 440.119 165.712C440.119 166.992 440.407 167.92 440.983 168.496C441.623 169.008 442.647 169.264 444.055 169.264C445.911 169.264 447.639 168.496 449.239 166.96C450.839 165.36 451.991 163.312 452.695 160.816H456.727C454.359 167.728 451.319 172.432 447.607 174.928C443.895 177.36 440.215 178.576 436.567 178.576ZM466.672 178.384C461.936 178.384 458.192 177.168 455.44 174.736C452.688 172.304 451.312 168.464 451.312 163.216C451.312 158.864 452.208 154.032 454 148.72C455.792 143.408 458.672 138.832 462.64 134.992C466.608 131.088 471.6 129.136 477.616 129.136C485.808 129.136 489.904 134.256 489.904 144.496V144.592C490.096 144.656 490.448 144.688 490.96 144.688C493.072 144.688 495.504 144.144 498.256 143.056C501.008 141.904 503.504 140.528 505.744 138.928L506.608 141.52C504.752 143.504 502.32 145.2 499.312 146.608C496.368 147.952 493.136 148.912 489.616 149.488C489.104 155.312 487.792 160.4 485.68 164.752C483.568 169.104 480.848 172.464 477.52 174.832C474.192 177.2 470.576 178.384 466.672 178.384ZM470.512 169.744C472.048 169.744 473.584 168.88 475.12 167.152C476.656 165.36 478 162.96 479.152 159.952C480.304 156.88 481.136 153.488 481.648 149.776C479.92 149.392 479.056 148.048 479.056 145.744C479.056 143.12 480.048 141.392 482.032 140.56C481.904 138.448 481.584 137.008 481.072 136.24C480.56 135.408 479.664 134.992 478.384 134.992C476.272 134.992 474.224 136.528 472.24 139.6C470.256 142.672 468.656 146.352 467.44 150.64C466.224 154.928 465.616 158.704 465.616 161.968C465.616 165.04 465.968 167.12 466.672 168.208C467.376 169.232 468.656 169.744 470.512 169.744ZM501.372 130H515.196L513.948 135.952C516.124 134.032 518.076 132.56 519.804 131.536C521.596 130.512 523.516 130 525.564 130C527.612 130 529.212 130.704 530.364 132.112C531.58 133.52 532.188 135.216 532.188 137.2C532.188 139.056 531.58 140.688 530.364 142.096C529.148 143.504 527.452 144.208 525.276 144.208C523.868 144.208 522.908 143.888 522.396 143.248C521.948 142.544 521.596 141.552 521.34 140.272C521.148 139.44 520.956 138.832 520.764 138.448C520.572 138.064 520.22 137.872 519.708 137.872C518.364 137.872 517.212 138.16 516.252 138.736C515.356 139.248 514.172 140.176 512.7 141.52L505.02 178H491.196L501.372 130Z" fill="#FDF2F2"/>
</g>
<defs>
<filter id="filter0_d_146_434" x="0" y="0" width="628" height="275" filterUnits="userSpaceOnUse" color-interpolation-filters="sRGB">
<feFlood flood-opacity="0" result="BackgroundImageFix"/>
<feColorMatrix in="SourceAlpha" type="matrix" values="0 0 0 0 0 0 0 0 0 0 0 0 0 0 0 0 0 0 127 0" result="hardAlpha"/>
<feOffset/>
<feGaussianBlur stdDeviation="2"/>
<feComposite in2="hardAlpha" operator="out"/>
<feColorMatrix type="matrix" values="0 0 0 0 0 0 0 0 0 0 0 0 0 0 0 0 0 0 0.25 0"/>
<feBlend mode="normal" in2="BackgroundImageFix" result="effect1_dropShadow_146_434"/>
<feBlend mode="normal" in="SourceGraphic" in2="effect1_dropShadow_146_434" result="shape"/>
</filter>
<linearGradient id="paint0_linear_146_434" x1="314" y1="271" x2="314" y2="4" gradientUnits="userSpaceOnUse">
<stop stop-color="#C5CCF5"/>
<stop offset="0.0001" stop-color="#7E8BD8"/>
<stop offset="0.25" stop-color="#96A1E2"/>
<stop offset="0.5" stop-color="#B9C1F0"/>
</linearGradient>
</defs>
</svg>
