<svg width="620" height="267" viewBox="0 0 620 267" fill="none" xmlns="http://www.w3.org/2000/svg">
<path d="M0 30C0 13.4315 13.4315 0 30 0H590C606.569 0 620 13.4315 620 30V267H0V30Z" fill="url(#paint0_linear_280_322)"/>
<g filter="url(#filter0_d_280_322)">
<path d="M153.856 178.632C148.864 178.632 146.368 176.488 146.368 172.2C146.368 170.792 146.56 169.192 146.944 167.4C147.392 165.544 148 163.176 148.768 160.296C149.664 157.288 150.336 154.728 150.784 152.616C151.232 150.504 151.456 148.616 151.456 146.952C151.456 142.6 149.536 140.424 145.696 140.424C144.608 140.424 143.552 140.552 142.528 140.808L134.848 177H121.024L134.944 111.72C130.656 113.512 127.328 116.2 124.96 119.784C122.656 123.368 121.504 127.688 121.504 132.744C121.504 135.112 121.728 136.776 122.176 137.736C122.624 138.632 122.848 139.144 122.848 139.272C119.392 139.272 116.8 138.568 115.072 137.16C113.408 135.688 112.576 133.288 112.576 129.96C112.576 125.864 114.24 121.896 117.568 118.056C120.96 114.152 125.28 111.016 130.528 108.648C135.776 106.216 141.024 105 146.272 105C147.168 105 148.448 105.064 150.112 105.192L143.872 134.568L153.76 121.32C161.632 110.696 165.6 105.416 165.664 105.48H175.744L149.056 136.2L152.416 136.104C156.768 136.104 159.84 137.032 161.632 138.888C163.424 140.68 164.32 143.176 164.32 146.376C164.32 148.232 164.096 150.216 163.648 152.328C163.2 154.376 162.56 156.936 161.728 160.008C161.216 161.992 160.736 163.944 160.288 165.864C159.84 167.784 159.616 169.384 159.616 170.664C159.616 172.136 159.936 173.448 160.576 174.6C161.28 175.752 162.208 176.552 163.36 177C159.456 178.088 156.288 178.632 153.856 178.632ZM181.176 177.576C177.528 177.576 174.488 176.328 172.056 173.832C169.624 171.336 168.408 167.432 168.408 162.12C168.408 157.384 169.336 152.424 171.192 147.24C173.112 141.992 175.928 137.576 179.64 133.992C183.416 130.344 187.896 128.52 193.08 128.52C195.704 128.52 197.656 128.968 198.936 129.864C200.216 130.76 200.856 131.944 200.856 133.416V134.088L201.912 129H215.736L208.824 161.64C208.568 162.6 208.44 163.624 208.44 164.712C208.44 167.464 209.752 168.84 212.376 168.84C214.168 168.84 215.704 168.008 216.984 166.344C218.328 164.68 219.384 162.504 220.152 159.816H224.184C221.816 166.728 218.872 171.432 215.352 173.928C211.896 176.36 208.408 177.576 204.888 177.576C202.2 177.576 200.024 176.84 198.36 175.368C196.76 173.832 195.8 171.624 195.48 168.744C193.624 171.368 191.544 173.512 189.24 175.176C187 176.776 184.312 177.576 181.176 177.576ZM187.416 168.264C189.016 168.264 190.584 167.528 192.12 166.056C193.72 164.52 194.808 162.44 195.384 159.816L199.992 138.12C199.992 137.288 199.672 136.488 199.032 135.72C198.392 134.888 197.4 134.472 196.056 134.472C193.496 134.472 191.192 135.976 189.144 138.984C187.096 141.928 185.496 145.512 184.344 149.736C183.192 153.896 182.616 157.576 182.616 160.776C182.616 163.976 183.064 166.024 183.96 166.92C184.92 167.816 186.072 168.264 187.416 168.264ZM229.692 177.576C226.62 177.576 224.124 176.616 222.204 174.696C220.348 172.776 219.419 169.896 219.419 166.056C219.419 164.456 219.675 162.376 220.188 159.816L230.46 111.72L244.668 109.8L233.628 161.64C233.372 162.6 233.244 163.624 233.244 164.712C233.244 165.992 233.532 166.92 234.108 167.496C234.748 168.008 235.772 168.264 237.18 168.264C239.036 168.264 240.764 167.496 242.364 165.96C243.964 164.36 245.116 162.312 245.82 159.816H249.852C247.484 166.728 244.444 171.432 240.732 173.928C237.02 176.36 233.34 177.576 229.692 177.576ZM281.877 177.576C277.909 177.576 274.901 176.648 272.853 174.792C270.805 172.872 269.781 170.152 269.781 166.632C269.781 165.096 269.973 163.432 270.357 161.64L271.125 157.896C271.381 156.808 271.509 155.624 271.509 154.344C271.509 151.272 270.357 149.736 268.053 149.736C267.029 149.736 265.941 150.024 264.789 150.6C263.701 151.176 262.421 152.072 260.949 153.288L255.957 177H242.133L256.053 111.72L270.261 109.8L263.061 143.592L281.589 129H291.093L271.893 142.344C272.853 142.088 273.909 141.96 275.061 141.96C278.517 141.96 281.141 143.016 282.933 145.128C284.725 147.24 285.621 149.928 285.621 153.192C285.621 154.536 285.493 155.752 285.237 156.84L284.181 161.64C283.861 162.792 283.701 163.816 283.701 164.712C283.701 167.08 284.949 168.264 287.445 168.264C289.365 168.264 290.901 167.592 292.053 166.248C293.205 164.84 294.357 162.696 295.509 159.816H299.541C295.573 171.656 289.685 177.576 281.877 177.576ZM304.973 177.576C301.901 177.576 299.405 176.616 297.485 174.696C295.629 172.776 294.701 169.896 294.701 166.056C294.701 164.456 294.957 162.376 295.469 159.816L301.997 129H315.821L308.909 161.64C308.717 162.6 308.621 163.496 308.621 164.328C308.621 166.952 309.581 168.264 311.501 168.264C313.293 168.264 314.829 167.528 316.109 166.056C317.389 164.52 318.413 162.44 319.181 159.816L325.709 129H339.533L332.621 161.64C332.365 162.6 332.237 163.624 332.237 164.712C332.237 165.992 332.525 166.92 333.101 167.496C333.741 168.008 334.765 168.264 336.173 168.264C337.965 168.264 339.501 167.496 340.781 165.96C342.125 164.424 343.181 162.376 343.949 159.816H347.981C345.613 166.728 342.669 171.432 339.149 173.928C335.693 176.36 332.205 177.576 328.685 177.576C325.933 177.576 323.725 176.808 322.061 175.272C320.461 173.736 319.501 171.464 319.181 168.456C317.005 171.976 314.701 174.376 312.269 175.656C309.901 176.936 307.469 177.576 304.973 177.576ZM353.442 177.576C350.37 177.576 347.874 176.616 345.954 174.696C344.098 172.776 343.169 169.896 343.169 166.056C343.169 164.456 343.425 162.376 343.938 159.816L354.21 111.72L368.418 109.8L357.378 161.64C357.122 162.6 356.994 163.624 356.994 164.712C356.994 165.992 357.282 166.92 357.858 167.496C358.498 168.008 359.522 168.264 360.93 168.264C362.786 168.264 364.514 167.496 366.114 165.96C367.714 164.36 368.866 162.312 369.57 159.816H373.602C371.234 166.728 368.194 171.432 364.482 173.928C360.77 176.36 357.09 177.576 353.442 177.576ZM381.051 177.576C377.403 177.576 374.363 176.328 371.931 173.832C369.499 171.336 368.283 167.432 368.283 162.12C368.283 157.384 369.211 152.424 371.067 147.24C372.987 141.992 375.803 137.576 379.515 133.992C383.291 130.344 387.771 128.52 392.955 128.52C395.579 128.52 397.531 128.968 398.811 129.864C400.091 130.76 400.731 131.944 400.731 133.416V134.088L401.787 129H415.611L408.699 161.64C408.443 162.6 408.315 163.624 408.315 164.712C408.315 167.464 409.627 168.84 412.251 168.84C414.043 168.84 415.579 168.008 416.859 166.344C418.203 164.68 419.259 162.504 420.027 159.816H424.059C421.691 166.728 418.747 171.432 415.227 173.928C411.771 176.36 408.283 177.576 404.763 177.576C402.075 177.576 399.899 176.84 398.235 175.368C396.635 173.832 395.675 171.624 395.355 168.744C393.499 171.368 391.419 173.512 389.115 175.176C386.875 176.776 384.187 177.576 381.051 177.576ZM387.291 168.264C388.891 168.264 390.459 167.528 391.995 166.056C393.595 164.52 394.683 162.44 395.259 159.816L399.867 138.12C399.867 137.288 399.547 136.488 398.907 135.72C398.267 134.888 397.275 134.472 395.931 134.472C393.371 134.472 391.067 135.976 389.019 138.984C386.971 141.928 385.371 145.512 384.219 149.736C383.067 153.896 382.491 157.576 382.491 160.776C382.491 163.976 382.939 166.024 383.835 166.92C384.795 167.816 385.947 168.264 387.291 168.264ZM429.567 177.576C426.495 177.576 423.999 176.616 422.079 174.696C420.223 172.776 419.294 169.896 419.294 166.056C419.294 164.456 419.55 162.376 420.062 159.816L425.823 132.84H422.655L423.423 129H426.591L429.471 115.752L443.679 113.832L440.415 129H446.175L445.406 132.84H439.647L433.503 161.64C433.247 162.6 433.119 163.624 433.119 164.712C433.119 165.992 433.407 166.92 433.983 167.496C434.623 168.008 435.647 168.264 437.055 168.264C438.911 168.264 440.639 167.496 442.239 165.96C443.839 164.36 444.991 162.312 445.695 159.816H449.727C447.359 166.728 444.319 171.432 440.607 173.928C436.895 176.36 433.215 177.576 429.567 177.576ZM459.672 177.384C454.936 177.384 451.192 176.168 448.44 173.736C445.688 171.304 444.312 167.464 444.312 162.216C444.312 157.864 445.208 153.032 447 147.72C448.792 142.408 451.672 137.832 455.64 133.992C459.608 130.088 464.6 128.136 470.616 128.136C478.808 128.136 482.904 133.256 482.904 143.496V143.592C483.096 143.656 483.448 143.688 483.96 143.688C486.072 143.688 488.504 143.144 491.256 142.056C494.008 140.904 496.504 139.528 498.744 137.928L499.608 140.52C497.752 142.504 495.32 144.2 492.312 145.608C489.368 146.952 486.136 147.912 482.616 148.488C482.104 154.312 480.792 159.4 478.68 163.752C476.568 168.104 473.848 171.464 470.52 173.832C467.192 176.2 463.576 177.384 459.672 177.384ZM463.512 168.744C465.048 168.744 466.584 167.88 468.12 166.152C469.656 164.36 471 161.96 472.152 158.952C473.304 155.88 474.136 152.488 474.648 148.776C472.92 148.392 472.056 147.048 472.056 144.744C472.056 142.12 473.048 140.392 475.032 139.56C474.904 137.448 474.584 136.008 474.072 135.24C473.56 134.408 472.664 133.992 471.384 133.992C469.272 133.992 467.224 135.528 465.24 138.6C463.256 141.672 461.656 145.352 460.44 149.64C459.224 153.928 458.616 157.704 458.616 160.968C458.616 164.04 458.968 166.12 459.672 167.208C460.376 168.232 461.656 168.744 463.512 168.744ZM494.372 129H508.196L506.948 134.952C509.124 133.032 511.076 131.56 512.804 130.536C514.596 129.512 516.516 129 518.564 129C520.612 129 522.212 129.704 523.364 131.112C524.58 132.52 525.188 134.216 525.188 136.2C525.188 138.056 524.58 139.688 523.364 141.096C522.148 142.504 520.452 143.208 518.276 143.208C516.868 143.208 515.908 142.888 515.396 142.248C514.948 141.544 514.596 140.552 514.34 139.272C514.148 138.44 513.956 137.832 513.764 137.448C513.572 137.064 513.22 136.872 512.708 136.872C511.364 136.872 510.212 137.16 509.252 137.736C508.356 138.248 507.172 139.176 505.7 140.52L498.02 177H484.196L494.372 129Z" fill="#0D1B5E"/>
</g>
<defs>
<filter id="filter0_d_280_322" x="108.576" y="105" width="420.612" height="81.6318" filterUnits="userSpaceOnUse" color-interpolation-filters="sRGB">
<feFlood flood-opacity="0" result="BackgroundImageFix"/>
<feColorMatrix in="SourceAlpha" type="matrix" values="0 0 0 0 0 0 0 0 0 0 0 0 0 0 0 0 0 0 127 0" result="hardAlpha"/>
<feOffset dy="4"/>
<feGaussianBlur stdDeviation="2"/>
<feComposite in2="hardAlpha" operator="out"/>
<feColorMatrix type="matrix" values="0 0 0 0 0 0 0 0 0 0 0 0 0 0 0 0 0 0 0.25 0"/>
<feBlend mode="normal" in2="BackgroundImageFix" result="effect1_dropShadow_280_322"/>
<feBlend mode="normal" in="SourceGraphic" in2="effect1_dropShadow_280_322" result="shape"/>
</filter>
<linearGradient id="paint0_linear_280_322" x1="310" y1="0" x2="310" y2="267" gradientUnits="userSpaceOnUse">
<stop offset="1" stop-color="#7E8BD8"/>
</linearGradient>
</defs>
</svg>
