<svg width="628" height="275" viewBox="0 0 628 275" fill="none" xmlns="http://www.w3.org/2000/svg">
<g filter="url(#filter0_d_137_288)">
<path d="M4 271H624V34C624 17.4315 610.569 4 594 4H34C17.4315 4 4 17.4315 4 34V271Z" fill="url(#paint0_linear_137_288)"/>
<path d="M157.08 109.944L171.288 108.024L164.472 140.088C167.544 139.832 170.36 138.488 172.92 136.056C175.544 133.624 177.592 130.616 179.064 127.032C180.536 123.448 181.272 119.928 181.272 116.472C181.272 112.632 180.28 109.496 178.296 107.064C176.312 104.632 173.336 103.416 169.368 103.416C161.56 103.416 155.448 105.464 151.032 109.56C146.68 113.656 144.504 119.384 144.504 126.744C144.504 129.112 144.728 130.776 145.176 131.736C145.624 132.632 145.848 133.144 145.848 133.272C142.392 133.272 139.8 132.568 138.072 131.16C136.408 129.688 135.576 127.288 135.576 123.96C135.576 119.864 137.24 115.896 140.568 112.056C143.96 108.152 148.28 105.016 153.528 102.648C158.776 100.216 164.024 99 169.272 99C174.328 99 178.552 99.864 181.944 101.592C185.336 103.32 187.832 105.624 189.432 108.504C191.096 111.32 191.928 114.456 191.928 117.912C191.928 122.072 190.776 126.136 188.472 130.104C186.232 134.072 183 137.336 178.776 139.896C174.552 142.392 169.688 143.64 164.184 143.64H163.704L157.848 171H144.024L157.08 109.944ZM204.047 171.384C199.311 171.384 195.567 170.168 192.815 167.736C190.063 165.304 188.687 161.464 188.687 156.216C188.687 151.864 189.583 147.032 191.375 141.72C193.167 136.408 196.047 131.832 200.015 127.992C203.983 124.088 208.975 122.136 214.991 122.136C223.183 122.136 227.279 127.256 227.279 137.496V137.592C227.471 137.656 227.823 137.688 228.335 137.688C230.447 137.688 232.879 137.144 235.631 136.056C238.383 134.904 240.879 133.528 243.119 131.928L243.983 134.52C242.127 136.504 239.695 138.2 236.687 139.608C233.743 140.952 230.511 141.912 226.991 142.488C226.479 148.312 225.167 153.4 223.055 157.752C220.943 162.104 218.223 165.464 214.895 167.832C211.567 170.2 207.951 171.384 204.047 171.384ZM207.887 162.744C209.423 162.744 210.959 161.88 212.495 160.152C214.031 158.36 215.375 155.96 216.527 152.952C217.679 149.88 218.511 146.488 219.023 142.776C217.295 142.392 216.431 141.048 216.431 138.744C216.431 136.12 217.423 134.392 219.407 133.56C219.279 131.448 218.959 130.008 218.447 129.24C217.935 128.408 217.039 127.992 215.759 127.992C213.647 127.992 211.599 129.528 209.615 132.6C207.631 135.672 206.031 139.352 204.815 143.64C203.599 147.928 202.991 151.704 202.991 154.968C202.991 158.04 203.343 160.12 204.047 161.208C204.751 162.232 206.031 162.744 207.887 162.744ZM238.747 123H252.571L251.323 128.952C253.499 127.032 255.451 125.56 257.179 124.536C258.971 123.512 260.891 123 262.939 123C264.987 123 266.587 123.704 267.739 125.112C268.955 126.52 269.563 128.216 269.563 130.2C269.563 132.056 268.955 133.688 267.739 135.096C266.523 136.504 264.827 137.208 262.651 137.208C261.243 137.208 260.283 136.888 259.771 136.248C259.323 135.544 258.971 134.552 258.715 133.272C258.523 132.44 258.331 131.832 258.139 131.448C257.947 131.064 257.595 130.872 257.083 130.872C255.739 130.872 254.587 131.16 253.627 131.736C252.731 132.248 251.547 133.176 250.075 134.52L242.395 171H228.571L238.747 123ZM277.817 171.576C274.745 171.576 272.249 170.616 270.329 168.696C268.473 166.776 267.544 163.896 267.544 160.056C267.544 158.456 267.8 156.376 268.312 153.816L274.073 126.84H270.905L271.673 123H274.841L277.721 109.752L291.929 107.832L288.665 123H294.425L293.656 126.84H287.897L281.753 155.64C281.497 156.6 281.369 157.624 281.369 158.712C281.369 159.992 281.657 160.92 282.233 161.496C282.873 162.008 283.897 162.264 285.305 162.264C287.161 162.264 288.889 161.496 290.489 159.96C292.089 158.36 293.241 156.312 293.945 153.816H297.977C295.609 160.728 292.569 165.432 288.857 167.928C285.145 170.36 281.465 171.576 277.817 171.576ZM307.922 171.384C303.186 171.384 299.442 170.168 296.69 167.736C293.938 165.304 292.562 161.464 292.562 156.216C292.562 151.864 293.458 147.032 295.25 141.72C297.042 136.408 299.922 131.832 303.89 127.992C307.858 124.088 312.85 122.136 318.866 122.136C327.058 122.136 331.154 127.256 331.154 137.496V137.592C331.346 137.656 331.698 137.688 332.21 137.688C334.322 137.688 336.754 137.144 339.506 136.056C342.258 134.904 344.754 133.528 346.994 131.928L347.858 134.52C346.002 136.504 343.57 138.2 340.562 139.608C337.618 140.952 334.386 141.912 330.866 142.488C330.354 148.312 329.042 153.4 326.93 157.752C324.818 162.104 322.098 165.464 318.77 167.832C315.442 170.2 311.826 171.384 307.922 171.384ZM311.762 162.744C313.298 162.744 314.834 161.88 316.37 160.152C317.906 158.36 319.25 155.96 320.402 152.952C321.554 149.88 322.386 146.488 322.898 142.776C321.17 142.392 320.306 141.048 320.306 138.744C320.306 136.12 321.298 134.392 323.282 133.56C323.154 131.448 322.834 130.008 322.322 129.24C321.81 128.408 320.914 127.992 319.634 127.992C317.522 127.992 315.474 129.528 313.49 132.6C311.506 135.672 309.906 139.352 308.69 143.64C307.474 147.928 306.866 151.704 306.866 154.968C306.866 158.04 307.218 160.12 307.922 161.208C308.626 162.232 309.906 162.744 311.762 162.744ZM327.454 195C324.446 195 321.822 194.008 319.582 192.024C317.278 190.104 316.126 187.64 316.126 184.632C316.126 181.88 316.83 179.608 318.238 177.816C319.646 176.024 321.47 174.584 323.71 173.496C325.95 172.472 328.926 171.384 332.638 170.232L344.254 115.416C345.534 109.272 347.774 105.016 350.974 102.648C354.238 100.28 357.822 99.096 361.726 99.096C364.734 99.096 367.358 100.088 369.598 102.072C371.902 103.992 373.054 106.456 373.054 109.464C373.054 110.936 372.958 112.248 372.766 113.4H368.254C368.382 111.992 368.446 111.128 368.446 110.808C368.446 109.784 368.094 108.984 367.39 108.408C366.686 107.832 365.822 107.544 364.798 107.544C363.454 107.544 362.142 108.152 360.862 109.368C359.582 110.52 358.654 112.536 358.078 115.416L356.446 123H363.454L362.782 126.84H355.678L344.638 178.68C343.358 184.888 341.15 189.144 338.014 191.448C334.878 193.816 331.358 195 327.454 195ZM325.246 186.456C327.806 186.456 329.63 183.96 330.718 178.968L331.966 173.4C328.574 174.552 325.982 175.864 324.19 177.336C322.334 178.872 321.406 180.856 321.406 183.288C321.406 184.056 321.79 184.76 322.558 185.4C323.326 186.104 324.222 186.456 325.246 186.456ZM375.704 171.384C370.968 171.384 367.224 170.168 364.472 167.736C361.72 165.304 360.343 161.464 360.343 156.216C360.343 151.864 361.239 147.032 363.032 141.72C364.824 136.408 367.704 131.832 371.672 127.992C375.64 124.088 380.632 122.136 386.648 122.136C394.84 122.136 398.936 127.256 398.936 137.496V137.592C399.128 137.656 399.48 137.688 399.992 137.688C402.104 137.688 404.536 137.144 407.288 136.056C410.04 134.904 412.536 133.528 414.776 131.928L415.64 134.52C413.784 136.504 411.352 138.2 408.344 139.608C405.4 140.952 402.168 141.912 398.648 142.488C398.136 148.312 396.824 153.4 394.712 157.752C392.6 162.104 389.88 165.464 386.552 167.832C383.224 170.2 379.608 171.384 375.704 171.384ZM379.544 162.744C381.08 162.744 382.616 161.88 384.152 160.152C385.688 158.36 387.032 155.96 388.184 152.952C389.336 149.88 390.168 146.488 390.68 142.776C388.952 142.392 388.088 141.048 388.088 138.744C388.088 136.12 389.08 134.392 391.064 133.56C390.936 131.448 390.616 130.008 390.104 129.24C389.592 128.408 388.696 127.992 387.416 127.992C385.304 127.992 383.256 129.528 381.272 132.6C379.288 135.672 377.688 139.352 376.472 143.64C375.256 147.928 374.648 151.704 374.648 154.968C374.648 158.04 375 160.12 375.704 161.208C376.408 162.232 377.688 162.744 379.544 162.744ZM413.379 171.576C410.307 171.576 407.811 170.616 405.891 168.696C404.035 166.776 403.107 163.896 403.107 160.056C403.107 158.456 403.363 156.376 403.875 153.816L414.147 105.72L428.355 103.8L417.315 155.64C417.059 156.6 416.931 157.624 416.931 158.712C416.931 159.992 417.219 160.92 417.795 161.496C418.435 162.008 419.459 162.264 420.867 162.264C422.723 162.264 424.451 161.496 426.051 159.96C427.651 158.36 428.803 156.312 429.507 153.816H433.539C431.171 160.728 428.131 165.432 424.419 167.928C420.707 170.36 417.027 171.576 413.379 171.576ZM445.501 117.816C443.389 117.816 441.597 117.08 440.125 115.608C438.653 114.136 437.917 112.344 437.917 110.232C437.917 108.12 438.653 106.328 440.125 104.856C441.597 103.32 443.389 102.552 445.501 102.552C447.613 102.552 449.405 103.32 450.877 104.856C452.413 106.328 453.181 108.12 453.181 110.232C453.181 112.344 452.413 114.136 450.877 115.608C449.405 117.08 447.613 117.816 445.501 117.816ZM438.973 171.576C435.901 171.576 433.405 170.616 431.485 168.696C429.629 166.776 428.701 163.896 428.701 160.056C428.701 158.456 428.957 156.376 429.469 153.816L435.997 123H449.821L442.909 155.64C442.653 156.6 442.525 157.624 442.525 158.712C442.525 159.992 442.813 160.92 443.389 161.496C444.029 162.008 445.053 162.264 446.461 162.264C448.317 162.264 450.045 161.496 451.645 159.96C453.245 158.36 454.397 156.312 455.101 153.816H459.133C456.765 160.728 453.725 165.432 450.013 167.928C446.301 170.36 442.621 171.576 438.973 171.576ZM469.079 171.384C464.343 171.384 460.599 170.168 457.847 167.736C455.095 165.304 453.718 161.464 453.718 156.216C453.718 151.8 454.582 146.968 456.311 141.72C458.039 136.408 460.855 131.832 464.759 127.992C468.663 124.088 473.655 122.136 479.734 122.136C487.287 122.136 491.351 126.456 491.927 135.096C493.335 134.776 494.583 134.008 495.671 132.792C496.759 131.512 497.783 130.072 498.743 128.472H501.815C500.087 131.928 498.551 134.648 497.207 136.632C495.863 138.552 494.103 140.12 491.927 141.336C491.543 147.352 490.295 152.632 488.183 157.176C486.135 161.72 483.447 165.24 480.119 167.736C476.791 170.168 473.111 171.384 469.079 171.384ZM472.919 162.744C475.287 162.744 477.495 160.824 479.543 156.984C481.591 153.144 482.999 148.408 483.767 142.776C482.231 142.2 481.463 140.76 481.463 138.456C481.463 135.96 482.359 134.296 484.151 133.464C484.023 131.416 483.671 130.008 483.095 129.24C482.583 128.408 481.719 127.992 480.503 127.992C478.391 127.992 476.375 129.528 474.455 132.6C472.535 135.608 470.967 139.288 469.751 143.64C468.599 147.928 468.023 151.704 468.023 154.968C468.023 158.04 468.375 160.12 469.079 161.208C469.783 162.232 471.063 162.744 472.919 162.744Z" fill="#FDF2F2"/>
</g>
<defs>
<filter id="filter0_d_137_288" x="0" y="0" width="628" height="275" filterUnits="userSpaceOnUse" color-interpolation-filters="sRGB">
<feFlood flood-opacity="0" result="BackgroundImageFix"/>
<feColorMatrix in="SourceAlpha" type="matrix" values="0 0 0 0 0 0 0 0 0 0 0 0 0 0 0 0 0 0 127 0" result="hardAlpha"/>
<feOffset/>
<feGaussianBlur stdDeviation="2"/>
<feComposite in2="hardAlpha" operator="out"/>
<feColorMatrix type="matrix" values="0 0 0 0 0 0 0 0 0 0 0 0 0 0 0 0 0 0 0.25 0"/>
<feBlend mode="normal" in2="BackgroundImageFix" result="effect1_dropShadow_137_288"/>
<feBlend mode="normal" in="SourceGraphic" in2="effect1_dropShadow_137_288" result="shape"/>
</filter>
<linearGradient id="paint0_linear_137_288" x1="314" y1="271" x2="314" y2="4" gradientUnits="userSpaceOnUse">
<stop stop-color="#C5CCF5"/>
<stop offset="0.0001" stop-color="#7E8BD8"/>
<stop offset="0.25" stop-color="#96A1E2"/>
<stop offset="0.5" stop-color="#B9C1F0"/>
</linearGradient>
</defs>
</svg>
