<svg width="628" height="275" viewBox="0 0 628 275" fill="none" xmlns="http://www.w3.org/2000/svg">
<g filter="url(#filter0_d_248_146)">
<path d="M4 34C4 17.4315 17.4315 4 34 4H594C610.569 4 624 17.4315 624 34V271H4V34Z" fill="url(#paint0_linear_248_146)"/>
<g filter="url(#filter1_d_248_146)">
<path d="M135.3 112.04L151.58 109.84L143.77 146.58C147.29 146.287 150.517 144.747 153.45 141.96C156.457 139.173 158.803 135.727 160.49 131.62C162.177 127.513 163.02 123.48 163.02 119.52C163.02 115.12 161.883 111.527 159.61 108.74C157.337 105.953 153.927 104.56 149.38 104.56C140.433 104.56 133.43 106.907 128.37 111.6C123.383 116.293 120.89 122.857 120.89 131.29C120.89 134.003 121.147 135.91 121.66 137.01C122.173 138.037 122.43 138.623 122.43 138.77C118.47 138.77 115.5 137.963 113.52 136.35C111.613 134.663 110.66 131.913 110.66 128.1C110.66 123.407 112.567 118.86 116.38 114.46C120.267 109.987 125.217 106.393 131.23 103.68C137.243 100.893 143.257 99.5 149.27 99.5C155.063 99.5 159.903 100.49 163.79 102.47C167.677 104.45 170.537 107.09 172.37 110.39C174.277 113.617 175.23 117.21 175.23 121.17C175.23 125.937 173.91 130.593 171.27 135.14C168.703 139.687 165 143.427 160.16 146.36C155.32 149.22 149.747 150.65 143.44 150.65H142.89L136.18 182H120.34L135.3 112.04ZM189.117 182.44C183.69 182.44 179.4 181.047 176.247 178.26C173.093 175.473 171.517 171.073 171.517 165.06C171.517 160.073 172.543 154.537 174.597 148.45C176.65 142.363 179.95 137.12 184.497 132.72C189.043 128.247 194.763 126.01 201.657 126.01C211.043 126.01 215.737 131.877 215.737 143.61V143.72C215.957 143.793 216.36 143.83 216.947 143.83C219.367 143.83 222.153 143.207 225.307 141.96C228.46 140.64 231.32 139.063 233.887 137.23L234.877 140.2C232.75 142.473 229.963 144.417 226.517 146.03C223.143 147.57 219.44 148.67 215.407 149.33C214.82 156.003 213.317 161.833 210.897 166.82C208.477 171.807 205.36 175.657 201.547 178.37C197.733 181.083 193.59 182.44 189.117 182.44ZM193.517 172.54C195.277 172.54 197.037 171.55 198.797 169.57C200.557 167.517 202.097 164.767 203.417 161.32C204.737 157.8 205.69 153.913 206.277 149.66C204.297 149.22 203.307 147.68 203.307 145.04C203.307 142.033 204.443 140.053 206.717 139.1C206.57 136.68 206.203 135.03 205.617 134.15C205.03 133.197 204.003 132.72 202.537 132.72C200.117 132.72 197.77 134.48 195.497 138C193.223 141.52 191.39 145.737 189.997 150.65C188.603 155.563 187.907 159.89 187.907 163.63C187.907 167.15 188.31 169.533 189.117 170.78C189.923 171.953 191.39 172.54 193.517 172.54ZM228.876 127H244.716L243.286 133.82C245.78 131.62 248.016 129.933 249.996 128.76C252.05 127.587 254.25 127 256.596 127C258.943 127 260.776 127.807 262.096 129.42C263.49 131.033 264.186 132.977 264.186 135.25C264.186 137.377 263.49 139.247 262.096 140.86C260.703 142.473 258.76 143.28 256.266 143.28C254.653 143.28 253.553 142.913 252.966 142.18C252.453 141.373 252.05 140.237 251.756 138.77C251.536 137.817 251.316 137.12 251.096 136.68C250.876 136.24 250.473 136.02 249.886 136.02C248.346 136.02 247.026 136.35 245.926 137.01C244.9 137.597 243.543 138.66 241.856 140.2L233.056 182H217.216L228.876 127ZM273.644 182.66C270.124 182.66 267.264 181.56 265.064 179.36C262.937 177.16 261.874 173.86 261.874 169.46C261.874 167.627 262.167 165.243 262.754 162.31L269.354 131.4H265.724L266.604 127H270.234L273.534 111.82L289.814 109.62L286.074 127H292.674L291.794 131.4H285.194L278.154 164.4C277.861 165.5 277.714 166.673 277.714 167.92C277.714 169.387 278.044 170.45 278.704 171.11C279.437 171.697 280.611 171.99 282.224 171.99C284.351 171.99 286.331 171.11 288.164 169.35C289.997 167.517 291.317 165.17 292.124 162.31H296.744C294.031 170.23 290.547 175.62 286.294 178.48C282.041 181.267 277.824 182.66 273.644 182.66ZM308.14 182.44C302.713 182.44 298.423 181.047 295.27 178.26C292.117 175.473 290.54 171.073 290.54 165.06C290.54 160.073 291.567 154.537 293.62 148.45C295.673 142.363 298.973 137.12 303.52 132.72C308.067 128.247 313.787 126.01 320.68 126.01C330.067 126.01 334.76 131.877 334.76 143.61V143.72C334.98 143.793 335.383 143.83 335.97 143.83C338.39 143.83 341.177 143.207 344.33 141.96C347.483 140.64 350.343 139.063 352.91 137.23L353.9 140.2C351.773 142.473 348.987 144.417 345.54 146.03C342.167 147.57 338.463 148.67 334.43 149.33C333.843 156.003 332.34 161.833 329.92 166.82C327.5 171.807 324.383 175.657 320.57 178.37C316.757 181.083 312.613 182.44 308.14 182.44ZM312.54 172.54C314.3 172.54 316.06 171.55 317.82 169.57C319.58 167.517 321.12 164.767 322.44 161.32C323.76 157.8 324.713 153.913 325.3 149.66C323.32 149.22 322.33 147.68 322.33 145.04C322.33 142.033 323.467 140.053 325.74 139.1C325.593 136.68 325.227 135.03 324.64 134.15C324.053 133.197 323.027 132.72 321.56 132.72C319.14 132.72 316.793 134.48 314.52 138C312.247 141.52 310.413 145.737 309.02 150.65C307.627 155.563 306.93 159.89 306.93 163.63C306.93 167.15 307.333 169.533 308.14 170.78C308.947 171.953 310.413 172.54 312.54 172.54ZM330.52 209.5C327.073 209.5 324.067 208.363 321.5 206.09C318.86 203.89 317.54 201.067 317.54 197.62C317.54 194.467 318.347 191.863 319.96 189.81C321.573 187.757 323.663 186.107 326.23 184.86C328.797 183.687 332.207 182.44 336.46 181.12L349.77 118.31C351.237 111.27 353.803 106.393 357.47 103.68C361.21 100.967 365.317 99.61 369.79 99.61C373.237 99.61 376.243 100.747 378.81 103.02C381.45 105.22 382.77 108.043 382.77 111.49C382.77 113.177 382.66 114.68 382.44 116H377.27C377.417 114.387 377.49 113.397 377.49 113.03C377.49 111.857 377.087 110.94 376.28 110.28C375.473 109.62 374.483 109.29 373.31 109.29C371.77 109.29 370.267 109.987 368.8 111.38C367.333 112.7 366.27 115.01 365.61 118.31L363.74 127H371.77L371 131.4H362.86L350.21 190.8C348.743 197.913 346.213 202.79 342.62 205.43C339.027 208.143 334.993 209.5 330.52 209.5ZM327.99 199.71C330.923 199.71 333.013 196.85 334.26 191.13L335.69 184.75C331.803 186.07 328.833 187.573 326.78 189.26C324.653 191.02 323.59 193.293 323.59 196.08C323.59 196.96 324.03 197.767 324.91 198.5C325.79 199.307 326.817 199.71 327.99 199.71ZM385.806 182.44C380.379 182.44 376.089 181.047 372.936 178.26C369.783 175.473 368.206 171.073 368.206 165.06C368.206 160.073 369.233 154.537 371.286 148.45C373.339 142.363 376.639 137.12 381.186 132.72C385.733 128.247 391.453 126.01 398.346 126.01C407.733 126.01 412.426 131.877 412.426 143.61V143.72C412.646 143.793 413.049 143.83 413.636 143.83C416.056 143.83 418.843 143.207 421.996 141.96C425.149 140.64 428.009 139.063 430.576 137.23L431.566 140.2C429.439 142.473 426.653 144.417 423.206 146.03C419.833 147.57 416.129 148.67 412.096 149.33C411.509 156.003 410.006 161.833 407.586 166.82C405.166 171.807 402.049 175.657 398.236 178.37C394.423 181.083 390.279 182.44 385.806 182.44ZM390.206 172.54C391.966 172.54 393.726 171.55 395.486 169.57C397.246 167.517 398.786 164.767 400.106 161.32C401.426 157.8 402.379 153.913 402.966 149.66C400.986 149.22 399.996 147.68 399.996 145.04C399.996 142.033 401.133 140.053 403.406 139.1C403.259 136.68 402.893 135.03 402.306 134.15C401.719 133.197 400.693 132.72 399.226 132.72C396.806 132.72 394.459 134.48 392.186 138C389.913 141.52 388.079 145.737 386.686 150.65C385.293 155.563 384.596 159.89 384.596 163.63C384.596 167.15 384.999 169.533 385.806 170.78C386.613 171.953 388.079 172.54 390.206 172.54ZM428.976 182.66C425.456 182.66 422.596 181.56 420.396 179.36C418.269 177.16 417.206 173.86 417.206 169.46C417.206 167.627 417.499 165.243 418.086 162.31L429.856 107.2L446.136 105L433.486 164.4C433.193 165.5 433.046 166.673 433.046 167.92C433.046 169.387 433.376 170.45 434.036 171.11C434.769 171.697 435.943 171.99 437.556 171.99C439.683 171.99 441.663 171.11 443.496 169.35C445.329 167.517 446.649 165.17 447.456 162.31H452.076C449.363 170.23 445.879 175.62 441.626 178.48C437.373 181.267 433.156 182.66 428.976 182.66ZM465.782 121.06C463.362 121.06 461.309 120.217 459.622 118.53C457.935 116.843 457.092 114.79 457.092 112.37C457.092 109.95 457.935 107.897 459.622 106.21C461.309 104.45 463.362 103.57 465.782 103.57C468.202 103.57 470.255 104.45 471.942 106.21C473.702 107.897 474.582 109.95 474.582 112.37C474.582 114.79 473.702 116.843 471.942 118.53C470.255 120.217 468.202 121.06 465.782 121.06ZM458.302 182.66C454.782 182.66 451.922 181.56 449.722 179.36C447.595 177.16 446.532 173.86 446.532 169.46C446.532 167.627 446.825 165.243 447.412 162.31L454.892 127H470.732L462.812 164.4C462.519 165.5 462.372 166.673 462.372 167.92C462.372 169.387 462.702 170.45 463.362 171.11C464.095 171.697 465.269 171.99 466.882 171.99C469.009 171.99 470.989 171.11 472.822 169.35C474.655 167.517 475.975 165.17 476.782 162.31H481.402C478.689 170.23 475.205 175.62 470.952 178.48C466.699 181.267 462.482 182.66 458.302 182.66ZM492.798 182.44C487.372 182.44 483.082 181.047 479.928 178.26C476.775 175.473 475.198 171.073 475.198 165.06C475.198 160 476.188 154.463 478.168 148.45C480.148 142.363 483.375 137.12 487.848 132.72C492.322 128.247 498.042 126.01 505.008 126.01C513.662 126.01 518.318 130.96 518.978 140.86C520.592 140.493 522.022 139.613 523.268 138.22C524.515 136.753 525.688 135.103 526.788 133.27H530.308C528.328 137.23 526.568 140.347 525.028 142.62C523.488 144.82 521.472 146.617 518.978 148.01C518.538 154.903 517.108 160.953 514.688 166.16C512.342 171.367 509.262 175.4 505.448 178.26C501.635 181.047 497.418 182.44 492.798 182.44ZM497.198 172.54C499.912 172.54 502.442 170.34 504.788 165.94C507.135 161.54 508.748 156.113 509.628 149.66C507.868 149 506.988 147.35 506.988 144.71C506.988 141.85 508.015 139.943 510.068 138.99C509.922 136.643 509.518 135.03 508.858 134.15C508.272 133.197 507.282 132.72 505.888 132.72C503.468 132.72 501.158 134.48 498.958 138C496.758 141.447 494.962 145.663 493.568 150.65C492.248 155.563 491.588 159.89 491.588 163.63C491.588 167.15 491.992 169.533 492.798 170.78C493.605 171.953 495.072 172.54 497.198 172.54Z" fill="#0D1B5E"/>
</g>
</g>
<defs>
<filter id="filter0_d_248_146" x="0" y="0" width="628" height="275" filterUnits="userSpaceOnUse" color-interpolation-filters="sRGB">
<feFlood flood-opacity="0" result="BackgroundImageFix"/>
<feColorMatrix in="SourceAlpha" type="matrix" values="0 0 0 0 0 0 0 0 0 0 0 0 0 0 0 0 0 0 127 0" result="hardAlpha"/>
<feOffset/>
<feGaussianBlur stdDeviation="2"/>
<feComposite in2="hardAlpha" operator="out"/>
<feColorMatrix type="matrix" values="0 0 0 0 0 0 0 0 0 0 0 0 0 0 0 0 0 0 0.25 0"/>
<feBlend mode="normal" in2="BackgroundImageFix" result="effect1_dropShadow_248_146"/>
<feBlend mode="normal" in="SourceGraphic" in2="effect1_dropShadow_248_146" result="shape"/>
</filter>
<filter id="filter1_d_248_146" x="106.66" y="99.5" width="427.648" height="118" filterUnits="userSpaceOnUse" color-interpolation-filters="sRGB">
<feFlood flood-opacity="0" result="BackgroundImageFix"/>
<feColorMatrix in="SourceAlpha" type="matrix" values="0 0 0 0 0 0 0 0 0 0 0 0 0 0 0 0 0 0 127 0" result="hardAlpha"/>
<feOffset dy="4"/>
<feGaussianBlur stdDeviation="2"/>
<feComposite in2="hardAlpha" operator="out"/>
<feColorMatrix type="matrix" values="0 0 0 0 0 0 0 0 0 0 0 0 0 0 0 0 0 0 0.25 0"/>
<feBlend mode="normal" in2="BackgroundImageFix" result="effect1_dropShadow_248_146"/>
<feBlend mode="normal" in="SourceGraphic" in2="effect1_dropShadow_248_146" result="shape"/>
</filter>
<linearGradient id="paint0_linear_248_146" x1="314" y1="4" x2="314" y2="271" gradientUnits="userSpaceOnUse">
<stop offset="1" stop-color="#7E8BD8"/>
</linearGradient>
</defs>
</svg>
