<svg width="192" height="133" viewBox="0 0 192 133" fill="none" xmlns="http://www.w3.org/2000/svg">
<g filter="url(#filter0_d_125_43)">
<rect x="20.5" y="25.5" width="151" height="84.3551" rx="8.90476" fill="white" stroke="#6B7FC4"/>
<path d="M60.0553 48.022V61.814C60.0553 62.7526 60.2259 63.3926 60.5673 63.734C60.9299 64.0753 61.5273 64.246 62.3593 64.246V64.918C61.9326 64.8966 61.3033 64.8753 60.4713 64.854C59.6606 64.8113 58.8179 64.79 57.9433 64.79C56.8553 64.79 55.7993 64.8113 54.7753 64.854C53.7726 64.8753 52.9939 64.8966 52.4393 64.918V64.246C53.3993 64.246 54.1353 64.0753 54.6473 63.734C55.1806 63.3713 55.4473 62.6673 55.4473 61.622V53.814C55.4473 52.79 55.3619 52.0326 55.1913 51.542C55.0206 51.0513 54.7006 50.7313 54.2313 50.582C53.7619 50.4326 53.1219 50.358 52.3113 50.358V49.654C54.1459 49.6113 55.6606 49.4726 56.8553 49.238C58.0713 49.0033 59.1379 48.598 60.0553 48.022ZM73.0413 45.526V53.078H80.4653V54.038H73.0413V61.558H71.8893V54.038H64.4333V53.078H71.8893V45.526H73.0413ZM101.465 50.738V51.138C101.172 51.258 100.872 51.498 100.565 51.858C100.258 52.2046 99.9183 52.738 99.545 53.458L95.765 60.938H94.825L90.145 52.278C89.905 51.8246 89.685 51.5246 89.485 51.378C89.2983 51.2313 89.1317 51.158 88.985 51.158V50.738C89.345 50.778 89.7117 50.8046 90.085 50.818C90.4717 50.8313 90.8917 50.838 91.345 50.838C91.9317 50.838 92.565 50.8313 93.245 50.818C93.925 50.7913 94.545 50.7646 95.105 50.738V51.158C94.7717 51.158 94.4717 51.1846 94.205 51.238C93.9383 51.2913 93.7517 51.3913 93.645 51.538C93.5383 51.6713 93.565 51.8913 93.725 52.198L96.885 58.278L96.265 59.078L98.325 54.938C98.8183 53.978 99.0783 53.2246 99.105 52.678C99.145 52.1313 99.0117 51.7446 98.705 51.518C98.4117 51.278 97.9917 51.1513 97.445 51.138V50.738C97.8983 50.7513 98.325 50.7646 98.725 50.778C99.125 50.7913 99.5317 50.798 99.945 50.798C100.238 50.798 100.512 50.7913 100.765 50.778C101.032 50.7646 101.265 50.7513 101.465 50.738ZM97.185 57.778V62.798C97.185 63.278 97.2183 63.638 97.285 63.878C97.365 64.118 97.5117 64.278 97.725 64.358C97.9383 64.438 98.2583 64.4913 98.685 64.518V64.918C98.325 64.8913 97.8583 64.878 97.285 64.878C96.725 64.8646 96.165 64.858 95.605 64.858C94.9783 64.858 94.385 64.8646 93.825 64.878C93.265 64.878 92.825 64.8913 92.505 64.918V64.518C92.9317 64.4913 93.2517 64.438 93.465 64.358C93.6783 64.278 93.8183 64.118 93.885 63.878C93.965 63.638 94.005 63.278 94.005 62.798V58.698L95.745 59.938L97.185 57.778ZM105.605 54.298C106.778 54.298 107.698 54.6446 108.365 55.338C109.032 56.0313 109.365 57.1646 109.365 58.738H102.785L102.745 58.358H106.845C106.858 57.7046 106.818 57.1046 106.725 56.558C106.632 55.998 106.485 55.5513 106.285 55.218C106.085 54.8846 105.818 54.718 105.485 54.718C105.018 54.718 104.618 55.0113 104.285 55.598C103.965 56.1846 103.772 57.158 103.705 58.518L103.765 58.638C103.752 58.798 103.738 58.9646 103.725 59.138C103.725 59.3113 103.725 59.4913 103.725 59.678C103.725 60.598 103.852 61.3446 104.105 61.918C104.372 62.4913 104.705 62.9113 105.105 63.178C105.505 63.4313 105.912 63.558 106.325 63.558C106.605 63.558 106.892 63.518 107.185 63.438C107.492 63.3446 107.798 63.1846 108.105 62.958C108.412 62.718 108.698 62.3846 108.965 61.958L109.325 62.078C109.165 62.5846 108.912 63.078 108.565 63.558C108.218 64.038 107.778 64.4313 107.245 64.738C106.712 65.0446 106.072 65.198 105.325 65.198C104.418 65.198 103.618 65.0046 102.925 64.618C102.232 64.2313 101.685 63.6446 101.285 62.858C100.898 62.0713 100.705 61.0713 100.705 59.858C100.705 58.618 100.912 57.5846 101.325 56.758C101.752 55.9313 102.332 55.318 103.065 54.918C103.812 54.5046 104.658 54.298 105.605 54.298ZM113.283 65.058C112.683 65.058 112.183 64.9446 111.783 64.718C111.383 64.4913 111.09 64.1913 110.903 63.818C110.716 63.4313 110.623 63.0113 110.623 62.558C110.623 61.9846 110.75 61.518 111.003 61.158C111.27 60.798 111.61 60.5046 112.023 60.278C112.436 60.0513 112.87 59.8646 113.323 59.718C113.79 59.5713 114.23 59.4313 114.643 59.298C115.07 59.1513 115.41 58.9846 115.663 58.798C115.93 58.598 116.063 58.3446 116.063 58.038V56.478C116.063 56.1313 116.003 55.8246 115.883 55.558C115.776 55.278 115.603 55.0646 115.363 54.918C115.136 54.7713 114.836 54.698 114.463 54.698C114.196 54.698 113.93 54.738 113.663 54.818C113.396 54.8846 113.176 55.0046 113.003 55.178C113.376 55.3113 113.663 55.518 113.863 55.798C114.076 56.0646 114.183 56.3713 114.183 56.718C114.183 57.1713 114.023 57.5313 113.703 57.798C113.396 58.0646 113.03 58.198 112.603 58.198C112.123 58.198 111.756 58.0513 111.503 57.758C111.263 57.4513 111.143 57.0846 111.143 56.658C111.143 56.2713 111.236 55.9513 111.423 55.698C111.623 55.4446 111.896 55.2046 112.243 54.978C112.616 54.7646 113.063 54.598 113.583 54.478C114.116 54.358 114.69 54.298 115.303 54.298C115.916 54.298 116.47 54.3646 116.963 54.498C117.456 54.618 117.87 54.8446 118.203 55.178C118.51 55.4846 118.71 55.8646 118.803 56.318C118.896 56.758 118.943 57.318 118.943 57.998V63.438C118.943 63.7713 118.976 64.0046 119.043 64.138C119.11 64.258 119.223 64.318 119.383 64.318C119.503 64.318 119.616 64.2846 119.723 64.218C119.843 64.1513 119.97 64.0713 120.103 63.978L120.303 64.318C120.023 64.558 119.696 64.7446 119.323 64.878C118.963 64.998 118.556 65.058 118.103 65.058C117.61 65.058 117.216 64.9913 116.923 64.858C116.63 64.7113 116.416 64.518 116.283 64.278C116.163 64.038 116.103 63.758 116.103 63.438C115.783 63.9446 115.396 64.3446 114.943 64.638C114.49 64.918 113.936 65.058 113.283 65.058ZM114.703 63.778C114.97 63.778 115.21 63.718 115.423 63.598C115.65 63.4646 115.863 63.2513 116.063 62.958V58.858C115.943 59.058 115.776 59.238 115.563 59.398C115.35 59.558 115.123 59.7246 114.883 59.898C114.643 60.058 114.41 60.238 114.183 60.438C113.97 60.638 113.796 60.8846 113.663 61.178C113.53 61.4713 113.463 61.8246 113.463 62.238C113.463 62.758 113.576 63.1446 113.803 63.398C114.03 63.6513 114.33 63.778 114.703 63.778ZM127.755 54.298C128.181 54.298 128.528 54.3913 128.795 54.578C129.061 54.7513 129.255 54.978 129.375 55.258C129.508 55.538 129.575 55.8313 129.575 56.138C129.575 56.6313 129.428 57.038 129.135 57.358C128.855 57.6646 128.481 57.818 128.015 57.818C127.548 57.818 127.181 57.7046 126.915 57.478C126.661 57.238 126.535 56.9246 126.535 56.538C126.535 56.1646 126.615 55.858 126.775 55.618C126.948 55.3646 127.161 55.1513 127.415 54.978C127.228 54.9246 127.041 54.9313 126.855 54.998C126.601 55.038 126.361 55.1446 126.135 55.318C125.908 55.478 125.715 55.6846 125.555 55.938C125.395 56.178 125.268 56.4446 125.175 56.738C125.081 57.018 125.035 57.2913 125.035 57.558V62.858C125.035 63.498 125.188 63.9313 125.495 64.158C125.815 64.3846 126.288 64.498 126.915 64.498V64.918C126.608 64.9046 126.161 64.8913 125.575 64.878C124.988 64.8513 124.375 64.838 123.735 64.838C123.201 64.838 122.661 64.8513 122.115 64.878C121.568 64.8913 121.155 64.9046 120.875 64.918V64.498C121.341 64.498 121.668 64.398 121.855 64.198C122.055 63.998 122.155 63.618 122.155 63.058V56.758C122.155 56.158 122.061 55.718 121.875 55.438C121.701 55.1446 121.368 54.998 120.875 54.998V54.578C121.301 54.618 121.715 54.638 122.115 54.638C122.675 54.638 123.195 54.618 123.675 54.578C124.168 54.5246 124.621 54.4513 125.035 54.358V56.218C125.195 55.858 125.408 55.5313 125.675 55.238C125.941 54.9446 126.248 54.718 126.595 54.558C126.941 54.3846 127.328 54.298 127.755 54.298ZM134.17 54.298C134.73 54.298 135.217 54.3713 135.63 54.518C136.057 54.6513 136.364 54.7846 136.55 54.918C137.004 55.2246 137.284 55.0246 137.39 54.318H137.81C137.784 54.6913 137.764 55.1513 137.75 55.698C137.737 56.2313 137.73 56.9446 137.73 57.838H137.31C137.244 57.3446 137.117 56.858 136.93 56.378C136.744 55.898 136.47 55.5046 136.11 55.198C135.764 54.8913 135.31 54.738 134.75 54.738C134.364 54.738 134.037 54.8513 133.77 55.078C133.504 55.2913 133.37 55.6046 133.37 56.018C133.37 56.418 133.49 56.7713 133.73 57.078C133.97 57.3713 134.277 57.658 134.65 57.938C135.037 58.2046 135.437 58.4913 135.85 58.798C136.29 59.1313 136.69 59.4646 137.05 59.798C137.41 60.118 137.697 60.4713 137.91 60.858C138.124 61.2446 138.23 61.7046 138.23 62.238C138.23 62.838 138.057 63.3646 137.71 63.818C137.364 64.258 136.904 64.598 136.33 64.838C135.77 65.078 135.144 65.198 134.45 65.198C134.05 65.198 133.69 65.158 133.37 65.078C133.064 64.998 132.797 64.898 132.57 64.778C132.397 64.698 132.23 64.6246 132.07 64.558C131.924 64.478 131.784 64.4113 131.65 64.358C131.517 64.318 131.397 64.3646 131.29 64.498C131.197 64.6313 131.124 64.818 131.07 65.058H130.65C130.677 64.6313 130.697 64.1113 130.71 63.498C130.724 62.8846 130.73 62.0713 130.73 61.058H131.15C131.23 61.778 131.377 62.418 131.59 62.978C131.804 63.5246 132.09 63.958 132.45 64.278C132.824 64.5846 133.29 64.738 133.85 64.738C134.077 64.738 134.297 64.6913 134.51 64.598C134.724 64.5046 134.897 64.3513 135.03 64.138C135.177 63.9246 135.25 63.6513 135.25 63.318C135.25 62.7313 135.057 62.2446 134.67 61.858C134.297 61.4713 133.817 61.0513 133.23 60.598C132.804 60.2513 132.397 59.9113 132.01 59.578C131.637 59.2313 131.33 58.858 131.09 58.458C130.85 58.0446 130.73 57.578 130.73 57.058C130.73 56.458 130.89 55.9513 131.21 55.538C131.53 55.1246 131.95 54.818 132.47 54.618C133.004 54.4046 133.57 54.298 134.17 54.298ZM60.0855 77.758V78.158C59.6321 78.1713 59.2855 78.2246 59.0455 78.318C58.8188 78.398 58.6655 78.558 58.5855 78.798C58.5055 79.0246 58.4655 79.3846 58.4655 79.878V90.038C58.4655 90.4513 58.4921 90.758 58.5455 90.958C58.6121 91.158 58.7321 91.2913 58.9055 91.358C59.0921 91.4246 59.3655 91.458 59.7255 91.458H60.7055C61.1588 91.458 61.5855 91.3513 61.9855 91.138C62.3855 90.9246 62.7455 90.6246 63.0655 90.238C63.3855 89.838 63.6521 89.3646 63.8655 88.818C64.0788 88.2713 64.2388 87.6646 64.3455 86.998H64.8055C64.7655 87.4513 64.7455 88.038 64.7455 88.758C64.7455 89.0646 64.7521 89.5113 64.7655 90.098C64.7788 90.6846 64.8188 91.2913 64.8855 91.918C64.2055 91.8913 63.4388 91.878 62.5855 91.878C61.7321 91.8646 60.9721 91.858 60.3055 91.858C59.9721 91.858 59.5455 91.858 59.0255 91.858C58.5055 91.858 57.9455 91.8646 57.3455 91.878C56.7455 91.878 56.1388 91.8846 55.5255 91.898C54.9121 91.898 54.3321 91.9046 53.7855 91.918V91.518C54.2121 91.4913 54.5321 91.438 54.7455 91.358C54.9588 91.278 55.0988 91.118 55.1655 90.878C55.2455 90.638 55.2855 90.278 55.2855 89.798V79.878C55.2855 79.3846 55.2455 79.0246 55.1655 78.798C55.0988 78.558 54.9521 78.398 54.7255 78.318C54.5121 78.2246 54.1988 78.1713 53.7855 78.158V77.758C54.1188 77.7713 54.5655 77.7846 55.1255 77.798C55.6988 77.8113 56.3055 77.818 56.9455 77.818C57.5321 77.818 58.1055 77.8113 58.6655 77.798C59.2388 77.7846 59.7121 77.7713 60.0855 77.758ZM70.972 81.298C72.1454 81.298 73.0654 81.6446 73.732 82.338C74.3987 83.0313 74.732 84.1646 74.732 85.738H68.152L68.112 85.358H72.212C72.2254 84.7046 72.1854 84.1046 72.092 83.558C71.9987 82.998 71.852 82.5513 71.652 82.218C71.452 81.8846 71.1854 81.718 70.852 81.718C70.3854 81.718 69.9854 82.0113 69.652 82.598C69.332 83.1846 69.1387 84.158 69.072 85.518L69.132 85.638C69.1187 85.798 69.1054 85.9646 69.092 86.138C69.092 86.3113 69.092 86.4913 69.092 86.678C69.092 87.598 69.2187 88.3446 69.472 88.918C69.7387 89.4913 70.072 89.9113 70.472 90.178C70.872 90.4313 71.2787 90.558 71.692 90.558C71.972 90.558 72.2587 90.518 72.552 90.438C72.8587 90.3446 73.1654 90.1846 73.472 89.958C73.7787 89.718 74.0654 89.3846 74.332 88.958L74.692 89.078C74.532 89.5846 74.2787 90.078 73.932 90.558C73.5854 91.038 73.1454 91.4313 72.612 91.738C72.0787 92.0446 71.4387 92.198 70.692 92.198C69.7854 92.198 68.9854 92.0046 68.292 91.618C67.5987 91.2313 67.052 90.6446 66.652 89.858C66.2654 89.0713 66.072 88.0713 66.072 86.858C66.072 85.618 66.2787 84.5846 66.692 83.758C67.1187 82.9313 67.6987 82.318 68.432 81.918C69.1787 81.5046 70.0254 81.298 70.972 81.298ZM78.6502 92.058C78.0502 92.058 77.5502 91.9446 77.1502 91.718C76.7502 91.4913 76.4568 91.1913 76.2702 90.818C76.0835 90.4313 75.9902 90.0113 75.9902 89.558C75.9902 88.9846 76.1168 88.518 76.3702 88.158C76.6368 87.798 76.9768 87.5046 77.3902 87.278C77.8035 87.0513 78.2368 86.8646 78.6902 86.718C79.1568 86.5713 79.5968 86.4313 80.0102 86.298C80.4368 86.1513 80.7768 85.9846 81.0302 85.798C81.2968 85.598 81.4302 85.3446 81.4302 85.038V83.478C81.4302 83.1313 81.3702 82.8246 81.2502 82.558C81.1435 82.278 80.9702 82.0646 80.7302 81.918C80.5035 81.7713 80.2035 81.698 79.8302 81.698C79.5635 81.698 79.2968 81.738 79.0302 81.818C78.7635 81.8846 78.5435 82.0046 78.3702 82.178C78.7435 82.3113 79.0302 82.518 79.2302 82.798C79.4435 83.0646 79.5502 83.3713 79.5502 83.718C79.5502 84.1713 79.3902 84.5313 79.0702 84.798C78.7635 85.0646 78.3968 85.198 77.9702 85.198C77.4902 85.198 77.1235 85.0513 76.8702 84.758C76.6302 84.4513 76.5102 84.0846 76.5102 83.658C76.5102 83.2713 76.6035 82.9513 76.7902 82.698C76.9902 82.4446 77.2635 82.2046 77.6102 81.978C77.9835 81.7646 78.4302 81.598 78.9502 81.478C79.4835 81.358 80.0568 81.298 80.6702 81.298C81.2835 81.298 81.8368 81.3646 82.3302 81.498C82.8235 81.618 83.2368 81.8446 83.5702 82.178C83.8768 82.4846 84.0768 82.8646 84.1702 83.318C84.2635 83.758 84.3102 84.318 84.3102 84.998V90.438C84.3102 90.7713 84.3435 91.0046 84.4102 91.138C84.4768 91.258 84.5902 91.318 84.7502 91.318C84.8702 91.318 84.9835 91.2846 85.0902 91.218C85.2102 91.1513 85.3368 91.0713 85.4702 90.978L85.6702 91.318C85.3902 91.558 85.0635 91.7446 84.6902 91.878C84.3302 91.998 83.9235 92.058 83.4702 92.058C82.9768 92.058 82.5835 91.9913 82.2902 91.858C81.9968 91.7113 81.7835 91.518 81.6502 91.278C81.5302 91.038 81.4702 90.758 81.4702 90.438C81.1502 90.9446 80.7635 91.3446 80.3102 91.638C79.8568 91.918 79.3035 92.058 78.6502 92.058ZM80.0702 90.778C80.3368 90.778 80.5768 90.718 80.7902 90.598C81.0168 90.4646 81.2302 90.2513 81.4302 89.958V85.858C81.3102 86.058 81.1435 86.238 80.9302 86.398C80.7168 86.558 80.4902 86.7246 80.2502 86.898C80.0102 87.058 79.7768 87.238 79.5502 87.438C79.3368 87.638 79.1635 87.8846 79.0302 88.178C78.8968 88.4713 78.8302 88.8246 78.8302 89.238C78.8302 89.758 78.9435 90.1446 79.1702 90.398C79.3968 90.6513 79.6968 90.778 80.0702 90.778ZM93.1217 81.298C93.5484 81.298 93.8951 81.3913 94.1617 81.578C94.4284 81.7513 94.6217 81.978 94.7417 82.258C94.8751 82.538 94.9417 82.8313 94.9417 83.138C94.9417 83.6313 94.7951 84.038 94.5017 84.358C94.2217 84.6646 93.8484 84.818 93.3817 84.818C92.9151 84.818 92.5484 84.7046 92.2817 84.478C92.0284 84.238 91.9017 83.9246 91.9017 83.538C91.9017 83.1646 91.9817 82.858 92.1417 82.618C92.3151 82.3646 92.5284 82.1513 92.7817 81.978C92.5951 81.9246 92.4084 81.9313 92.2217 81.998C91.9684 82.038 91.7284 82.1446 91.5017 82.318C91.2751 82.478 91.0817 82.6846 90.9217 82.938C90.7617 83.178 90.6351 83.4446 90.5417 83.738C90.4484 84.018 90.4017 84.2913 90.4017 84.558V89.858C90.4017 90.498 90.5551 90.9313 90.8617 91.158C91.1817 91.3846 91.6551 91.498 92.2817 91.498V91.918C91.9751 91.9046 91.5284 91.8913 90.9417 91.878C90.3551 91.8513 89.7417 91.838 89.1017 91.838C88.5684 91.838 88.0284 91.8513 87.4817 91.878C86.9351 91.8913 86.5217 91.9046 86.2417 91.918V91.498C86.7084 91.498 87.0351 91.398 87.2217 91.198C87.4217 90.998 87.5217 90.618 87.5217 90.058V83.758C87.5217 83.158 87.4284 82.718 87.2417 82.438C87.0684 82.1446 86.7351 81.998 86.2417 81.998V81.578C86.6684 81.618 87.0817 81.638 87.4817 81.638C88.0417 81.638 88.5617 81.618 89.0417 81.578C89.5351 81.5246 89.9884 81.4513 90.4017 81.358V83.218C90.5617 82.858 90.7751 82.5313 91.0417 82.238C91.3084 81.9446 91.6151 81.718 91.9617 81.558C92.3084 81.3846 92.6951 81.298 93.1217 81.298ZM103.018 81.298C103.578 81.298 104.031 81.3713 104.378 81.518C104.738 81.6513 105.018 81.838 105.218 82.078C105.431 82.3313 105.584 82.658 105.678 83.058C105.784 83.458 105.838 83.998 105.838 84.678V90.058C105.838 90.618 105.931 90.998 106.118 91.198C106.318 91.398 106.651 91.498 107.118 91.498V91.918C106.864 91.9046 106.484 91.8913 105.978 91.878C105.471 91.8513 104.971 91.838 104.478 91.838C103.971 91.838 103.471 91.8513 102.978 91.878C102.498 91.8913 102.131 91.9046 101.878 91.918V91.498C102.278 91.498 102.558 91.398 102.718 91.198C102.878 90.998 102.958 90.618 102.958 90.058V83.838C102.958 83.5046 102.924 83.218 102.858 82.978C102.791 82.7246 102.671 82.5313 102.498 82.398C102.324 82.2513 102.064 82.178 101.718 82.178C101.358 82.178 101.024 82.278 100.718 82.478C100.424 82.678 100.184 82.958 99.9977 83.318C99.8243 83.6646 99.7377 84.058 99.7377 84.498V90.058C99.7377 90.618 99.8177 90.998 99.9777 91.198C100.151 91.398 100.431 91.498 100.818 91.498V91.918C100.578 91.9046 100.224 91.8913 99.7577 91.878C99.3043 91.8513 98.831 91.838 98.3377 91.838C97.831 91.838 97.311 91.8513 96.7777 91.878C96.2443 91.8913 95.8443 91.9046 95.5777 91.918V91.498C96.0443 91.498 96.371 91.398 96.5577 91.198C96.7577 90.998 96.8577 90.618 96.8577 90.058V83.758C96.8577 83.158 96.7643 82.718 96.5777 82.438C96.4043 82.1446 96.071 81.998 95.5777 81.998V81.578C96.0043 81.618 96.4177 81.638 96.8177 81.638C97.3777 81.638 97.8977 81.618 98.3777 81.578C98.871 81.5246 99.3243 81.4513 99.7377 81.358V83.158C100.071 82.478 100.524 81.998 101.098 81.718C101.671 81.438 102.311 81.298 103.018 81.298ZM110.463 76.418C111.023 76.418 111.463 76.558 111.783 76.838C112.116 77.1046 112.283 77.478 112.283 77.958C112.283 78.438 112.116 78.818 111.783 79.098C111.463 79.3646 111.023 79.498 110.463 79.498C109.903 79.498 109.456 79.3646 109.123 79.098C108.803 78.818 108.643 78.438 108.643 77.958C108.643 77.478 108.803 77.1046 109.123 76.838C109.456 76.558 109.903 76.418 110.463 76.418ZM112.023 81.358V90.058C112.023 90.618 112.116 90.998 112.303 91.198C112.503 91.398 112.836 91.498 113.303 91.498V91.918C113.063 91.9046 112.689 91.8913 112.183 91.878C111.676 91.8513 111.163 91.838 110.643 91.838C110.123 91.838 109.596 91.8513 109.063 91.878C108.529 91.8913 108.129 91.9046 107.863 91.918V91.498C108.329 91.498 108.656 91.398 108.843 91.198C109.043 90.998 109.143 90.618 109.143 90.058V83.758C109.143 83.158 109.049 82.718 108.863 82.438C108.689 82.1446 108.356 81.998 107.863 81.998V81.578C108.289 81.618 108.703 81.638 109.103 81.638C109.663 81.638 110.183 81.618 110.663 81.578C111.156 81.5246 111.609 81.4513 112.023 81.358ZM121.611 81.298C122.171 81.298 122.625 81.3713 122.971 81.518C123.331 81.6513 123.611 81.838 123.811 82.078C124.025 82.3313 124.178 82.658 124.271 83.058C124.378 83.458 124.431 83.998 124.431 84.678V90.058C124.431 90.618 124.525 90.998 124.711 91.198C124.911 91.398 125.245 91.498 125.711 91.498V91.918C125.458 91.9046 125.078 91.8913 124.571 91.878C124.065 91.8513 123.565 91.838 123.071 91.838C122.565 91.838 122.065 91.8513 121.571 91.878C121.091 91.8913 120.725 91.9046 120.471 91.918V91.498C120.871 91.498 121.151 91.398 121.311 91.198C121.471 90.998 121.551 90.618 121.551 90.058V83.838C121.551 83.5046 121.518 83.218 121.451 82.978C121.385 82.7246 121.265 82.5313 121.091 82.398C120.918 82.2513 120.658 82.178 120.311 82.178C119.951 82.178 119.618 82.278 119.311 82.478C119.018 82.678 118.778 82.958 118.591 83.318C118.418 83.6646 118.331 84.058 118.331 84.498V90.058C118.331 90.618 118.411 90.998 118.571 91.198C118.745 91.398 119.025 91.498 119.411 91.498V91.918C119.171 91.9046 118.818 91.8913 118.351 91.878C117.898 91.8513 117.425 91.838 116.931 91.838C116.425 91.838 115.905 91.8513 115.371 91.878C114.838 91.8913 114.438 91.9046 114.171 91.918V91.498C114.638 91.498 114.965 91.398 115.151 91.198C115.351 90.998 115.451 90.618 115.451 90.058V83.758C115.451 83.158 115.358 82.718 115.171 82.438C114.998 82.1446 114.665 81.998 114.171 81.998V81.578C114.598 81.618 115.011 81.638 115.411 81.638C115.971 81.638 116.491 81.618 116.971 81.578C117.465 81.5246 117.918 81.4513 118.331 81.358V83.158C118.665 82.478 119.118 81.998 119.691 81.718C120.265 81.438 120.905 81.298 121.611 81.298ZM130.2 95.678C129.373 95.678 128.633 95.6046 127.98 95.458C127.34 95.3246 126.833 95.1113 126.46 94.818C126.1 94.538 125.92 94.1913 125.92 93.778C125.92 93.3646 126.107 92.9913 126.48 92.658C126.853 92.338 127.407 92.0846 128.14 91.898L128.32 92.218C128.067 92.418 127.88 92.6313 127.76 92.858C127.653 93.098 127.6 93.3446 127.6 93.598C127.6 94.158 127.853 94.5846 128.36 94.878C128.88 95.1846 129.58 95.338 130.46 95.338C131.06 95.338 131.593 95.258 132.06 95.098C132.54 94.938 132.913 94.698 133.18 94.378C133.46 94.058 133.6 93.6646 133.6 93.198C133.6 92.798 133.453 92.458 133.16 92.178C132.867 91.9113 132.28 91.778 131.4 91.778H130.16C129.613 91.778 129.133 91.718 128.72 91.598C128.32 91.478 128.007 91.2913 127.78 91.038C127.553 90.7713 127.44 90.438 127.44 90.038C127.44 89.478 127.66 88.9846 128.1 88.558C128.54 88.1313 129.193 87.7313 130.06 87.358L130.26 87.518C130.007 87.678 129.767 87.8513 129.54 88.038C129.327 88.2113 129.22 88.438 129.22 88.718C129.22 89.1446 129.487 89.358 130.02 89.358H132.2C132.933 89.358 133.587 89.4446 134.16 89.618C134.747 89.7913 135.207 90.078 135.54 90.478C135.887 90.8646 136.06 91.3713 136.06 91.998C136.06 92.6513 135.847 93.258 135.42 93.818C135.007 94.378 134.367 94.8246 133.5 95.158C132.633 95.5046 131.533 95.678 130.2 95.678ZM130.4 87.658C129.64 87.658 128.96 87.5446 128.36 87.318C127.76 87.0913 127.287 86.7446 126.94 86.278C126.593 85.8113 126.42 85.2113 126.42 84.478C126.42 83.7446 126.593 83.1446 126.94 82.678C127.287 82.198 127.76 81.8513 128.36 81.638C128.96 81.4113 129.64 81.298 130.4 81.298C131.16 81.298 131.84 81.4113 132.44 81.638C133.04 81.8513 133.513 82.198 133.86 82.678C134.207 83.1446 134.38 83.7446 134.38 84.478C134.38 85.2113 134.207 85.8113 133.86 86.278C133.513 86.7446 133.04 87.0913 132.44 87.318C131.84 87.5446 131.16 87.658 130.4 87.658ZM130.4 87.298C130.76 87.298 131.04 87.098 131.24 86.698C131.44 86.2846 131.54 85.5446 131.54 84.478C131.54 83.4113 131.44 82.678 131.24 82.278C131.04 81.8646 130.76 81.658 130.4 81.658C130.053 81.658 129.773 81.8646 129.56 82.278C129.36 82.678 129.26 83.4113 129.26 84.478C129.26 85.5446 129.36 86.2846 129.56 86.698C129.773 87.098 130.053 87.298 130.4 87.298ZM133.52 83.018L133.12 82.878C133.32 82.358 133.64 81.9246 134.08 81.578C134.533 81.2313 135.02 81.058 135.54 81.058C135.967 81.058 136.287 81.178 136.5 81.418C136.727 81.6446 136.84 81.9446 136.84 82.318C136.84 82.718 136.733 83.018 136.52 83.218C136.307 83.4046 136.067 83.498 135.8 83.498C135.573 83.498 135.36 83.418 135.16 83.258C134.973 83.098 134.867 82.858 134.84 82.538C134.813 82.2046 134.927 81.778 135.18 81.258L135.32 81.378C134.813 81.5646 134.433 81.7846 134.18 82.038C133.927 82.278 133.707 82.6046 133.52 83.018Z" fill="#2D3A9E"/>
</g>
<g filter="url(#filter1_d_125_43)">
<line x1="63.5" y1="108.418" x2="134.5" y2="108.418" stroke="#2D3A9E" stroke-width="3" stroke-linecap="round"/>
</g>
<defs>
<filter id="filter0_d_125_43" x="-5" y="0" width="202" height="135.355" filterUnits="userSpaceOnUse" color-interpolation-filters="sRGB">
<feFlood flood-opacity="0" result="BackgroundImageFix"/>
<feColorMatrix in="SourceAlpha" type="matrix" values="0 0 0 0 0 0 0 0 0 0 0 0 0 0 0 0 0 0 127 0" result="hardAlpha"/>
<feOffset/>
<feGaussianBlur stdDeviation="12.5"/>
<feComposite in2="hardAlpha" operator="out"/>
<feColorMatrix type="matrix" values="0 0 0 0 0.815686 0 0 0 0 0.847059 0 0 0 0 0.941176 0 0 0 1 0"/>
<feBlend mode="normal" in2="BackgroundImageFix" result="effect1_dropShadow_125_43"/>
<feBlend mode="normal" in="SourceGraphic" in2="effect1_dropShadow_125_43" result="shape"/>
</filter>
<filter id="filter1_d_125_43" x="37" y="81.918" width="124" height="53" filterUnits="userSpaceOnUse" color-interpolation-filters="sRGB">
<feFlood flood-opacity="0" result="BackgroundImageFix"/>
<feColorMatrix in="SourceAlpha" type="matrix" values="0 0 0 0 0 0 0 0 0 0 0 0 0 0 0 0 0 0 127 0" result="hardAlpha"/>
<feOffset/>
<feGaussianBlur stdDeviation="12.5"/>
<feComposite in2="hardAlpha" operator="out"/>
<feColorMatrix type="matrix" values="0 0 0 0 0.815686 0 0 0 0 0.847059 0 0 0 0 0.941176 0 0 0 1 0"/>
<feBlend mode="normal" in2="BackgroundImageFix" result="effect1_dropShadow_125_43"/>
<feBlend mode="normal" in="SourceGraphic" in2="effect1_dropShadow_125_43" result="shape"/>
</filter>
</defs>
</svg>
