<svg width="152" height="86" viewBox="0 0 152 86" fill="none" xmlns="http://www.w3.org/2000/svg">
<rect x="0.5" y="0.582031" width="151" height="84.3551" rx="8.90476" fill="white" stroke="#D0D8F0"/>
<path d="M42.0553 18.104V31.896C42.0553 32.8347 42.2259 33.4747 42.5673 33.816C42.9299 34.1573 43.5273 34.328 44.3593 34.328V35C43.9326 34.9787 43.3033 34.9573 42.4713 34.936C41.6606 34.8933 40.8179 34.872 39.9433 34.872C38.8553 34.872 37.7993 34.8933 36.7753 34.936C35.7726 34.9573 34.9939 34.9787 34.4393 35V34.328C35.3993 34.328 36.1353 34.1573 36.6473 33.816C37.1806 33.4533 37.4473 32.7493 37.4473 31.704V23.896C37.4473 22.872 37.3619 22.1147 37.1913 21.624C37.0206 21.1333 36.7006 20.8133 36.2313 20.664C35.7619 20.5147 35.1219 20.44 34.3113 20.44V19.736C36.1459 19.6933 37.6606 19.5547 38.8553 19.32C40.0713 19.0853 41.1379 18.68 42.0553 18.104ZM55.0413 15.608V23.16H62.4653V24.12H55.0413V31.64H53.8893V24.12H46.4333V23.16H53.8893V15.608H55.0413ZM83.465 20.82V21.22C83.1717 21.34 82.8717 21.58 82.565 21.94C82.2583 22.2867 81.9183 22.82 81.545 23.54L77.765 31.02H76.825L72.145 22.36C71.905 21.9067 71.685 21.6067 71.485 21.46C71.2983 21.3133 71.1317 21.24 70.985 21.24V20.82C71.345 20.86 71.7117 20.8867 72.085 20.9C72.4717 20.9133 72.8917 20.92 73.345 20.92C73.9317 20.92 74.565 20.9133 75.245 20.9C75.925 20.8733 76.545 20.8467 77.105 20.82V21.24C76.7717 21.24 76.4717 21.2667 76.205 21.32C75.9383 21.3733 75.7517 21.4733 75.645 21.62C75.5383 21.7533 75.565 21.9733 75.725 22.28L78.885 28.36L78.265 29.16L80.325 25.02C80.8183 24.06 81.0783 23.3067 81.105 22.76C81.145 22.2133 81.0117 21.8267 80.705 21.6C80.4117 21.36 79.9917 21.2333 79.445 21.22V20.82C79.8983 20.8333 80.325 20.8467 80.725 20.86C81.125 20.8733 81.5317 20.88 81.945 20.88C82.2383 20.88 82.5117 20.8733 82.765 20.86C83.0317 20.8467 83.265 20.8333 83.465 20.82ZM79.185 27.86V32.88C79.185 33.36 79.2183 33.72 79.285 33.96C79.365 34.2 79.5117 34.36 79.725 34.44C79.9383 34.52 80.2583 34.5733 80.685 34.6V35C80.325 34.9733 79.8583 34.96 79.285 34.96C78.725 34.9467 78.165 34.94 77.605 34.94C76.9783 34.94 76.385 34.9467 75.825 34.96C75.265 34.96 74.825 34.9733 74.505 35V34.6C74.9317 34.5733 75.2517 34.52 75.465 34.44C75.6783 34.36 75.8183 34.2 75.885 33.96C75.965 33.72 76.005 33.36 76.005 32.88V28.78L77.745 30.02L79.185 27.86ZM87.6048 24.38C88.7782 24.38 89.6982 24.7267 90.3648 25.42C91.0315 26.1133 91.3648 27.2467 91.3648 28.82H84.7848L84.7448 28.44H88.8448C88.8582 27.7867 88.8182 27.1867 88.7248 26.64C88.6315 26.08 88.4848 25.6333 88.2848 25.3C88.0848 24.9667 87.8182 24.8 87.4848 24.8C87.0182 24.8 86.6182 25.0933 86.2848 25.68C85.9648 26.2667 85.7715 27.24 85.7048 28.6L85.7648 28.72C85.7515 28.88 85.7382 29.0467 85.7248 29.22C85.7248 29.3933 85.7248 29.5733 85.7248 29.76C85.7248 30.68 85.8515 31.4267 86.1048 32C86.3715 32.5733 86.7048 32.9933 87.1048 33.26C87.5048 33.5133 87.9115 33.64 88.3248 33.64C88.6048 33.64 88.8915 33.6 89.1848 33.52C89.4915 33.4267 89.7982 33.2667 90.1048 33.04C90.4115 32.8 90.6982 32.4667 90.9648 32.04L91.3248 32.16C91.1648 32.6667 90.9115 33.16 90.5648 33.64C90.2182 34.12 89.7782 34.5133 89.2448 34.82C88.7115 35.1267 88.0715 35.28 87.3248 35.28C86.4182 35.28 85.6182 35.0867 84.9248 34.7C84.2315 34.3133 83.6848 33.7267 83.2848 32.94C82.8982 32.1533 82.7048 31.1533 82.7048 29.94C82.7048 28.7 82.9115 27.6667 83.3248 26.84C83.7515 26.0133 84.3315 25.4 85.0648 25C85.8115 24.5867 86.6582 24.38 87.6048 24.38ZM95.283 35.14C94.683 35.14 94.183 35.0267 93.783 34.8C93.383 34.5733 93.0896 34.2733 92.903 33.9C92.7163 33.5133 92.623 33.0933 92.623 32.64C92.623 32.0667 92.7496 31.6 93.003 31.24C93.2696 30.88 93.6096 30.5867 94.023 30.36C94.4363 30.1333 94.8696 29.9467 95.323 29.8C95.7896 29.6533 96.2296 29.5133 96.643 29.38C97.0696 29.2333 97.4096 29.0667 97.663 28.88C97.9296 28.68 98.063 28.4267 98.063 28.12V26.56C98.063 26.2133 98.003 25.9067 97.883 25.64C97.7763 25.36 97.603 25.1467 97.363 25C97.1363 24.8533 96.8363 24.78 96.463 24.78C96.1963 24.78 95.9296 24.82 95.663 24.9C95.3963 24.9667 95.1763 25.0867 95.003 25.26C95.3763 25.3933 95.663 25.6 95.863 25.88C96.0763 26.1467 96.183 26.4533 96.183 26.8C96.183 27.2533 96.023 27.6133 95.703 27.88C95.3963 28.1467 95.0296 28.28 94.603 28.28C94.123 28.28 93.7563 28.1333 93.503 27.84C93.263 27.5333 93.143 27.1667 93.143 26.74C93.143 26.3533 93.2363 26.0333 93.423 25.78C93.623 25.5267 93.8963 25.2867 94.243 25.06C94.6163 24.8467 95.063 24.68 95.583 24.56C96.1163 24.44 96.6896 24.38 97.303 24.38C97.9163 24.38 98.4696 24.4467 98.963 24.58C99.4563 24.7 99.8696 24.9267 100.203 25.26C100.51 25.5667 100.71 25.9467 100.803 26.4C100.896 26.84 100.943 27.4 100.943 28.08V33.52C100.943 33.8533 100.976 34.0867 101.043 34.22C101.11 34.34 101.223 34.4 101.383 34.4C101.503 34.4 101.616 34.3667 101.723 34.3C101.843 34.2333 101.97 34.1533 102.103 34.06L102.303 34.4C102.023 34.64 101.696 34.8267 101.323 34.96C100.963 35.08 100.556 35.14 100.103 35.14C99.6096 35.14 99.2163 35.0733 98.923 34.94C98.6296 34.7933 98.4163 34.6 98.283 34.36C98.163 34.12 98.103 33.84 98.103 33.52C97.783 34.0267 97.3963 34.4267 96.943 34.72C96.4896 35 95.9363 35.14 95.283 35.14ZM96.703 33.86C96.9696 33.86 97.2096 33.8 97.423 33.68C97.6496 33.5467 97.863 33.3333 98.063 33.04V28.94C97.943 29.14 97.7763 29.32 97.563 29.48C97.3496 29.64 97.123 29.8067 96.883 29.98C96.643 30.14 96.4096 30.32 96.183 30.52C95.9696 30.72 95.7963 30.9667 95.663 31.26C95.5296 31.5533 95.463 31.9067 95.463 32.32C95.463 32.84 95.5763 33.2267 95.803 33.48C96.0296 33.7333 96.3296 33.86 96.703 33.86ZM109.755 24.38C110.181 24.38 110.528 24.4733 110.795 24.66C111.061 24.8333 111.255 25.06 111.375 25.34C111.508 25.62 111.575 25.9133 111.575 26.22C111.575 26.7133 111.428 27.12 111.135 27.44C110.855 27.7467 110.481 27.9 110.015 27.9C109.548 27.9 109.181 27.7867 108.915 27.56C108.661 27.32 108.535 27.0067 108.535 26.62C108.535 26.2467 108.615 25.94 108.775 25.7C108.948 25.4467 109.161 25.2333 109.415 25.06C109.228 25.0067 109.041 25.0133 108.855 25.08C108.601 25.12 108.361 25.2267 108.135 25.4C107.908 25.56 107.715 25.7667 107.555 26.02C107.395 26.26 107.268 26.5267 107.175 26.82C107.081 27.1 107.035 27.3733 107.035 27.64V32.94C107.035 33.58 107.188 34.0133 107.495 34.24C107.815 34.4667 108.288 34.58 108.915 34.58V35C108.608 34.9867 108.161 34.9733 107.575 34.96C106.988 34.9333 106.375 34.92 105.735 34.92C105.201 34.92 104.661 34.9333 104.115 34.96C103.568 34.9733 103.155 34.9867 102.875 35V34.58C103.341 34.58 103.668 34.48 103.855 34.28C104.055 34.08 104.155 33.7 104.155 33.14V26.84C104.155 26.24 104.061 25.8 103.875 25.52C103.701 25.2267 103.368 25.08 102.875 25.08V24.66C103.301 24.7 103.715 24.72 104.115 24.72C104.675 24.72 105.195 24.7 105.675 24.66C106.168 24.6067 106.621 24.5333 107.035 24.44V26.3C107.195 25.94 107.408 25.6133 107.675 25.32C107.941 25.0267 108.248 24.8 108.595 24.64C108.941 24.4667 109.328 24.38 109.755 24.38ZM116.17 24.38C116.73 24.38 117.217 24.4533 117.63 24.6C118.057 24.7333 118.364 24.8667 118.55 25C119.004 25.3067 119.284 25.1067 119.39 24.4H119.81C119.784 24.7733 119.764 25.2333 119.75 25.78C119.737 26.3133 119.73 27.0267 119.73 27.92H119.31C119.244 27.4267 119.117 26.94 118.93 26.46C118.744 25.98 118.47 25.5867 118.11 25.28C117.764 24.9733 117.31 24.82 116.75 24.82C116.364 24.82 116.037 24.9333 115.77 25.16C115.504 25.3733 115.37 25.6867 115.37 26.1C115.37 26.5 115.49 26.8533 115.73 27.16C115.97 27.4533 116.277 27.74 116.65 28.02C117.037 28.2867 117.437 28.5733 117.85 28.88C118.29 29.2133 118.69 29.5467 119.05 29.88C119.41 30.2 119.697 30.5533 119.91 30.94C120.124 31.3267 120.23 31.7867 120.23 32.32C120.23 32.92 120.057 33.4467 119.71 33.9C119.364 34.34 118.904 34.68 118.33 34.92C117.77 35.16 117.144 35.28 116.45 35.28C116.05 35.28 115.69 35.24 115.37 35.16C115.064 35.08 114.797 34.98 114.57 34.86C114.397 34.78 114.23 34.7067 114.07 34.64C113.924 34.56 113.784 34.4933 113.65 34.44C113.517 34.4 113.397 34.4467 113.29 34.58C113.197 34.7133 113.124 34.9 113.07 35.14H112.65C112.677 34.7133 112.697 34.1933 112.71 33.58C112.724 32.9667 112.73 32.1533 112.73 31.14H113.15C113.23 31.86 113.377 32.5 113.59 33.06C113.804 33.6067 114.09 34.04 114.45 34.36C114.824 34.6667 115.29 34.82 115.85 34.82C116.077 34.82 116.297 34.7733 116.51 34.68C116.724 34.5867 116.897 34.4333 117.03 34.22C117.177 34.0067 117.25 33.7333 117.25 33.4C117.25 32.8133 117.057 32.3267 116.67 31.94C116.297 31.5533 115.817 31.1333 115.23 30.68C114.804 30.3333 114.397 29.9933 114.01 29.66C113.637 29.3133 113.33 28.94 113.09 28.54C112.85 28.1267 112.73 27.66 112.73 27.14C112.73 26.54 112.89 26.0333 113.21 25.62C113.53 25.2067 113.95 24.9 114.47 24.7C115.004 24.4867 115.57 24.38 116.17 24.38ZM42.0855 47.84V48.24C41.6321 48.2533 41.2855 48.3067 41.0455 48.4C40.8188 48.48 40.6655 48.64 40.5855 48.88C40.5055 49.1067 40.4655 49.4667 40.4655 49.96V60.12C40.4655 60.5333 40.4921 60.84 40.5455 61.04C40.6121 61.24 40.7321 61.3733 40.9055 61.44C41.0921 61.5067 41.3655 61.54 41.7255 61.54H42.7055C43.1588 61.54 43.5855 61.4333 43.9855 61.22C44.3855 61.0067 44.7455 60.7067 45.0655 60.32C45.3855 59.92 45.6521 59.4467 45.8655 58.9C46.0788 58.3533 46.2388 57.7467 46.3455 57.08H46.8055C46.7655 57.5333 46.7455 58.12 46.7455 58.84C46.7455 59.1467 46.7521 59.5933 46.7655 60.18C46.7788 60.7667 46.8188 61.3733 46.8855 62C46.2055 61.9733 45.4388 61.96 44.5855 61.96C43.7321 61.9467 42.9721 61.94 42.3055 61.94C41.9721 61.94 41.5455 61.94 41.0255 61.94C40.5055 61.94 39.9455 61.9467 39.3455 61.96C38.7455 61.96 38.1388 61.9667 37.5255 61.98C36.9121 61.98 36.3321 61.9867 35.7855 62V61.6C36.2121 61.5733 36.5321 61.52 36.7455 61.44C36.9588 61.36 37.0988 61.2 37.1655 60.96C37.2455 60.72 37.2855 60.36 37.2855 59.88V49.96C37.2855 49.4667 37.2455 49.1067 37.1655 48.88C37.0988 48.64 36.9521 48.48 36.7255 48.4C36.5121 48.3067 36.1988 48.2533 35.7855 48.24V47.84C36.1188 47.8533 36.5655 47.8667 37.1255 47.88C37.6988 47.8933 38.3055 47.9 38.9455 47.9C39.5321 47.9 40.1055 47.8933 40.6655 47.88C41.2388 47.8667 41.7121 47.8533 42.0855 47.84ZM52.972 51.38C54.1454 51.38 55.0654 51.7267 55.732 52.42C56.3987 53.1133 56.732 54.2467 56.732 55.82H50.152L50.112 55.44H54.212C54.2254 54.7867 54.1854 54.1867 54.092 53.64C53.9987 53.08 53.852 52.6333 53.652 52.3C53.452 51.9667 53.1854 51.8 52.852 51.8C52.3854 51.8 51.9854 52.0933 51.652 52.68C51.332 53.2667 51.1387 54.24 51.072 55.6L51.132 55.72C51.1187 55.88 51.1054 56.0467 51.092 56.22C51.092 56.3933 51.092 56.5733 51.092 56.76C51.092 57.68 51.2187 58.4267 51.472 59C51.7387 59.5733 52.072 59.9933 52.472 60.26C52.872 60.5133 53.2787 60.64 53.692 60.64C53.972 60.64 54.2587 60.6 54.552 60.52C54.8587 60.4267 55.1654 60.2667 55.472 60.04C55.7787 59.8 56.0654 59.4667 56.332 59.04L56.692 59.16C56.532 59.6667 56.2787 60.16 55.932 60.64C55.5854 61.12 55.1454 61.5133 54.612 61.82C54.0787 62.1267 53.4387 62.28 52.692 62.28C51.7854 62.28 50.9854 62.0867 50.292 61.7C49.5987 61.3133 49.052 60.7267 48.652 59.94C48.2654 59.1533 48.072 58.1533 48.072 56.94C48.072 55.7 48.2787 54.6667 48.692 53.84C49.1187 53.0133 49.6987 52.4 50.432 52C51.1787 51.5867 52.0254 51.38 52.972 51.38ZM60.6502 62.14C60.0502 62.14 59.5502 62.0267 59.1502 61.8C58.7502 61.5733 58.4568 61.2733 58.2702 60.9C58.0835 60.5133 57.9902 60.0933 57.9902 59.64C57.9902 59.0667 58.1168 58.6 58.3702 58.24C58.6368 57.88 58.9768 57.5867 59.3902 57.36C59.8035 57.1333 60.2368 56.9467 60.6902 56.8C61.1568 56.6533 61.5968 56.5133 62.0102 56.38C62.4368 56.2333 62.7768 56.0667 63.0302 55.88C63.2968 55.68 63.4302 55.4267 63.4302 55.12V53.56C63.4302 53.2133 63.3702 52.9067 63.2502 52.64C63.1435 52.36 62.9702 52.1467 62.7302 52C62.5035 51.8533 62.2035 51.78 61.8302 51.78C61.5635 51.78 61.2968 51.82 61.0302 51.9C60.7635 51.9667 60.5435 52.0867 60.3702 52.26C60.7435 52.3933 61.0302 52.6 61.2302 52.88C61.4435 53.1467 61.5502 53.4533 61.5502 53.8C61.5502 54.2533 61.3902 54.6133 61.0702 54.88C60.7635 55.1467 60.3968 55.28 59.9702 55.28C59.4902 55.28 59.1235 55.1333 58.8702 54.84C58.6302 54.5333 58.5102 54.1667 58.5102 53.74C58.5102 53.3533 58.6035 53.0333 58.7902 52.78C58.9902 52.5267 59.2635 52.2867 59.6102 52.06C59.9835 51.8467 60.4302 51.68 60.9502 51.56C61.4835 51.44 62.0568 51.38 62.6702 51.38C63.2835 51.38 63.8368 51.4467 64.3302 51.58C64.8235 51.7 65.2368 51.9267 65.5702 52.26C65.8768 52.5667 66.0768 52.9467 66.1702 53.4C66.2635 53.84 66.3102 54.4 66.3102 55.08V60.52C66.3102 60.8533 66.3435 61.0867 66.4102 61.22C66.4768 61.34 66.5902 61.4 66.7502 61.4C66.8702 61.4 66.9835 61.3667 67.0902 61.3C67.2102 61.2333 67.3368 61.1533 67.4702 61.06L67.6702 61.4C67.3902 61.64 67.0635 61.8267 66.6902 61.96C66.3302 62.08 65.9235 62.14 65.4702 62.14C64.9768 62.14 64.5835 62.0733 64.2902 61.94C63.9968 61.7933 63.7835 61.6 63.6502 61.36C63.5302 61.12 63.4702 60.84 63.4702 60.52C63.1502 61.0267 62.7635 61.4267 62.3102 61.72C61.8568 62 61.3035 62.14 60.6502 62.14ZM62.0702 60.86C62.3368 60.86 62.5768 60.8 62.7902 60.68C63.0168 60.5467 63.2302 60.3333 63.4302 60.04V55.94C63.3102 56.14 63.1435 56.32 62.9302 56.48C62.7168 56.64 62.4902 56.8067 62.2502 56.98C62.0102 57.14 61.7768 57.32 61.5502 57.52C61.3368 57.72 61.1635 57.9667 61.0302 58.26C60.8968 58.5533 60.8302 58.9067 60.8302 59.32C60.8302 59.84 60.9435 60.2267 61.1702 60.48C61.3968 60.7333 61.6968 60.86 62.0702 60.86ZM75.1217 51.38C75.5484 51.38 75.8951 51.4733 76.1617 51.66C76.4284 51.8333 76.6217 52.06 76.7417 52.34C76.8751 52.62 76.9417 52.9133 76.9417 53.22C76.9417 53.7133 76.7951 54.12 76.5017 54.44C76.2217 54.7467 75.8484 54.9 75.3817 54.9C74.9151 54.9 74.5484 54.7867 74.2817 54.56C74.0284 54.32 73.9017 54.0067 73.9017 53.62C73.9017 53.2467 73.9817 52.94 74.1417 52.7C74.3151 52.4467 74.5284 52.2333 74.7817 52.06C74.5951 52.0067 74.4084 52.0133 74.2217 52.08C73.9684 52.12 73.7284 52.2267 73.5017 52.4C73.2751 52.56 73.0817 52.7667 72.9217 53.02C72.7617 53.26 72.6351 53.5267 72.5417 53.82C72.4484 54.1 72.4017 54.3733 72.4017 54.64V59.94C72.4017 60.58 72.5551 61.0133 72.8617 61.24C73.1817 61.4667 73.6551 61.58 74.2817 61.58V62C73.9751 61.9867 73.5284 61.9733 72.9417 61.96C72.3551 61.9333 71.7417 61.92 71.1017 61.92C70.5684 61.92 70.0284 61.9333 69.4817 61.96C68.9351 61.9733 68.5217 61.9867 68.2417 62V61.58C68.7084 61.58 69.0351 61.48 69.2217 61.28C69.4217 61.08 69.5217 60.7 69.5217 60.14V53.84C69.5217 53.24 69.4284 52.8 69.2417 52.52C69.0684 52.2267 68.7351 52.08 68.2417 52.08V51.66C68.6684 51.7 69.0817 51.72 69.4817 51.72C70.0417 51.72 70.5617 51.7 71.0417 51.66C71.5351 51.6067 71.9884 51.5333 72.4017 51.44V53.3C72.5617 52.94 72.7751 52.6133 73.0417 52.32C73.3084 52.0267 73.6151 51.8 73.9617 51.64C74.3084 51.4667 74.6951 51.38 75.1217 51.38ZM85.0177 51.38C85.5777 51.38 86.031 51.4533 86.3777 51.6C86.7377 51.7333 87.0177 51.92 87.2177 52.16C87.431 52.4133 87.5843 52.74 87.6777 53.14C87.7843 53.54 87.8377 54.08 87.8377 54.76V60.14C87.8377 60.7 87.931 61.08 88.1177 61.28C88.3177 61.48 88.651 61.58 89.1177 61.58V62C88.8643 61.9867 88.4843 61.9733 87.9777 61.96C87.471 61.9333 86.971 61.92 86.4777 61.92C85.971 61.92 85.471 61.9333 84.9777 61.96C84.4977 61.9733 84.131 61.9867 83.8777 62V61.58C84.2777 61.58 84.5577 61.48 84.7177 61.28C84.8777 61.08 84.9577 60.7 84.9577 60.14V53.92C84.9577 53.5867 84.9243 53.3 84.8577 53.06C84.791 52.8067 84.671 52.6133 84.4977 52.48C84.3243 52.3333 84.0643 52.26 83.7177 52.26C83.3577 52.26 83.0243 52.36 82.7177 52.56C82.4243 52.76 82.1843 53.04 81.9977 53.4C81.8243 53.7467 81.7377 54.14 81.7377 54.58V60.14C81.7377 60.7 81.8177 61.08 81.9777 61.28C82.151 61.48 82.431 61.58 82.8177 61.58V62C82.5777 61.9867 82.2243 61.9733 81.7577 61.96C81.3043 61.9333 80.831 61.92 80.3377 61.92C79.831 61.92 79.311 61.9333 78.7777 61.96C78.2443 61.9733 77.8443 61.9867 77.5777 62V61.58C78.0443 61.58 78.371 61.48 78.5577 61.28C78.7577 61.08 78.8577 60.7 78.8577 60.14V53.84C78.8577 53.24 78.7643 52.8 78.5777 52.52C78.4043 52.2267 78.071 52.08 77.5777 52.08V51.66C78.0043 51.7 78.4177 51.72 78.8177 51.72C79.3777 51.72 79.8977 51.7 80.3777 51.66C80.871 51.6067 81.3243 51.5333 81.7377 51.44V53.24C82.071 52.56 82.5243 52.08 83.0977 51.8C83.671 51.52 84.311 51.38 85.0177 51.38ZM92.4628 46.5C93.0228 46.5 93.4628 46.64 93.7828 46.92C94.1161 47.1867 94.2828 47.56 94.2828 48.04C94.2828 48.52 94.1161 48.9 93.7828 49.18C93.4628 49.4467 93.0228 49.58 92.4628 49.58C91.9028 49.58 91.4561 49.4467 91.1228 49.18C90.8028 48.9 90.6428 48.52 90.6428 48.04C90.6428 47.56 90.8028 47.1867 91.1228 46.92C91.4561 46.64 91.9028 46.5 92.4628 46.5ZM94.0228 51.44V60.14C94.0228 60.7 94.1161 61.08 94.3028 61.28C94.5028 61.48 94.8361 61.58 95.3028 61.58V62C95.0628 61.9867 94.6895 61.9733 94.1828 61.96C93.6761 61.9333 93.1628 61.92 92.6428 61.92C92.1228 61.92 91.5961 61.9333 91.0628 61.96C90.5295 61.9733 90.1295 61.9867 89.8628 62V61.58C90.3295 61.58 90.6561 61.48 90.8428 61.28C91.0428 61.08 91.1428 60.7 91.1428 60.14V53.84C91.1428 53.24 91.0495 52.8 90.8628 52.52C90.6895 52.2267 90.3561 52.08 89.8628 52.08V51.66C90.2895 51.7 90.7028 51.72 91.1028 51.72C91.6628 51.72 92.1828 51.7 92.6628 51.66C93.1561 51.6067 93.6095 51.5333 94.0228 51.44ZM103.611 51.38C104.171 51.38 104.625 51.4533 104.971 51.6C105.331 51.7333 105.611 51.92 105.811 52.16C106.025 52.4133 106.178 52.74 106.271 53.14C106.378 53.54 106.431 54.08 106.431 54.76V60.14C106.431 60.7 106.525 61.08 106.711 61.28C106.911 61.48 107.245 61.58 107.711 61.58V62C107.458 61.9867 107.078 61.9733 106.571 61.96C106.065 61.9333 105.565 61.92 105.071 61.92C104.565 61.92 104.065 61.9333 103.571 61.96C103.091 61.9733 102.725 61.9867 102.471 62V61.58C102.871 61.58 103.151 61.48 103.311 61.28C103.471 61.08 103.551 60.7 103.551 60.14V53.92C103.551 53.5867 103.518 53.3 103.451 53.06C103.385 52.8067 103.265 52.6133 103.091 52.48C102.918 52.3333 102.658 52.26 102.311 52.26C101.951 52.26 101.618 52.36 101.311 52.56C101.018 52.76 100.778 53.04 100.591 53.4C100.418 53.7467 100.331 54.14 100.331 54.58V60.14C100.331 60.7 100.411 61.08 100.571 61.28C100.745 61.48 101.025 61.58 101.411 61.58V62C101.171 61.9867 100.818 61.9733 100.351 61.96C99.8981 61.9333 99.4247 61.92 98.9314 61.92C98.4247 61.92 97.9047 61.9333 97.3714 61.96C96.8381 61.9733 96.4381 61.9867 96.1714 62V61.58C96.6381 61.58 96.9647 61.48 97.1514 61.28C97.3514 61.08 97.4514 60.7 97.4514 60.14V53.84C97.4514 53.24 97.3581 52.8 97.1714 52.52C96.9981 52.2267 96.6647 52.08 96.1714 52.08V51.66C96.5981 51.7 97.0114 51.72 97.4114 51.72C97.9714 51.72 98.4914 51.7 98.9714 51.66C99.4647 51.6067 99.9181 51.5333 100.331 51.44V53.24C100.665 52.56 101.118 52.08 101.691 51.8C102.265 51.52 102.905 51.38 103.611 51.38ZM112.2 65.76C111.373 65.76 110.633 65.6867 109.98 65.54C109.34 65.4067 108.833 65.1933 108.46 64.9C108.1 64.62 107.92 64.2733 107.92 63.86C107.92 63.4467 108.107 63.0733 108.48 62.74C108.853 62.42 109.407 62.1667 110.14 61.98L110.32 62.3C110.067 62.5 109.88 62.7133 109.76 62.94C109.653 63.18 109.6 63.4267 109.6 63.68C109.6 64.24 109.853 64.6667 110.36 64.96C110.88 65.2667 111.58 65.42 112.46 65.42C113.06 65.42 113.593 65.34 114.06 65.18C114.54 65.02 114.913 64.78 115.18 64.46C115.46 64.14 115.6 63.7467 115.6 63.28C115.6 62.88 115.453 62.54 115.16 62.26C114.867 61.9933 114.28 61.86 113.4 61.86H112.16C111.613 61.86 111.133 61.8 110.72 61.68C110.32 61.56 110.007 61.3733 109.78 61.12C109.553 60.8533 109.44 60.52 109.44 60.12C109.44 59.56 109.66 59.0667 110.1 58.64C110.54 58.2133 111.193 57.8133 112.06 57.44L112.26 57.6C112.007 57.76 111.767 57.9333 111.54 58.12C111.327 58.2933 111.22 58.52 111.22 58.8C111.22 59.2267 111.487 59.44 112.02 59.44H114.2C114.933 59.44 115.587 59.5267 116.16 59.7C116.747 59.8733 117.207 60.16 117.54 60.56C117.887 60.9467 118.06 61.4533 118.06 62.08C118.06 62.7333 117.847 63.34 117.42 63.9C117.007 64.46 116.367 64.9067 115.5 65.24C114.633 65.5867 113.533 65.76 112.2 65.76ZM112.4 57.74C111.64 57.74 110.96 57.6267 110.36 57.4C109.76 57.1733 109.287 56.8267 108.94 56.36C108.593 55.8933 108.42 55.2933 108.42 54.56C108.42 53.8267 108.593 53.2267 108.94 52.76C109.287 52.28 109.76 51.9333 110.36 51.72C110.96 51.4933 111.64 51.38 112.4 51.38C113.16 51.38 113.84 51.4933 114.44 51.72C115.04 51.9333 115.513 52.28 115.86 52.76C116.207 53.2267 116.38 53.8267 116.38 54.56C116.38 55.2933 116.207 55.8933 115.86 56.36C115.513 56.8267 115.04 57.1733 114.44 57.4C113.84 57.6267 113.16 57.74 112.4 57.74ZM112.4 57.38C112.76 57.38 113.04 57.18 113.24 56.78C113.44 56.3667 113.54 55.6267 113.54 54.56C113.54 53.4933 113.44 52.76 113.24 52.36C113.04 51.9467 112.76 51.74 112.4 51.74C112.053 51.74 111.773 51.9467 111.56 52.36C111.36 52.76 111.26 53.4933 111.26 54.56C111.26 55.6267 111.36 56.3667 111.56 56.78C111.773 57.18 112.053 57.38 112.4 57.38ZM115.52 53.1L115.12 52.96C115.32 52.44 115.64 52.0067 116.08 51.66C116.533 51.3133 117.02 51.14 117.54 51.14C117.967 51.14 118.287 51.26 118.5 51.5C118.727 51.7267 118.84 52.0267 118.84 52.4C118.84 52.8 118.733 53.1 118.52 53.3C118.307 53.4867 118.067 53.58 117.8 53.58C117.573 53.58 117.36 53.5 117.16 53.34C116.973 53.18 116.867 52.94 116.84 52.62C116.813 52.2867 116.927 51.86 117.18 51.34L117.32 51.46C116.813 51.6467 116.433 51.8667 116.18 52.12C115.927 52.36 115.707 52.6867 115.52 53.1Z" fill="#2D3A9E"/>
</svg>
