<svg width="177" height="135" viewBox="0 0 177 135" fill="none" xmlns="http://www.w3.org/2000/svg">
<g filter="url(#filter0_d_120_56)">
<g filter="url(#filter1_d_120_56)">
<rect x="20" y="25" width="137" height="84.1299" rx="9.40476" fill="white"/>
<rect x="20.4702" y="25.4702" width="136.06" height="83.1894" rx="8.93452" stroke="#6B7FC4" stroke-width="0.940476"/>
</g>
<path d="M91.1984 38.0271L91.3424 38.9631L80.1104 53.3631L80.6144 52.1391H92.0624C93.0464 52.1391 93.6704 52.0191 93.9344 51.7791C94.1984 51.5391 94.3784 51.1191 94.4744 50.5191H95.2304C95.2304 51.9591 95.2424 53.0871 95.2664 53.9031C95.2904 54.6951 95.3264 55.4031 95.3744 56.0271C95.2064 55.9791 94.8944 55.9551 94.4384 55.9551C93.9824 55.9311 93.4424 55.9071 92.8184 55.8831C92.1944 55.8591 91.5584 55.8471 90.9104 55.8471C90.2864 55.8471 89.6984 55.8471 89.1464 55.8471H77.7704V55.0911L91.1984 38.0271ZM91.7744 38.0271V62.2191H87.5984V43.1031L91.1984 38.0271H91.7744ZM58.6038 69.9831C58.9372 69.9964 59.3838 70.0097 59.9438 70.0231C60.5172 70.0364 61.0838 70.0431 61.6438 70.0431C62.2838 70.0431 62.9038 70.0364 63.5038 70.0231C64.1038 70.0097 64.5305 70.0031 64.7838 70.0031C66.6372 70.0031 68.0238 70.3697 68.9438 71.1031C69.8638 71.8364 70.3238 72.7831 70.3238 73.9431C70.3238 74.4231 70.2305 74.9297 70.0438 75.4631C69.8572 75.9831 69.5372 76.4697 69.0838 76.9231C68.6438 77.3631 68.0372 77.7231 67.2638 78.0031C66.4905 78.2831 65.5172 78.4231 64.3438 78.4231H62.3038V78.0231H64.1438C64.9305 78.0231 65.5238 77.8431 65.9238 77.4831C66.3372 77.1231 66.6172 76.6497 66.7638 76.0631C66.9238 75.4764 67.0038 74.8431 67.0038 74.1631C67.0038 72.8964 66.8172 71.9497 66.4438 71.3231C66.0705 70.6964 65.4305 70.3831 64.5238 70.3831C64.0038 70.3831 63.6638 70.4964 63.5038 70.7231C63.3572 70.9497 63.2838 71.4097 63.2838 72.1031V81.9031C63.2838 82.4231 63.3372 82.8097 63.4438 83.0631C63.5505 83.3164 63.7572 83.4831 64.0638 83.5631C64.3705 83.6431 64.8238 83.6897 65.4238 83.7031V84.1431C65.0105 84.1297 64.4772 84.1164 63.8238 84.1031C63.1705 84.0897 62.4838 84.0831 61.7638 84.0831C61.1905 84.0831 60.6305 84.0897 60.0838 84.1031C59.5372 84.1164 59.0438 84.1297 58.6038 84.1431V83.7431C59.0305 83.7164 59.3505 83.6631 59.5638 83.5831C59.7772 83.5031 59.9172 83.3431 59.9838 83.1031C60.0638 82.8631 60.1038 82.5031 60.1038 82.0231V72.1031C60.1038 71.6097 60.0638 71.2497 59.9838 71.0231C59.9172 70.7831 59.7705 70.6231 59.5438 70.5431C59.3305 70.4497 59.0172 70.3964 58.6038 70.3831V69.9831ZM78.0963 73.5231C78.523 73.5231 78.8697 73.6164 79.1363 73.8031C79.403 73.9764 79.5963 74.2031 79.7163 74.4831C79.8497 74.7631 79.9163 75.0564 79.9163 75.3631C79.9163 75.8564 79.7697 76.2631 79.4763 76.5831C79.1963 76.8897 78.823 77.0431 78.3563 77.0431C77.8897 77.0431 77.523 76.9297 77.2563 76.7031C77.003 76.4631 76.8763 76.1497 76.8763 75.7631C76.8763 75.3897 76.9563 75.0831 77.1163 74.8431C77.2897 74.5897 77.503 74.3764 77.7563 74.2031C77.5697 74.1497 77.383 74.1564 77.1963 74.2231C76.943 74.2631 76.703 74.3697 76.4763 74.5431C76.2497 74.7031 76.0563 74.9097 75.8963 75.1631C75.7363 75.4031 75.6097 75.6697 75.5163 75.9631C75.423 76.2431 75.3763 76.5164 75.3763 76.7831V82.0831C75.3763 82.7231 75.5297 83.1564 75.8363 83.3831C76.1563 83.6097 76.6297 83.7231 77.2563 83.7231V84.1431C76.9497 84.1297 76.503 84.1164 75.9163 84.1031C75.3297 84.0764 74.7163 84.0631 74.0763 84.0631C73.543 84.0631 73.003 84.0764 72.4563 84.1031C71.9097 84.1164 71.4963 84.1297 71.2163 84.1431V83.7231C71.683 83.7231 72.0097 83.6231 72.1963 83.4231C72.3963 83.2231 72.4963 82.8431 72.4963 82.2831V75.9831C72.4963 75.3831 72.403 74.9431 72.2163 74.6631C72.043 74.3697 71.7097 74.2231 71.2163 74.2231V73.8031C71.643 73.8431 72.0563 73.8631 72.4563 73.8631C73.0163 73.8631 73.5363 73.8431 74.0163 73.8031C74.5097 73.7497 74.963 73.6764 75.3763 73.5831V75.4431C75.5363 75.0831 75.7497 74.7564 76.0163 74.4631C76.283 74.1697 76.5897 73.9431 76.9363 73.7831C77.283 73.6097 77.6697 73.5231 78.0963 73.5231ZM85.4388 73.5231C86.4122 73.5231 87.2655 73.7031 87.9988 74.0631C88.7322 74.4231 89.3055 75.0031 89.7188 75.8031C90.1322 76.6031 90.3388 77.6631 90.3388 78.9831C90.3388 80.3031 90.1322 81.3631 89.7188 82.1631C89.3055 82.9497 88.7322 83.5231 87.9988 83.8831C87.2655 84.2431 86.4122 84.4231 85.4388 84.4231C84.4922 84.4231 83.6455 84.2431 82.8988 83.8831C82.1655 83.5231 81.5855 82.9497 81.1588 82.1631C80.7455 81.3631 80.5388 80.3031 80.5388 78.9831C80.5388 77.6631 80.7455 76.6031 81.1588 75.8031C81.5855 75.0031 82.1655 74.4231 82.8988 74.0631C83.6455 73.7031 84.4922 73.5231 85.4388 73.5231ZM85.4388 73.9231C84.9055 73.9231 84.4588 74.3231 84.0988 75.1231C83.7388 75.9097 83.5588 77.1964 83.5588 78.9831C83.5588 80.7697 83.7388 82.0564 84.0988 82.8431C84.4588 83.6297 84.9055 84.0231 85.4388 84.0231C85.9855 84.0231 86.4322 83.6297 86.7788 82.8431C87.1388 82.0564 87.3188 80.7697 87.3188 78.9831C87.3188 77.1964 87.1388 75.9097 86.7788 75.1231C86.4322 74.3231 85.9855 73.9231 85.4388 73.9231ZM90.6474 87.9031V87.5431C91.3008 87.5297 91.8208 87.2697 92.2074 86.7631C92.5941 86.2697 92.7874 85.5164 92.7874 84.5031V75.9831C92.7874 75.3831 92.6941 74.9431 92.5074 74.6631C92.3208 74.3697 91.9874 74.2231 91.5074 74.2231V73.8031C91.9341 73.8431 92.3474 73.8631 92.7474 73.8631C93.2941 73.8631 93.8141 73.8431 94.3074 73.8031C94.8008 73.7497 95.2541 73.6764 95.6674 73.5831V82.2631C95.6674 82.9964 95.6208 83.6431 95.5274 84.2031C95.4341 84.7631 95.2808 85.2564 95.0674 85.6831C94.8541 86.1097 94.5741 86.4897 94.2274 86.8231C93.8941 87.1431 93.4341 87.4031 92.8474 87.6031C92.2741 87.8031 91.5408 87.9031 90.6474 87.9031ZM94.0074 68.6431C94.5674 68.6431 95.0074 68.7831 95.3274 69.0631C95.6608 69.3297 95.8274 69.7031 95.8274 70.1831C95.8274 70.6631 95.6608 71.0431 95.3274 71.3231C95.0074 71.5897 94.5674 71.7231 94.0074 71.7231C93.4474 71.7231 93.0008 71.5897 92.6674 71.3231C92.3474 71.0431 92.1874 70.6631 92.1874 70.1831C92.1874 69.7031 92.3474 69.3297 92.6674 69.0631C93.0008 68.7831 93.4474 68.6431 94.0074 68.6431ZM102.685 73.5231C103.858 73.5231 104.778 73.8697 105.445 74.5631C106.112 75.2564 106.445 76.3897 106.445 77.9631H99.8649L99.8249 77.5831H103.925C103.938 76.9297 103.898 76.3297 103.805 75.7831C103.712 75.2231 103.565 74.7764 103.365 74.4431C103.165 74.1097 102.898 73.9431 102.565 73.9431C102.098 73.9431 101.698 74.2364 101.365 74.8231C101.045 75.4097 100.852 76.3831 100.785 77.7431L100.845 77.8631C100.832 78.0231 100.818 78.1897 100.805 78.3631C100.805 78.5364 100.805 78.7164 100.805 78.9031C100.805 79.8231 100.932 80.5697 101.185 81.1431C101.452 81.7164 101.785 82.1364 102.185 82.4031C102.585 82.6564 102.992 82.7831 103.405 82.7831C103.685 82.7831 103.972 82.7431 104.265 82.6631C104.572 82.5697 104.878 82.4097 105.185 82.1831C105.492 81.9431 105.778 81.6097 106.045 81.1831L106.405 81.3031C106.245 81.8097 105.992 82.3031 105.645 82.7831C105.298 83.2631 104.858 83.6564 104.325 83.9631C103.792 84.2697 103.152 84.4231 102.405 84.4231C101.498 84.4231 100.698 84.2297 100.005 83.8431C99.3116 83.4564 98.7649 82.8697 98.3649 82.0831C97.9783 81.2964 97.7849 80.2964 97.7849 79.0831C97.7849 77.8431 97.9916 76.8097 98.4049 75.9831C98.8316 75.1564 99.4116 74.5431 100.145 74.1431C100.892 73.7297 101.738 73.5231 102.685 73.5231ZM112.803 73.5231C113.323 73.5231 113.796 73.5831 114.223 73.7031C114.663 73.8097 115.023 73.9497 115.303 74.1231C115.65 74.3364 115.916 74.6031 116.103 74.9231C116.303 75.2297 116.403 75.5897 116.403 76.0031C116.403 76.4697 116.256 76.8564 115.963 77.1631C115.67 77.4564 115.29 77.6031 114.823 77.6031C114.356 77.6031 113.983 77.4697 113.703 77.2031C113.423 76.9364 113.283 76.5764 113.283 76.1231C113.283 75.6964 113.416 75.3431 113.683 75.0631C113.95 74.7697 114.256 74.5764 114.603 74.4831C114.496 74.3497 114.336 74.2364 114.123 74.1431C113.91 74.0497 113.67 74.0031 113.403 74.0031C112.99 74.0031 112.623 74.1231 112.303 74.3631C111.996 74.6031 111.736 74.9364 111.523 75.3631C111.31 75.7897 111.143 76.2897 111.023 76.8631C110.916 77.4364 110.863 78.0631 110.863 78.7431C110.863 79.7697 110.99 80.5764 111.243 81.1631C111.51 81.7497 111.843 82.1631 112.243 82.4031C112.656 82.6431 113.083 82.7631 113.523 82.7631C113.776 82.7631 114.05 82.7231 114.343 82.6431C114.65 82.5631 114.956 82.4031 115.263 82.1631C115.583 81.9231 115.876 81.5831 116.143 81.1431L116.483 81.2631C116.336 81.7564 116.096 82.2497 115.763 82.7431C115.43 83.2364 114.996 83.6431 114.463 83.9631C113.93 84.2697 113.276 84.4231 112.503 84.4231C111.636 84.4231 110.85 84.2364 110.143 83.8631C109.45 83.4764 108.89 82.8897 108.463 82.1031C108.05 81.3031 107.843 80.2764 107.843 79.0231C107.843 77.8231 108.056 76.8164 108.483 76.0031C108.923 75.1764 109.516 74.5564 110.263 74.1431C111.01 73.7297 111.856 73.5231 112.803 73.5231ZM121.585 70.5231V73.8031H123.945V74.2031H121.585V82.2831C121.585 82.6831 121.658 82.9697 121.805 83.1431C121.952 83.3031 122.172 83.3831 122.465 83.3831C122.705 83.3831 122.945 83.2964 123.185 83.1231C123.425 82.9364 123.638 82.6231 123.825 82.1831L124.165 82.3631C123.952 82.9631 123.625 83.4564 123.185 83.8431C122.758 84.2297 122.172 84.4231 121.425 84.4231C120.985 84.4231 120.598 84.3631 120.265 84.2431C119.932 84.1364 119.652 83.9697 119.425 83.7431C119.132 83.4497 118.938 83.0897 118.845 82.6631C118.752 82.2231 118.705 81.6564 118.705 80.9631V74.2031H117.025V73.8031H118.705V71.1631C119.265 71.1631 119.778 71.1164 120.245 71.0231C120.725 70.9164 121.172 70.7497 121.585 70.5231Z" fill="#2D3A9E"/>
</g>
<line x1="55.5" y1="106.643" x2="126.5" y2="106.643" stroke="#2D3A9E" stroke-width="3" stroke-linecap="round"/>
<defs>
<filter id="filter0_d_120_56" x="16" y="14.1431" width="145" height="116" filterUnits="userSpaceOnUse" color-interpolation-filters="sRGB">
<feFlood flood-opacity="0" result="BackgroundImageFix"/>
<feColorMatrix in="SourceAlpha" type="matrix" values="0 0 0 0 0 0 0 0 0 0 0 0 0 0 0 0 0 0 127 0" result="hardAlpha"/>
<feOffset/>
<feGaussianBlur stdDeviation="2"/>
<feComposite in2="hardAlpha" operator="out"/>
<feColorMatrix type="matrix" values="0 0 0 0 0 0 0 0 0 0 0 0 0 0 0 0 0 0 0.25 0"/>
<feBlend mode="normal" in2="BackgroundImageFix" result="effect1_dropShadow_120_56"/>
<feBlend mode="normal" in="SourceGraphic" in2="effect1_dropShadow_120_56" result="shape"/>
</filter>
<filter id="filter1_d_120_56" x="-5" y="0" width="187" height="134.13" filterUnits="userSpaceOnUse" color-interpolation-filters="sRGB">
<feFlood flood-opacity="0" result="BackgroundImageFix"/>
<feColorMatrix in="SourceAlpha" type="matrix" values="0 0 0 0 0 0 0 0 0 0 0 0 0 0 0 0 0 0 127 0" result="hardAlpha"/>
<feOffset/>
<feGaussianBlur stdDeviation="12.5"/>
<feComposite in2="hardAlpha" operator="out"/>
<feColorMatrix type="matrix" values="0 0 0 0 0.419608 0 0 0 0 0.498039 0 0 0 0 0.768627 0 0 0 0.48 0"/>
<feBlend mode="normal" in2="BackgroundImageFix" result="effect1_dropShadow_120_56"/>
<feBlend mode="normal" in="SourceGraphic" in2="effect1_dropShadow_120_56" result="shape"/>
</filter>
</defs>
</svg>
