<svg width="177" height="132" viewBox="0 0 177 132" fill="none" xmlns="http://www.w3.org/2000/svg">
<g filter="url(#filter0_d_115_81)">
<rect x="20.5" y="25.5" width="136" height="81" rx="9.5" fill="white" stroke="#6B7FC4"/>
<path d="M79.929 37.972L80.073 38.692C79.209 38.98 78.345 39.328 77.481 39.736C76.617 40.144 75.789 40.708 74.997 41.428C74.229 42.148 73.545 43.072 72.945 44.2C72.345 45.304 71.865 46.696 71.505 48.376C71.169 50.056 71.001 52.084 71.001 54.46C71.001 56.836 71.169 58.708 71.505 60.076C71.865 61.42 72.309 62.38 72.837 62.956C73.365 63.508 73.881 63.784 74.385 63.784C74.937 63.784 75.453 63.532 75.933 63.028C76.413 62.524 76.797 61.72 77.085 60.616C77.397 59.512 77.553 58.06 77.553 56.26C77.553 54.532 77.409 53.152 77.121 52.12C76.857 51.088 76.497 50.344 76.041 49.888C75.585 49.432 75.069 49.204 74.493 49.204C74.085 49.204 73.629 49.324 73.125 49.564C72.621 49.804 72.153 50.188 71.721 50.716C71.289 51.244 70.977 51.988 70.785 52.948L70.461 52.804C70.605 51.652 70.953 50.74 71.505 50.068C72.081 49.372 72.765 48.88 73.557 48.592C74.349 48.304 75.141 48.16 75.933 48.16C77.229 48.16 78.405 48.472 79.461 49.096C80.517 49.72 81.369 50.608 82.017 51.76C82.665 52.912 82.989 54.304 82.989 55.936C82.989 57.784 82.581 59.344 81.765 60.616C80.949 61.888 79.857 62.86 78.489 63.532C77.121 64.18 75.633 64.504 74.025 64.504C71.385 64.504 69.309 63.616 67.797 61.84C66.309 60.04 65.565 57.508 65.565 54.244C65.565 52.084 65.877 50.164 66.501 48.484C67.125 46.804 67.953 45.352 68.985 44.128C70.017 42.88 71.157 41.836 72.405 40.996C73.677 40.156 74.961 39.496 76.257 39.016C77.577 38.512 78.801 38.164 79.929 37.972ZM95.0327 42.184V50.68H103.385V51.76H95.0327V60.22H93.7367V51.76H85.3487V50.68H93.7367V42.184H95.0327ZM68.5062 76.58C69.2928 76.58 69.8995 76.6667 70.3262 76.84C70.7528 77 71.1195 77.1733 71.4262 77.36C71.5862 77.4533 71.7128 77.5267 71.8062 77.58C71.9128 77.62 72.0128 77.64 72.1062 77.64C72.2395 77.64 72.3328 77.5667 72.3862 77.42C72.4528 77.2733 72.5062 77.0533 72.5462 76.76H73.0062C72.9928 77.0133 72.9728 77.32 72.9462 77.68C72.9328 78.0267 72.9195 78.4867 72.9062 79.06C72.9062 79.6333 72.9062 80.3867 72.9062 81.32H72.4462C72.3928 80.6267 72.2328 79.9533 71.9662 79.3C71.6995 78.6467 71.3195 78.1133 70.8262 77.7C70.3462 77.2733 69.7528 77.06 69.0462 77.06C68.4062 77.06 67.8795 77.24 67.4662 77.6C67.0528 77.96 66.8462 78.46 66.8462 79.1C66.8462 79.6333 66.9795 80.0933 67.2462 80.48C67.5128 80.8533 67.8995 81.22 68.4062 81.58C68.9262 81.94 69.5528 82.3733 70.2862 82.88C70.9262 83.2933 71.4995 83.7067 72.0062 84.12C72.5128 84.5333 72.9195 85 73.2262 85.52C73.5328 86.04 73.6862 86.66 73.6862 87.38C73.6862 88.26 73.4528 88.9867 72.9862 89.56C72.5328 90.1333 71.9328 90.5667 71.1862 90.86C70.4395 91.14 69.6195 91.28 68.7262 91.28C67.8995 91.28 67.2395 91.2 66.7462 91.04C66.2528 90.88 65.8395 90.7133 65.5062 90.54C65.2128 90.3533 64.9862 90.26 64.8262 90.26C64.6928 90.26 64.5928 90.3333 64.5262 90.48C64.4728 90.6267 64.4262 90.8467 64.3862 91.14H63.9262C63.9528 90.82 63.9662 90.4467 63.9662 90.02C63.9795 89.5933 63.9862 89.04 63.9862 88.36C63.9995 87.6667 64.0062 86.7933 64.0062 85.74H64.4662C64.5195 86.62 64.6662 87.4467 64.9062 88.22C65.1595 88.98 65.5395 89.5933 66.0462 90.06C66.5662 90.5267 67.2528 90.76 68.1062 90.76C68.5728 90.76 68.9862 90.68 69.3462 90.52C69.7195 90.3467 70.0195 90.0933 70.2462 89.76C70.4728 89.4267 70.5862 89.0133 70.5862 88.52C70.5862 87.96 70.4528 87.4733 70.1862 87.06C69.9328 86.6467 69.5795 86.26 69.1262 85.9C68.6862 85.54 68.1728 85.1733 67.5862 84.8C66.9595 84.3867 66.3728 83.9733 65.8262 83.56C65.2795 83.1467 64.8395 82.6733 64.5062 82.14C64.1862 81.6067 64.0262 80.9733 64.0262 80.24C64.0262 79.4 64.2328 78.7133 64.6462 78.18C65.0728 77.6333 65.6262 77.2333 66.3062 76.98C66.9995 76.7133 67.7328 76.58 68.5062 76.58ZM78.9287 75.34V89.14C78.9287 89.7 79.0153 90.08 79.1887 90.28C79.3753 90.48 79.6887 90.58 80.1287 90.58V91C79.8753 90.9867 79.502 90.9733 79.0087 90.96C78.5287 90.9333 78.0353 90.92 77.5287 90.92C77.0087 90.92 76.482 90.9333 75.9487 90.96C75.4287 90.9733 75.0353 90.9867 74.7687 91V90.58C75.2353 90.58 75.562 90.48 75.7487 90.28C75.9487 90.08 76.0487 89.7 76.0487 89.14V77.74C76.0487 77.14 75.9553 76.7 75.7687 76.42C75.5953 76.1267 75.262 75.98 74.7687 75.98V75.56C75.1953 75.6 75.6087 75.62 76.0087 75.62C76.5553 75.62 77.0753 75.6 77.5687 75.56C78.062 75.5067 78.5153 75.4333 78.9287 75.34ZM85.4487 80.66V81.06C85.0353 81.14 84.622 81.3133 84.2087 81.58C83.7953 81.8467 83.3753 82.1867 82.9487 82.6L81.4087 84.2L81.6087 83.82L85.0287 89.54C85.1753 89.78 85.3287 89.9933 85.4887 90.18C85.6487 90.3667 85.842 90.5 86.0687 90.58V91C85.8687 90.9867 85.5687 90.9733 85.1687 90.96C84.7687 90.9333 84.3687 90.92 83.9687 90.92C83.4753 90.92 82.982 90.9333 82.4887 90.96C81.9953 90.9733 81.6287 90.9867 81.3887 91V90.58C81.6553 90.58 81.8353 90.52 81.9287 90.4C82.022 90.2667 82.0087 90.1 81.8887 89.9L79.9087 86.32C79.7487 86.0667 79.5887 85.9067 79.4287 85.84C79.282 85.76 79.082 85.7133 78.8287 85.7V85.32C79.1087 85.2933 79.3487 85.2467 79.5487 85.18C79.762 85.1133 79.9553 84.9867 80.1287 84.8L81.6487 83.32C82.102 82.8933 82.3287 82.5133 82.3287 82.18C82.3287 81.8467 82.182 81.58 81.8887 81.38C81.6087 81.18 81.2353 81.0733 80.7687 81.06V80.66C81.142 80.6733 81.5487 80.6867 81.9887 80.7C82.4287 80.7133 82.802 80.72 83.1087 80.72C83.3753 80.72 83.6553 80.72 83.9487 80.72C84.2553 80.7067 84.542 80.7 84.8087 80.7C85.0753 80.6867 85.2887 80.6733 85.4487 80.66ZM89.1679 75.5C89.7279 75.5 90.1679 75.64 90.4879 75.92C90.8212 76.1867 90.9879 76.56 90.9879 77.04C90.9879 77.52 90.8212 77.9 90.4879 78.18C90.1679 78.4467 89.7279 78.58 89.1679 78.58C88.6079 78.58 88.1612 78.4467 87.8279 78.18C87.5079 77.9 87.3479 77.52 87.3479 77.04C87.3479 76.56 87.5079 76.1867 87.8279 75.92C88.1612 75.64 88.6079 75.5 89.1679 75.5ZM90.7279 80.44V89.14C90.7279 89.7 90.8212 90.08 91.0079 90.28C91.2079 90.48 91.5412 90.58 92.0079 90.58V91C91.7679 90.9867 91.3946 90.9733 90.8879 90.96C90.3812 90.9333 89.8679 90.92 89.3479 90.92C88.8279 90.92 88.3012 90.9333 87.7679 90.96C87.2346 90.9733 86.8346 90.9867 86.5679 91V90.58C87.0346 90.58 87.3612 90.48 87.5479 90.28C87.7479 90.08 87.8479 89.7 87.8479 89.14V82.84C87.8479 82.24 87.7546 81.8 87.5679 81.52C87.3946 81.2267 87.0612 81.08 86.5679 81.08V80.66C86.9946 80.7 87.4079 80.72 87.8079 80.72C88.3679 80.72 88.8879 80.7 89.3679 80.66C89.8612 80.6067 90.3146 80.5333 90.7279 80.44ZM96.9565 75.34V89.14C96.9565 89.7 97.0498 90.08 97.2365 90.28C97.4365 90.48 97.7698 90.58 98.2365 90.58V91C97.9832 90.9867 97.6032 90.9733 97.0965 90.96C96.5898 90.9333 96.0765 90.92 95.5565 90.92C95.0365 90.92 94.5098 90.9333 93.9765 90.96C93.4565 90.9733 93.0632 90.9867 92.7965 91V90.58C93.2632 90.58 93.5898 90.48 93.7765 90.28C93.9765 90.08 94.0765 89.7 94.0765 89.14V77.74C94.0765 77.14 93.9832 76.7 93.7965 76.42C93.6232 76.1267 93.2898 75.98 92.7965 75.98V75.56C93.2232 75.6 93.6365 75.62 94.0365 75.62C94.5832 75.62 95.1032 75.6 95.5965 75.56C96.0898 75.5067 96.5432 75.4333 96.9565 75.34ZM103.285 75.34V89.14C103.285 89.7 103.378 90.08 103.565 90.28C103.765 90.48 104.098 90.58 104.565 90.58V91C104.311 90.9867 103.931 90.9733 103.425 90.96C102.918 90.9333 102.405 90.92 101.885 90.92C101.365 90.92 100.838 90.9333 100.305 90.96C99.7846 90.9733 99.3913 90.9867 99.1246 91V90.58C99.5913 90.58 99.9179 90.48 100.105 90.28C100.305 90.08 100.405 89.7 100.405 89.14V77.74C100.405 77.14 100.311 76.7 100.125 76.42C99.9513 76.1267 99.6179 75.98 99.1246 75.98V75.56C99.5513 75.6 99.9646 75.62 100.365 75.62C100.911 75.62 101.431 75.6 101.925 75.56C102.418 75.5067 102.871 75.4333 103.285 75.34ZM109.376 80.38C109.936 80.38 110.422 80.4533 110.836 80.6C111.262 80.7333 111.569 80.8667 111.756 81C112.209 81.3067 112.489 81.1067 112.596 80.4H113.016C112.989 80.7733 112.969 81.2333 112.956 81.78C112.942 82.3133 112.936 83.0267 112.936 83.92H112.516C112.449 83.4267 112.322 82.94 112.136 82.46C111.949 81.98 111.676 81.5867 111.316 81.28C110.969 80.9733 110.516 80.82 109.956 80.82C109.569 80.82 109.242 80.9333 108.976 81.16C108.709 81.3733 108.576 81.6867 108.576 82.1C108.576 82.5 108.696 82.8533 108.936 83.16C109.176 83.4533 109.482 83.74 109.856 84.02C110.242 84.2867 110.642 84.5733 111.056 84.88C111.496 85.2133 111.896 85.5467 112.256 85.88C112.616 86.2 112.902 86.5533 113.116 86.94C113.329 87.3267 113.436 87.7867 113.436 88.32C113.436 88.92 113.262 89.4467 112.916 89.9C112.569 90.34 112.109 90.68 111.536 90.92C110.976 91.16 110.349 91.28 109.656 91.28C109.256 91.28 108.896 91.24 108.576 91.16C108.269 91.08 108.002 90.98 107.776 90.86C107.602 90.78 107.436 90.7067 107.276 90.64C107.129 90.56 106.989 90.4933 106.856 90.44C106.722 90.4 106.602 90.4467 106.496 90.58C106.402 90.7133 106.329 90.9 106.276 91.14H105.856C105.882 90.7133 105.902 90.1933 105.916 89.58C105.929 88.9667 105.936 88.1533 105.936 87.14H106.356C106.436 87.86 106.582 88.5 106.796 89.06C107.009 89.6067 107.296 90.04 107.656 90.36C108.029 90.6667 108.496 90.82 109.056 90.82C109.282 90.82 109.502 90.7733 109.716 90.68C109.929 90.5867 110.102 90.4333 110.236 90.22C110.382 90.0067 110.456 89.7333 110.456 89.4C110.456 88.8133 110.262 88.3267 109.876 87.94C109.502 87.5533 109.022 87.1333 108.436 86.68C108.009 86.3333 107.602 85.9933 107.216 85.66C106.842 85.3133 106.536 84.94 106.296 84.54C106.056 84.1267 105.936 83.66 105.936 83.14C105.936 82.54 106.096 82.0333 106.416 81.62C106.736 81.2067 107.156 80.9 107.676 80.7C108.209 80.4867 108.776 80.38 109.376 80.38Z" fill="#2D3A9E"/>
<line x1="55.5" y1="105.5" x2="126.5" y2="105.5" stroke="#2D3A9E" stroke-width="3" stroke-linecap="round"/>
</g>
<defs>
<filter id="filter0_d_115_81" x="-5" y="0" width="187" height="132" filterUnits="userSpaceOnUse" color-interpolation-filters="sRGB">
<feFlood flood-opacity="0" result="BackgroundImageFix"/>
<feColorMatrix in="SourceAlpha" type="matrix" values="0 0 0 0 0 0 0 0 0 0 0 0 0 0 0 0 0 0 127 0" result="hardAlpha"/>
<feOffset/>
<feGaussianBlur stdDeviation="12.5"/>
<feComposite in2="hardAlpha" operator="out"/>
<feColorMatrix type="matrix" values="0 0 0 0 0.419608 0 0 0 0 0.498039 0 0 0 0 0.768627 0 0 0 0.48 0"/>
<feBlend mode="normal" in2="BackgroundImageFix" result="effect1_dropShadow_115_81"/>
<feBlend mode="normal" in="SourceGraphic" in2="effect1_dropShadow_115_81" result="shape"/>
</filter>
</defs>
</svg>
