<svg width="137" height="82" viewBox="0 0 137 82" fill="none" xmlns="http://www.w3.org/2000/svg">
<rect x="0.5" y="0.5" width="136" height="81" rx="9.5" fill="white" stroke="#D0D8F0"/>
<path d="M59.929 12.972L60.073 13.692C59.209 13.98 58.345 14.328 57.481 14.736C56.617 15.144 55.789 15.708 54.997 16.428C54.229 17.148 53.545 18.072 52.945 19.2C52.345 20.304 51.865 21.696 51.505 23.376C51.169 25.056 51.001 27.084 51.001 29.46C51.001 31.836 51.169 33.708 51.505 35.076C51.865 36.42 52.309 37.38 52.837 37.956C53.365 38.508 53.881 38.784 54.385 38.784C54.937 38.784 55.453 38.532 55.933 38.028C56.413 37.524 56.797 36.72 57.085 35.616C57.397 34.512 57.553 33.06 57.553 31.26C57.553 29.532 57.409 28.152 57.121 27.12C56.857 26.088 56.497 25.344 56.041 24.888C55.585 24.432 55.069 24.204 54.493 24.204C54.085 24.204 53.629 24.324 53.125 24.564C52.621 24.804 52.153 25.188 51.721 25.716C51.289 26.244 50.977 26.988 50.785 27.948L50.461 27.804C50.605 26.652 50.953 25.74 51.505 25.068C52.081 24.372 52.765 23.88 53.557 23.592C54.349 23.304 55.141 23.16 55.933 23.16C57.229 23.16 58.405 23.472 59.461 24.096C60.517 24.72 61.369 25.608 62.017 26.76C62.665 27.912 62.989 29.304 62.989 30.936C62.989 32.784 62.581 34.344 61.765 35.616C60.949 36.888 59.857 37.86 58.489 38.532C57.121 39.18 55.633 39.504 54.025 39.504C51.385 39.504 49.309 38.616 47.797 36.84C46.309 35.04 45.565 32.508 45.565 29.244C45.565 27.084 45.877 25.164 46.501 23.484C47.125 21.804 47.953 20.352 48.985 19.128C50.017 17.88 51.157 16.836 52.405 15.996C53.677 15.156 54.961 14.496 56.257 14.016C57.577 13.512 58.801 13.164 59.929 12.972ZM75.0327 17.184V25.68H83.3847V26.76H75.0327V35.22H73.7367V26.76H65.3487V25.68H73.7367V17.184H75.0327ZM48.5062 51.58C49.2928 51.58 49.8995 51.6667 50.3262 51.84C50.7528 52 51.1195 52.1733 51.4262 52.36C51.5862 52.4533 51.7128 52.5267 51.8062 52.58C51.9128 52.62 52.0128 52.64 52.1062 52.64C52.2395 52.64 52.3328 52.5667 52.3862 52.42C52.4528 52.2733 52.5062 52.0533 52.5462 51.76H53.0062C52.9928 52.0133 52.9728 52.32 52.9462 52.68C52.9328 53.0267 52.9195 53.4867 52.9062 54.06C52.9062 54.6333 52.9062 55.3867 52.9062 56.32H52.4462C52.3928 55.6267 52.2328 54.9533 51.9662 54.3C51.6995 53.6467 51.3195 53.1133 50.8262 52.7C50.3462 52.2733 49.7528 52.06 49.0462 52.06C48.4062 52.06 47.8795 52.24 47.4662 52.6C47.0528 52.96 46.8462 53.46 46.8462 54.1C46.8462 54.6333 46.9795 55.0933 47.2462 55.48C47.5128 55.8533 47.8995 56.22 48.4062 56.58C48.9262 56.94 49.5528 57.3733 50.2862 57.88C50.9262 58.2933 51.4995 58.7067 52.0062 59.12C52.5128 59.5333 52.9195 60 53.2262 60.52C53.5328 61.04 53.6862 61.66 53.6862 62.38C53.6862 63.26 53.4528 63.9867 52.9862 64.56C52.5328 65.1333 51.9328 65.5667 51.1862 65.86C50.4395 66.14 49.6195 66.28 48.7262 66.28C47.8995 66.28 47.2395 66.2 46.7462 66.04C46.2528 65.88 45.8395 65.7133 45.5062 65.54C45.2128 65.3533 44.9862 65.26 44.8262 65.26C44.6928 65.26 44.5928 65.3333 44.5262 65.48C44.4728 65.6267 44.4262 65.8467 44.3862 66.14H43.9262C43.9528 65.82 43.9662 65.4467 43.9662 65.02C43.9795 64.5933 43.9862 64.04 43.9862 63.36C43.9995 62.6667 44.0062 61.7933 44.0062 60.74H44.4662C44.5195 61.62 44.6662 62.4467 44.9062 63.22C45.1595 63.98 45.5395 64.5933 46.0462 65.06C46.5662 65.5267 47.2528 65.76 48.1062 65.76C48.5728 65.76 48.9862 65.68 49.3462 65.52C49.7195 65.3467 50.0195 65.0933 50.2462 64.76C50.4728 64.4267 50.5862 64.0133 50.5862 63.52C50.5862 62.96 50.4528 62.4733 50.1862 62.06C49.9328 61.6467 49.5795 61.26 49.1262 60.9C48.6862 60.54 48.1728 60.1733 47.5862 59.8C46.9595 59.3867 46.3728 58.9733 45.8262 58.56C45.2795 58.1467 44.8395 57.6733 44.5062 57.14C44.1862 56.6067 44.0262 55.9733 44.0262 55.24C44.0262 54.4 44.2328 53.7133 44.6462 53.18C45.0728 52.6333 45.6262 52.2333 46.3062 51.98C46.9995 51.7133 47.7328 51.58 48.5062 51.58ZM58.9287 50.34V64.14C58.9287 64.7 59.0153 65.08 59.1887 65.28C59.3753 65.48 59.6887 65.58 60.1287 65.58V66C59.8753 65.9867 59.502 65.9733 59.0087 65.96C58.5287 65.9333 58.0353 65.92 57.5287 65.92C57.0087 65.92 56.482 65.9333 55.9487 65.96C55.4287 65.9733 55.0353 65.9867 54.7687 66V65.58C55.2353 65.58 55.562 65.48 55.7487 65.28C55.9487 65.08 56.0487 64.7 56.0487 64.14V52.74C56.0487 52.14 55.9553 51.7 55.7687 51.42C55.5953 51.1267 55.262 50.98 54.7687 50.98V50.56C55.1953 50.6 55.6087 50.62 56.0087 50.62C56.5553 50.62 57.0753 50.6 57.5687 50.56C58.062 50.5067 58.5153 50.4333 58.9287 50.34ZM65.4487 55.66V56.06C65.0353 56.14 64.622 56.3133 64.2087 56.58C63.7953 56.8467 63.3753 57.1867 62.9487 57.6L61.4087 59.2L61.6087 58.82L65.0287 64.54C65.1753 64.78 65.3287 64.9933 65.4887 65.18C65.6487 65.3667 65.842 65.5 66.0687 65.58V66C65.8687 65.9867 65.5687 65.9733 65.1687 65.96C64.7687 65.9333 64.3687 65.92 63.9687 65.92C63.4753 65.92 62.982 65.9333 62.4887 65.96C61.9953 65.9733 61.6287 65.9867 61.3887 66V65.58C61.6553 65.58 61.8353 65.52 61.9287 65.4C62.022 65.2667 62.0087 65.1 61.8887 64.9L59.9087 61.32C59.7487 61.0667 59.5887 60.9067 59.4287 60.84C59.282 60.76 59.082 60.7133 58.8287 60.7V60.32C59.1087 60.2933 59.3487 60.2467 59.5487 60.18C59.762 60.1133 59.9553 59.9867 60.1287 59.8L61.6487 58.32C62.102 57.8933 62.3287 57.5133 62.3287 57.18C62.3287 56.8467 62.182 56.58 61.8887 56.38C61.6087 56.18 61.2353 56.0733 60.7687 56.06V55.66C61.142 55.6733 61.5487 55.6867 61.9887 55.7C62.4287 55.7133 62.802 55.72 63.1087 55.72C63.3753 55.72 63.6553 55.72 63.9487 55.72C64.2553 55.7067 64.542 55.7 64.8087 55.7C65.0753 55.6867 65.2887 55.6733 65.4487 55.66ZM69.1679 50.5C69.7279 50.5 70.1679 50.64 70.4879 50.92C70.8212 51.1867 70.9879 51.56 70.9879 52.04C70.9879 52.52 70.8212 52.9 70.4879 53.18C70.1679 53.4467 69.7279 53.58 69.1679 53.58C68.6079 53.58 68.1612 53.4467 67.8279 53.18C67.5079 52.9 67.3479 52.52 67.3479 52.04C67.3479 51.56 67.5079 51.1867 67.8279 50.92C68.1612 50.64 68.6079 50.5 69.1679 50.5ZM70.7279 55.44V64.14C70.7279 64.7 70.8212 65.08 71.0079 65.28C71.2079 65.48 71.5412 65.58 72.0079 65.58V66C71.7679 65.9867 71.3946 65.9733 70.8879 65.96C70.3812 65.9333 69.8679 65.92 69.3479 65.92C68.8279 65.92 68.3012 65.9333 67.7679 65.96C67.2346 65.9733 66.8346 65.9867 66.5679 66V65.58C67.0346 65.58 67.3612 65.48 67.5479 65.28C67.7479 65.08 67.8479 64.7 67.8479 64.14V57.84C67.8479 57.24 67.7546 56.8 67.5679 56.52C67.3946 56.2267 67.0612 56.08 66.5679 56.08V55.66C66.9946 55.7 67.4079 55.72 67.8079 55.72C68.3679 55.72 68.8879 55.7 69.3679 55.66C69.8612 55.6067 70.3146 55.5333 70.7279 55.44ZM76.9565 50.34V64.14C76.9565 64.7 77.0498 65.08 77.2365 65.28C77.4365 65.48 77.7698 65.58 78.2365 65.58V66C77.9832 65.9867 77.6032 65.9733 77.0965 65.96C76.5898 65.9333 76.0765 65.92 75.5565 65.92C75.0365 65.92 74.5098 65.9333 73.9765 65.96C73.4565 65.9733 73.0632 65.9867 72.7965 66V65.58C73.2632 65.58 73.5898 65.48 73.7765 65.28C73.9765 65.08 74.0765 64.7 74.0765 64.14V52.74C74.0765 52.14 73.9832 51.7 73.7965 51.42C73.6232 51.1267 73.2898 50.98 72.7965 50.98V50.56C73.2232 50.6 73.6365 50.62 74.0365 50.62C74.5832 50.62 75.1032 50.6 75.5965 50.56C76.0898 50.5067 76.5432 50.4333 76.9565 50.34ZM83.2846 50.34V64.14C83.2846 64.7 83.3779 65.08 83.5646 65.28C83.7646 65.48 84.0979 65.58 84.5646 65.58V66C84.3113 65.9867 83.9313 65.9733 83.4246 65.96C82.9179 65.9333 82.4046 65.92 81.8846 65.92C81.3646 65.92 80.8379 65.9333 80.3046 65.96C79.7846 65.9733 79.3913 65.9867 79.1246 66V65.58C79.5913 65.58 79.9179 65.48 80.1046 65.28C80.3046 65.08 80.4046 64.7 80.4046 64.14V52.74C80.4046 52.14 80.3113 51.7 80.1246 51.42C79.9513 51.1267 79.6179 50.98 79.1246 50.98V50.56C79.5513 50.6 79.9646 50.62 80.3646 50.62C80.9113 50.62 81.4313 50.6 81.9246 50.56C82.4179 50.5067 82.8713 50.4333 83.2846 50.34ZM89.3755 55.38C89.9355 55.38 90.4222 55.4533 90.8355 55.6C91.2622 55.7333 91.5689 55.8667 91.7555 56C92.2089 56.3067 92.4889 56.1067 92.5955 55.4H93.0155C92.9889 55.7733 92.9689 56.2333 92.9555 56.78C92.9422 57.3133 92.9355 58.0267 92.9355 58.92H92.5155C92.4489 58.4267 92.3222 57.94 92.1355 57.46C91.9489 56.98 91.6755 56.5867 91.3155 56.28C90.9689 55.9733 90.5155 55.82 89.9555 55.82C89.5689 55.82 89.2422 55.9333 88.9755 56.16C88.7089 56.3733 88.5755 56.6867 88.5755 57.1C88.5755 57.5 88.6955 57.8533 88.9355 58.16C89.1755 58.4533 89.4822 58.74 89.8555 59.02C90.2422 59.2867 90.6422 59.5733 91.0555 59.88C91.4955 60.2133 91.8955 60.5467 92.2555 60.88C92.6155 61.2 92.9022 61.5533 93.1155 61.94C93.3289 62.3267 93.4355 62.7867 93.4355 63.32C93.4355 63.92 93.2622 64.4467 92.9155 64.9C92.5689 65.34 92.1089 65.68 91.5355 65.92C90.9755 66.16 90.3489 66.28 89.6555 66.28C89.2555 66.28 88.8955 66.24 88.5755 66.16C88.2689 66.08 88.0022 65.98 87.7755 65.86C87.6022 65.78 87.4355 65.7067 87.2755 65.64C87.1289 65.56 86.9889 65.4933 86.8555 65.44C86.7222 65.4 86.6022 65.4467 86.4955 65.58C86.4022 65.7133 86.3289 65.9 86.2755 66.14H85.8555C85.8822 65.7133 85.9022 65.1933 85.9155 64.58C85.9289 63.9667 85.9355 63.1533 85.9355 62.14H86.3555C86.4355 62.86 86.5822 63.5 86.7955 64.06C87.0089 64.6067 87.2955 65.04 87.6555 65.36C88.0289 65.6667 88.4955 65.82 89.0555 65.82C89.2822 65.82 89.5022 65.7733 89.7155 65.68C89.9289 65.5867 90.1022 65.4333 90.2355 65.22C90.3822 65.0067 90.4555 64.7333 90.4555 64.4C90.4555 63.8133 90.2622 63.3267 89.8755 62.94C89.5022 62.5533 89.0222 62.1333 88.4355 61.68C88.0089 61.3333 87.6022 60.9933 87.2155 60.66C86.8422 60.3133 86.5355 59.94 86.2955 59.54C86.0555 59.1267 85.9355 58.66 85.9355 58.14C85.9355 57.54 86.0955 57.0333 86.4155 56.62C86.7355 56.2067 87.1555 55.9 87.6755 55.7C88.2089 55.4867 88.7755 55.38 89.3755 55.38Z" fill="#2D3A9E"/>
</svg>
