<svg width="137" height="108" viewBox="0 0 137 108" fill="none" xmlns="http://www.w3.org/2000/svg">
<rect x="0.470238" y="12.3272" width="136.06" height="83.1894" rx="8.93452" fill="white" stroke="#D0D8F0" stroke-width="0.940476"/>
<path d="M71.2551 19.884L71.3991 20.82L60.1671 35.22L60.6711 33.996H72.1191C73.1031 33.996 73.7271 33.876 73.9911 33.636C74.2551 33.396 74.4351 32.976 74.5311 32.376H75.2871C75.2871 33.816 75.2991 34.944 75.3231 35.76C75.3471 36.552 75.3831 37.26 75.4311 37.884C75.2631 37.836 74.9511 37.812 74.4951 37.812C74.0391 37.788 73.4991 37.764 72.8751 37.74C72.2511 37.716 71.6151 37.704 70.9671 37.704C70.3431 37.704 69.7551 37.704 69.2031 37.704H57.8271V36.948L71.2551 19.884ZM71.8311 19.884V44.076H67.6551V24.96L71.2551 19.884H71.8311ZM38.6038 51.84C38.9372 51.8533 39.3838 51.8667 39.9438 51.88C40.5172 51.8933 41.0838 51.9 41.6438 51.9C42.2838 51.9 42.9038 51.8933 43.5038 51.88C44.1038 51.8667 44.5305 51.86 44.7838 51.86C46.6372 51.86 48.0238 52.2267 48.9438 52.96C49.8638 53.6933 50.3238 54.64 50.3238 55.8C50.3238 56.28 50.2305 56.7867 50.0438 57.32C49.8572 57.84 49.5372 58.3267 49.0838 58.78C48.6438 59.22 48.0372 59.58 47.2638 59.86C46.4905 60.14 45.5172 60.28 44.3438 60.28H42.3038V59.88H44.1438C44.9305 59.88 45.5238 59.7 45.9238 59.34C46.3372 58.98 46.6172 58.5067 46.7638 57.92C46.9238 57.3333 47.0038 56.7 47.0038 56.02C47.0038 54.7533 46.8172 53.8067 46.4438 53.18C46.0705 52.5533 45.4305 52.24 44.5238 52.24C44.0038 52.24 43.6638 52.3533 43.5038 52.58C43.3572 52.8067 43.2838 53.2667 43.2838 53.96V63.76C43.2838 64.28 43.3372 64.6667 43.4438 64.92C43.5505 65.1733 43.7572 65.34 44.0638 65.42C44.3705 65.5 44.8238 65.5467 45.4238 65.56V66C45.0105 65.9867 44.4772 65.9733 43.8238 65.96C43.1705 65.9467 42.4838 65.94 41.7638 65.94C41.1905 65.94 40.6305 65.9467 40.0838 65.96C39.5372 65.9733 39.0438 65.9867 38.6038 66V65.6C39.0305 65.5733 39.3505 65.52 39.5638 65.44C39.7772 65.36 39.9172 65.2 39.9838 64.96C40.0638 64.72 40.1038 64.36 40.1038 63.88V53.96C40.1038 53.4667 40.0638 53.1067 39.9838 52.88C39.9172 52.64 39.7705 52.48 39.5438 52.4C39.3305 52.3067 39.0172 52.2533 38.6038 52.24V51.84ZM58.0963 55.38C58.523 55.38 58.8697 55.4733 59.1363 55.66C59.403 55.8333 59.5963 56.06 59.7163 56.34C59.8497 56.62 59.9163 56.9133 59.9163 57.22C59.9163 57.7133 59.7697 58.12 59.4763 58.44C59.1963 58.7467 58.823 58.9 58.3563 58.9C57.8897 58.9 57.523 58.7867 57.2563 58.56C57.003 58.32 56.8763 58.0067 56.8763 57.62C56.8763 57.2467 56.9563 56.94 57.1163 56.7C57.2897 56.4467 57.503 56.2333 57.7563 56.06C57.5697 56.0067 57.383 56.0133 57.1963 56.08C56.943 56.12 56.703 56.2267 56.4763 56.4C56.2497 56.56 56.0563 56.7667 55.8963 57.02C55.7363 57.26 55.6097 57.5267 55.5163 57.82C55.423 58.1 55.3763 58.3733 55.3763 58.64V63.94C55.3763 64.58 55.5297 65.0133 55.8363 65.24C56.1563 65.4667 56.6297 65.58 57.2563 65.58V66C56.9497 65.9867 56.503 65.9733 55.9163 65.96C55.3297 65.9333 54.7163 65.92 54.0763 65.92C53.543 65.92 53.003 65.9333 52.4563 65.96C51.9097 65.9733 51.4963 65.9867 51.2163 66V65.58C51.683 65.58 52.0097 65.48 52.1963 65.28C52.3963 65.08 52.4963 64.7 52.4963 64.14V57.84C52.4963 57.24 52.403 56.8 52.2163 56.52C52.043 56.2267 51.7097 56.08 51.2163 56.08V55.66C51.643 55.7 52.0563 55.72 52.4563 55.72C53.0163 55.72 53.5363 55.7 54.0163 55.66C54.5097 55.6067 54.963 55.5333 55.3763 55.44V57.3C55.5363 56.94 55.7497 56.6133 56.0163 56.32C56.283 56.0267 56.5897 55.8 56.9363 55.64C57.283 55.4667 57.6697 55.38 58.0963 55.38ZM65.4388 55.38C66.4122 55.38 67.2655 55.56 67.9988 55.92C68.7322 56.28 69.3055 56.86 69.7188 57.66C70.1322 58.46 70.3388 59.52 70.3388 60.84C70.3388 62.16 70.1322 63.22 69.7188 64.02C69.3055 64.8067 68.7322 65.38 67.9988 65.74C67.2655 66.1 66.4122 66.28 65.4388 66.28C64.4922 66.28 63.6455 66.1 62.8988 65.74C62.1655 65.38 61.5855 64.8067 61.1588 64.02C60.7455 63.22 60.5388 62.16 60.5388 60.84C60.5388 59.52 60.7455 58.46 61.1588 57.66C61.5855 56.86 62.1655 56.28 62.8988 55.92C63.6455 55.56 64.4922 55.38 65.4388 55.38ZM65.4388 55.78C64.9055 55.78 64.4588 56.18 64.0988 56.98C63.7388 57.7667 63.5588 59.0533 63.5588 60.84C63.5588 62.6267 63.7388 63.9133 64.0988 64.7C64.4588 65.4867 64.9055 65.88 65.4388 65.88C65.9855 65.88 66.4322 65.4867 66.7788 64.7C67.1388 63.9133 67.3188 62.6267 67.3188 60.84C67.3188 59.0533 67.1388 57.7667 66.7788 56.98C66.4322 56.18 65.9855 55.78 65.4388 55.78ZM70.6474 69.76V69.4C71.3008 69.3867 71.8208 69.1267 72.2074 68.62C72.5941 68.1267 72.7874 67.3733 72.7874 66.36V57.84C72.7874 57.24 72.6941 56.8 72.5074 56.52C72.3208 56.2267 71.9874 56.08 71.5074 56.08V55.66C71.9341 55.7 72.3474 55.72 72.7474 55.72C73.2941 55.72 73.8141 55.7 74.3074 55.66C74.8008 55.6067 75.2541 55.5333 75.6674 55.44V64.12C75.6674 64.8533 75.6208 65.5 75.5274 66.06C75.4341 66.62 75.2808 67.1133 75.0674 67.54C74.8541 67.9667 74.5741 68.3467 74.2274 68.68C73.8941 69 73.4341 69.26 72.8474 69.46C72.2741 69.66 71.5408 69.76 70.6474 69.76ZM74.0074 50.5C74.5674 50.5 75.0074 50.64 75.3274 50.92C75.6608 51.1867 75.8274 51.56 75.8274 52.04C75.8274 52.52 75.6608 52.9 75.3274 53.18C75.0074 53.4467 74.5674 53.58 74.0074 53.58C73.4474 53.58 73.0008 53.4467 72.6674 53.18C72.3474 52.9 72.1874 52.52 72.1874 52.04C72.1874 51.56 72.3474 51.1867 72.6674 50.92C73.0008 50.64 73.4474 50.5 74.0074 50.5ZM82.6849 55.38C83.8583 55.38 84.7783 55.7267 85.4449 56.42C86.1116 57.1133 86.4449 58.2467 86.4449 59.82H79.8649L79.8249 59.44H83.9249C83.9383 58.7867 83.8983 58.1867 83.8049 57.64C83.7116 57.08 83.5649 56.6333 83.3649 56.3C83.1649 55.9667 82.8983 55.8 82.5649 55.8C82.0983 55.8 81.6983 56.0933 81.3649 56.68C81.0449 57.2667 80.8516 58.24 80.7849 59.6L80.8449 59.72C80.8316 59.88 80.8183 60.0467 80.8049 60.22C80.8049 60.3933 80.8049 60.5733 80.8049 60.76C80.8049 61.68 80.9316 62.4267 81.1849 63C81.4516 63.5733 81.7849 63.9933 82.1849 64.26C82.5849 64.5133 82.9916 64.64 83.4049 64.64C83.6849 64.64 83.9716 64.6 84.2649 64.52C84.5716 64.4267 84.8783 64.2667 85.1849 64.04C85.4916 63.8 85.7783 63.4667 86.0449 63.04L86.4049 63.16C86.2449 63.6667 85.9916 64.16 85.6449 64.64C85.2983 65.12 84.8583 65.5133 84.3249 65.82C83.7916 66.1267 83.1516 66.28 82.4049 66.28C81.4983 66.28 80.6983 66.0867 80.0049 65.7C79.3116 65.3133 78.7649 64.7267 78.3649 63.94C77.9783 63.1533 77.7849 62.1533 77.7849 60.94C77.7849 59.7 77.9916 58.6667 78.4049 57.84C78.8316 57.0133 79.4116 56.4 80.1449 56C80.8916 55.5867 81.7383 55.38 82.6849 55.38ZM92.803 55.38C93.323 55.38 93.7964 55.44 94.223 55.56C94.663 55.6667 95.023 55.8067 95.303 55.98C95.6497 56.1933 95.9164 56.46 96.103 56.78C96.303 57.0867 96.403 57.4467 96.403 57.86C96.403 58.3267 96.2564 58.7133 95.963 59.02C95.6697 59.3133 95.2897 59.46 94.823 59.46C94.3564 59.46 93.983 59.3267 93.703 59.06C93.423 58.7933 93.283 58.4333 93.283 57.98C93.283 57.5533 93.4164 57.2 93.683 56.92C93.9497 56.6267 94.2564 56.4333 94.603 56.34C94.4964 56.2067 94.3364 56.0933 94.123 56C93.9097 55.9067 93.6697 55.86 93.403 55.86C92.9897 55.86 92.623 55.98 92.303 56.22C91.9964 56.46 91.7364 56.7933 91.523 57.22C91.3097 57.6467 91.143 58.1467 91.023 58.72C90.9164 59.2933 90.863 59.92 90.863 60.6C90.863 61.6267 90.9897 62.4333 91.243 63.02C91.5097 63.6067 91.843 64.02 92.243 64.26C92.6564 64.5 93.083 64.62 93.523 64.62C93.7764 64.62 94.0497 64.58 94.343 64.5C94.6497 64.42 94.9564 64.26 95.263 64.02C95.583 63.78 95.8764 63.44 96.143 63L96.483 63.12C96.3364 63.6133 96.0964 64.1067 95.763 64.6C95.4297 65.0933 94.9964 65.5 94.463 65.82C93.9297 66.1267 93.2764 66.28 92.503 66.28C91.6364 66.28 90.8497 66.0933 90.143 65.72C89.4497 65.3333 88.8897 64.7467 88.463 63.96C88.0497 63.16 87.843 62.1333 87.843 60.88C87.843 59.68 88.0564 58.6733 88.483 57.86C88.923 57.0333 89.5164 56.4133 90.263 56C91.0097 55.5867 91.8564 55.38 92.803 55.38ZM101.585 52.38V55.66H103.945V56.06H101.585V64.14C101.585 64.54 101.658 64.8267 101.805 65C101.952 65.16 102.172 65.24 102.465 65.24C102.705 65.24 102.945 65.1533 103.185 64.98C103.425 64.7933 103.638 64.48 103.825 64.04L104.165 64.22C103.952 64.82 103.625 65.3133 103.185 65.7C102.758 66.0867 102.172 66.28 101.425 66.28C100.985 66.28 100.598 66.22 100.265 66.1C99.9316 65.9933 99.6516 65.8267 99.4249 65.6C99.1316 65.3067 98.9383 64.9467 98.8449 64.52C98.7516 64.08 98.7049 63.5133 98.7049 62.82V56.06H97.0249V55.66H98.7049V53.02C99.2649 53.02 99.7783 52.9733 100.245 52.88C100.725 52.7733 101.172 52.6067 101.585 52.38Z" fill="#2D3A9E"/>
</svg>
